
<svg width="360" height="570" viewBox="0 0 360 570" fill="none" xmlns="http://www.w3.org/2000/svg">
<path d="M338.785 239.477C338.074 239.477 337.363 239.62 336.746 239.904H336.415C336.32 237.486 334.281 235.542 331.863 235.542C330.725 235.542 329.682 235.969 328.876 236.68C328.924 236.301 328.971 235.922 328.971 235.495C328.971 231.892 326.079 229 322.476 229C318.873 229 315.981 231.892 315.981 235.495C315.981 235.874 316.029 236.301 316.076 236.68C315.27 235.969 314.227 235.542 313.089 235.542C310.624 235.542 308.633 237.486 308.538 239.904H308.206C307.59 239.62 306.879 239.477 306.168 239.477C303.323 239.477 301.047 241.753 301.047 244.598C301.047 247.442 303.323 249.718 306.168 249.718C307.448 249.718 308.633 249.244 309.486 248.485C310.34 249.576 311.62 250.287 313.137 250.287C314.512 250.287 315.697 249.718 316.55 248.77C318.02 250.05 320.153 250.856 322.524 250.856C324.894 250.856 326.98 250.05 328.497 248.77C329.351 249.718 330.536 250.287 331.911 250.287C333.38 250.287 334.708 249.576 335.561 248.485C336.462 249.244 337.647 249.718 338.88 249.718C341.724 249.718 344 247.442 344 244.598C343.905 241.8 341.63 239.477 338.785 239.477Z" fill="url(#paint0_linear_248_524)"/>
<path d="M322.476 229.047C318.873 229.047 315.981 231.939 315.981 235.542C315.981 235.921 316.029 236.348 316.076 236.727C315.27 236.016 314.227 235.589 313.089 235.589C310.624 235.589 308.633 237.533 308.538 239.951H308.206C307.59 239.667 306.879 239.524 306.168 239.524C303.323 239.524 301.047 241.8 301.047 244.644C301.047 247.489 303.323 249.765 306.168 249.765C307.448 249.765 308.633 249.291 309.486 248.532C310.34 249.622 311.62 250.334 313.137 250.334C314.512 250.334 315.697 249.765 316.55 248.816C318.02 250.096 320.153 250.902 322.524 250.902V229.047H322.476Z" fill="url(#paint1_linear_248_524)"/>
<path d="M336.557 240.189H336.888C337.505 239.904 338.216 239.762 338.927 239.762C340.776 239.762 342.388 240.71 343.289 242.18C342.435 240.568 340.729 239.478 338.785 239.478C338.074 239.478 337.363 239.62 336.746 239.904H336.557C336.557 239.999 336.557 240.094 336.557 240.189Z" fill="white"/>
<path d="M329.019 236.965C329.825 236.254 330.868 235.827 332.006 235.827C333.617 235.827 335.04 236.681 335.846 237.913C335.087 236.491 333.57 235.543 331.863 235.543C330.82 235.543 329.872 235.875 329.114 236.491C329.066 236.681 329.019 236.823 329.019 236.965Z" fill="white"/>
<path d="M301.19 244.882C301.19 242.037 303.465 239.762 306.31 239.762C307.021 239.762 307.732 239.904 308.348 240.189H308.68C308.775 237.771 310.814 235.827 313.232 235.827C314.369 235.827 315.412 236.254 316.218 236.965C316.171 236.585 316.123 236.206 316.123 235.779C316.123 232.176 319.015 229.284 322.619 229.284C324.989 229.284 327.028 230.564 328.165 232.413C327.075 230.375 324.942 229 322.429 229C318.826 229 315.934 231.892 315.934 235.495C315.934 235.874 315.981 236.301 316.029 236.68C315.223 235.969 314.18 235.542 313.042 235.542C310.577 235.542 308.585 237.486 308.491 239.904H308.159C307.542 239.62 306.831 239.477 306.12 239.477C303.276 239.477 301 241.753 301 244.598C301 245.593 301.284 246.494 301.759 247.3C301.379 246.589 301.19 245.783 301.19 244.882Z" fill="white"/>
<rect width="360" height="570" fill="#26397F"/>
<path d="M62.785 351.477C62.0738 351.477 61.3627 351.62 60.7464 351.904H60.4145C60.3197 349.486 58.2811 347.542 55.8633 347.542C54.7254 347.542 53.6824 347.969 52.8765 348.68C52.9239 348.301 52.9713 347.922 52.9713 347.495C52.9713 343.892 50.0794 341 46.4763 341C42.8732 341 39.9812 343.892 39.9812 347.495C39.9812 347.874 40.0286 348.301 40.076 348.68C39.2701 347.969 38.2271 347.542 37.0893 347.542C34.624 347.542 32.6328 349.486 32.538 351.904H32.2061C31.5898 351.62 30.8787 351.477 30.1675 351.477C27.323 351.477 25.0474 353.753 25.0474 356.598C25.0474 359.442 27.323 361.718 30.1675 361.718C31.4476 361.718 32.6328 361.244 33.4862 360.485C34.3395 361.576 35.6196 362.287 37.1367 362.287C38.5115 362.287 39.6968 361.718 40.5501 360.77C42.0198 362.05 44.1532 362.856 46.5237 362.856C48.8941 362.856 50.9801 362.05 52.4972 360.77C53.3506 361.718 54.5358 362.287 55.9107 362.287C57.3803 362.287 58.7078 361.576 59.5612 360.485C60.4619 361.244 61.6472 361.718 62.8798 361.718C65.7243 361.718 68 359.442 68 356.598C67.9051 353.8 65.6295 351.477 62.785 351.477Z" fill="url(#paint2_linear_248_524)"/>
<path d="M46.4763 341.047C42.8732 341.047 39.9812 343.939 39.9812 347.542C39.9812 347.921 40.0286 348.348 40.076 348.727C39.2701 348.016 38.2271 347.589 37.0893 347.589C34.624 347.589 32.6328 349.533 32.538 351.951H32.2061C31.5898 351.667 30.8787 351.524 30.1675 351.524C27.323 351.524 25.0474 353.8 25.0474 356.644C25.0474 359.489 27.323 361.765 30.1675 361.765C31.4476 361.765 32.6328 361.291 33.4862 360.532C34.3395 361.622 35.6196 362.334 37.1367 362.334C38.5115 362.334 39.6968 361.765 40.5501 360.816C42.0198 362.096 44.1532 362.902 46.5237 362.902V341.047H46.4763Z" fill="url(#paint3_linear_248_524)"/>
<path d="M60.5566 352.189H60.8885C61.5048 351.904 62.216 351.762 62.9271 351.762C64.776 351.762 66.3879 352.71 67.2887 354.18C66.4353 352.568 64.7286 351.478 62.7848 351.478C62.0737 351.478 61.3626 351.62 60.7463 351.904H60.5566C60.5566 351.999 60.5566 352.094 60.5566 352.189Z" fill="white"/>
<path d="M53.0188 348.965C53.8248 348.254 54.8677 347.827 56.0056 347.827C57.6175 347.827 59.0398 348.681 59.8457 349.913C59.0872 348.491 57.5701 347.543 55.8633 347.543C54.8203 347.543 53.8722 347.875 53.1136 348.491C53.0662 348.681 53.0188 348.823 53.0188 348.965Z" fill="white"/>
<path d="M25.1896 356.882C25.1896 354.037 27.4652 351.762 30.3098 351.762C31.0209 351.762 31.7321 351.904 32.3484 352.189H32.6802C32.7751 349.771 34.8137 347.827 37.2315 347.827C38.3694 347.827 39.4123 348.254 40.2183 348.965C40.1709 348.585 40.1235 348.206 40.1235 347.779C40.1235 344.176 43.0154 341.284 46.6185 341.284C48.989 341.284 51.0276 342.564 52.1654 344.413C51.075 342.375 48.9416 341 46.4289 341C42.8258 341 39.9339 343.892 39.9339 347.495C39.9339 347.874 39.9812 348.301 40.0287 348.68C39.2227 347.969 38.1797 347.542 37.0419 347.542C34.5766 347.542 32.5854 349.486 32.4906 351.904H32.1588C31.5424 351.62 30.8313 351.477 30.1202 351.477C27.2756 351.477 25 353.753 25 356.598C25 357.593 25.2844 358.494 25.7585 359.3C25.3793 358.589 25.1896 357.783 25.1896 356.882Z" fill="white"/>
<path d="M346.785 484.477C346.074 484.477 345.363 484.62 344.746 484.904H344.415C344.32 482.486 342.281 480.542 339.863 480.542C338.725 480.542 337.682 480.969 336.876 481.68C336.924 481.301 336.971 480.922 336.971 480.495C336.971 476.892 334.079 474 330.476 474C326.873 474 323.981 476.892 323.981 480.495C323.981 480.874 324.029 481.301 324.076 481.68C323.27 480.969 322.227 480.542 321.089 480.542C318.624 480.542 316.633 482.486 316.538 484.904H316.206C315.59 484.62 314.879 484.477 314.168 484.477C311.323 484.477 309.047 486.753 309.047 489.598C309.047 492.442 311.323 494.718 314.168 494.718C315.448 494.718 316.633 494.244 317.486 493.485C318.34 494.576 319.62 495.287 321.137 495.287C322.512 495.287 323.697 494.718 324.55 493.77C326.02 495.05 328.153 495.856 330.524 495.856C332.894 495.856 334.98 495.05 336.497 493.77C337.351 494.718 338.536 495.287 339.911 495.287C341.38 495.287 342.708 494.576 343.561 493.485C344.462 494.244 345.647 494.718 346.88 494.718C349.724 494.718 352 492.442 352 489.598C351.905 486.8 349.63 484.477 346.785 484.477Z" fill="url(#paint4_linear_248_524)"/>
<path d="M330.476 474.047C326.873 474.047 323.981 476.939 323.981 480.542C323.981 480.921 324.029 481.348 324.076 481.727C323.27 481.016 322.227 480.589 321.089 480.589C318.624 480.589 316.633 482.533 316.538 484.951H316.206C315.59 484.667 314.879 484.524 314.168 484.524C311.323 484.524 309.047 486.8 309.047 489.644C309.047 492.489 311.323 494.765 314.168 494.765C315.448 494.765 316.633 494.291 317.486 493.532C318.34 494.622 319.62 495.334 321.137 495.334C322.512 495.334 323.697 494.765 324.55 493.816C326.02 495.096 328.153 495.902 330.524 495.902V474.047H330.476Z" fill="url(#paint5_linear_248_524)"/>
<path d="M344.557 485.189H344.888C345.505 484.904 346.216 484.762 346.927 484.762C348.776 484.762 350.388 485.71 351.289 487.18C350.435 485.568 348.729 484.478 346.785 484.478C346.074 484.478 345.363 484.62 344.746 484.904H344.557C344.557 484.999 344.557 485.094 344.557 485.189Z" fill="white"/>
<path d="M337.019 481.965C337.825 481.254 338.868 480.827 340.006 480.827C341.617 480.827 343.04 481.681 343.846 482.913C343.087 481.491 341.57 480.543 339.863 480.543C338.82 480.543 337.872 480.875 337.114 481.491C337.066 481.681 337.019 481.823 337.019 481.965Z" fill="white"/>
<path d="M309.19 489.882C309.19 487.037 311.465 484.762 314.31 484.762C315.021 484.762 315.732 484.904 316.348 485.189H316.68C316.775 482.771 318.814 480.827 321.232 480.827C322.369 480.827 323.412 481.254 324.218 481.965C324.171 481.585 324.123 481.206 324.123 480.779C324.123 477.176 327.015 474.284 330.619 474.284C332.989 474.284 335.028 475.564 336.165 477.413C335.075 475.375 332.942 474 330.429 474C326.826 474 323.934 476.892 323.934 480.495C323.934 480.874 323.981 481.301 324.029 481.68C323.223 480.969 322.18 480.542 321.042 480.542C318.577 480.542 316.585 482.486 316.491 484.904H316.159C315.542 484.62 314.831 484.477 314.12 484.477C311.276 484.477 309 486.753 309 489.598C309 490.593 309.284 491.494 309.759 492.3C309.379 491.589 309.19 490.783 309.19 489.882Z" fill="white"/>
<path d="M55.785 551.477C55.0738 551.477 54.3627 551.62 53.7464 551.904H53.4145C53.3197 549.486 51.2811 547.542 48.8633 547.542C47.7254 547.542 46.6824 547.969 45.8765 548.68C45.9239 548.301 45.9713 547.922 45.9713 547.495C45.9713 543.892 43.0794 541 39.4763 541C35.8732 541 32.9812 543.892 32.9812 547.495C32.9812 547.874 33.0286 548.301 33.076 548.68C32.2701 547.969 31.2271 547.542 30.0893 547.542C27.624 547.542 25.6328 549.486 25.538 551.904H25.2061C24.5898 551.62 23.8787 551.477 23.1675 551.477C20.323 551.477 18.0474 553.753 18.0474 556.598C18.0474 559.442 20.323 561.718 23.1675 561.718C24.4476 561.718 25.6328 561.244 26.4862 560.485C27.3395 561.576 28.6196 562.287 30.1367 562.287C31.5115 562.287 32.6968 561.718 33.5501 560.77C35.0198 562.05 37.1532 562.856 39.5237 562.856C41.8941 562.856 43.9801 562.05 45.4972 560.77C46.3506 561.718 47.5358 562.287 48.9107 562.287C50.3803 562.287 51.7078 561.576 52.5612 560.485C53.4619 561.244 54.6472 561.718 55.8798 561.718C58.7243 561.718 61 559.442 61 556.598C60.9051 553.8 58.6295 551.477 55.785 551.477Z" fill="url(#paint6_linear_248_524)"/>
<path d="M39.4763 541.047C35.8732 541.047 32.9812 543.939 32.9812 547.542C32.9812 547.921 33.0286 548.348 33.076 548.727C32.2701 548.016 31.2271 547.589 30.0893 547.589C27.624 547.589 25.6328 549.533 25.538 551.951H25.2061C24.5898 551.667 23.8787 551.524 23.1675 551.524C20.323 551.524 18.0474 553.8 18.0474 556.644C18.0474 559.489 20.323 561.765 23.1675 561.765C24.4476 561.765 25.6328 561.291 26.4862 560.532C27.3395 561.622 28.6196 562.334 30.1367 562.334C31.5115 562.334 32.6968 561.765 33.5501 560.816C35.0198 562.096 37.1532 562.902 39.5237 562.902V541.047H39.4763Z" fill="url(#paint7_linear_248_524)"/>
<path d="M53.5566 552.189H53.8885C54.5048 551.904 55.216 551.762 55.9271 551.762C57.776 551.762 59.3879 552.71 60.2887 554.18C59.4353 552.568 57.7286 551.478 55.7848 551.478C55.0737 551.478 54.3626 551.62 53.7463 551.904H53.5566C53.5566 551.999 53.5566 552.094 53.5566 552.189Z" fill="white"/>
<path d="M46.0188 548.965C46.8248 548.254 47.8677 547.827 49.0056 547.827C50.6175 547.827 52.0398 548.681 52.8457 549.913C52.0872 548.491 50.5701 547.543 48.8633 547.543C47.8203 547.543 46.8722 547.875 46.1136 548.491C46.0662 548.681 46.0188 548.823 46.0188 548.965Z" fill="white"/>
<path d="M18.1896 556.882C18.1896 554.037 20.4652 551.762 23.3098 551.762C24.0209 551.762 24.7321 551.904 25.3484 552.189H25.6802C25.7751 549.771 27.8137 547.827 30.2315 547.827C31.3694 547.827 32.4123 548.254 33.2183 548.965C33.1709 548.585 33.1235 548.206 33.1235 547.779C33.1235 544.176 36.0154 541.284 39.6185 541.284C41.989 541.284 44.0276 542.564 45.1654 544.413C44.075 542.375 41.9416 541 39.4289 541C35.8258 541 32.9339 543.892 32.9339 547.495C32.9339 547.874 32.9812 548.301 33.0287 548.68C32.2227 547.969 31.1797 547.542 30.0419 547.542C27.5766 547.542 25.5854 549.486 25.4906 551.904H25.1588C24.5424 551.62 23.8313 551.477 23.1202 551.477C20.2756 551.477 18 553.753 18 556.598C18 557.593 18.2844 558.494 18.7585 559.3C18.3793 558.589 18.1896 557.783 18.1896 556.882Z" fill="white"/>
<defs>
<linearGradient id="paint0_linear_248_524" x1="325.416" y1="242.749" x2="398.615" y2="248.318" gradientUnits="userSpaceOnUse">
<stop stop-color="white"/>
<stop offset="0.0933384" stop-color="#F6F6F6"/>
<stop offset="0.2443" stop-color="#DFDEDE"/>
<stop offset="0.4342" stop-color="#B9B7B8"/>
<stop offset="0.6555" stop-color="#838182"/>
<stop offset="0.9003" stop-color="#403D3E"/>
<stop offset="1" stop-color="#231F20"/>
</linearGradient>
<linearGradient id="paint1_linear_248_524" x1="320.748" y1="239.928" x2="286.241" y2="239.928" gradientUnits="userSpaceOnUse">
<stop stop-color="white"/>
<stop offset="0.0933384" stop-color="#F6F6F6"/>
<stop offset="0.2443" stop-color="#DFDEDE"/>
<stop offset="0.4342" stop-color="#B9B7B8"/>
<stop offset="0.6555" stop-color="#838182"/>
<stop offset="0.9003" stop-color="#403D3E"/>
<stop offset="1" stop-color="#231F20"/>
</linearGradient>
<linearGradient id="paint2_linear_248_524" x1="49.4156" y1="354.749" x2="122.615" y2="360.318" gradientUnits="userSpaceOnUse">
<stop stop-color="white"/>
<stop offset="0.0933384" stop-color="#F6F6F6"/>
<stop offset="0.2443" stop-color="#DFDEDE"/>
<stop offset="0.4342" stop-color="#B9B7B8"/>
<stop offset="0.6555" stop-color="#838182"/>
<stop offset="0.9003" stop-color="#403D3E"/>
<stop offset="1" stop-color="#231F20"/>
</linearGradient>
<linearGradient id="paint3_linear_248_524" x1="44.7478" y1="351.928" x2="10.2407" y2="351.928" gradientUnits="userSpaceOnUse">
<stop stop-color="white"/>
<stop offset="0.0933384" stop-color="#F6F6F6"/>
<stop offset="0.2443" stop-color="#DFDEDE"/>
<stop offset="0.4342" stop-color="#B9B7B8"/>
<stop offset="0.6555" stop-color="#838182"/>
<stop offset="0.9003" stop-color="#403D3E"/>
<stop offset="1" stop-color="#231F20"/>
</linearGradient>
<linearGradient id="paint4_linear_248_524" x1="333.416" y1="487.749" x2="406.615" y2="493.318" gradientUnits="userSpaceOnUse">
<stop stop-color="white"/>
<stop offset="0.0933384" stop-color="#F6F6F6"/>
<stop offset="0.2443" stop-color="#DFDEDE"/>
<stop offset="0.4342" stop-color="#B9B7B8"/>
<stop offset="0.6555" stop-color="#838182"/>
<stop offset="0.9003" stop-color="#403D3E"/>
<stop offset="1" stop-color="#231F20"/>
</linearGradient>
<linearGradient id="paint5_linear_248_524" x1="328.748" y1="484.928" x2="294.241" y2="484.928" gradientUnits="userSpaceOnUse">
<stop stop-color="white"/>
<stop offset="0.0933384" stop-color="#F6F6F6"/>
<stop offset="0.2443" stop-color="#DFDEDE"/>
<stop offset="0.4342" stop-color="#B9B7B8"/>
<stop offset="0.6555" stop-color="#838182"/>
<stop offset="0.9003" stop-color="#403D3E"/>
<stop offset="1" stop-color="#231F20"/>
</linearGradient>
<linearGradient id="paint6_linear_248_524" x1="42.4156" y1="554.749" x2="115.615" y2="560.318" gradientUnits="userSpaceOnUse">
<stop stop-color="white"/>
<stop offset="0.0933384" stop-color="#F6F6F6"/>
<stop offset="0.2443" stop-color="#DFDEDE"/>
<stop offset="0.4342" stop-color="#B9B7B8"/>
<stop offset="0.6555" stop-color="#838182"/>
<stop offset="0.9003" stop-color="#403D3E"/>
<stop offset="1" stop-color="#231F20"/>
</linearGradient>
<linearGradient id="paint7_linear_248_524" x1="37.7478" y1="551.928" x2="3.24066" y2="551.928" gradientUnits="userSpaceOnUse">
<stop stop-color="white"/>
<stop offset="0.0933384" stop-color="#F6F6F6"/>
<stop offset="0.2443" stop-color="#DFDEDE"/>
<stop offset="0.4342" stop-color="#B9B7B8"/>
<stop offset="0.6555" stop-color="#838182"/>
<stop offset="0.9003" stop-color="#403D3E"/>
<stop offset="1" stop-color="#231F20"/>
</linearGradient>
</defs>
</svg>
