
<svg width="40" height="40" viewBox="0 0 40 40" fill="none" xmlns="http://www.w3.org/2000/svg">
<path d="M17.2234 5.00078C17.4781 4.27422 18.2078 3.74922 18.9805 3.75234C19.6852 3.75078 20.3906 3.74375 21.0961 3.75625C21.8422 3.77969 22.5289 4.3 22.7766 5.00078C23.7172 7.50078 24.6531 10.0016 25.5945 12.5008C25.768 12.9617 25.9406 13.4227 26.1188 13.882C26.2016 14.0891 26.25 14.3094 26.2508 14.5328C26.2484 20.3656 26.2508 26.1984 26.2492 32.0312C24.9828 31.7563 23.7289 31.4187 22.5 31.0078C22.4953 30.0437 22.5078 29.0789 22.4953 28.1156C22.5031 27.7891 22.2133 27.4969 21.8859 27.5047C20.657 27.493 19.4266 27.5031 18.1977 27.5C17.8961 27.475 17.5805 27.6695 17.5211 27.9758C17.475 28.3117 17.5078 28.6531 17.5008 28.9914C16.2086 28.3875 14.9781 27.6664 13.7531 26.9398C13.7422 26.9336 13.7211 26.9211 13.7109 26.9148C13.7617 26.5648 13.7555 26.2102 13.7492 25.857C13.7523 22.3172 13.7492 18.7766 13.75 15.2367C13.7547 14.8078 13.6945 14.3586 13.8633 13.9508C14.05 13.4695 14.232 12.9859 14.4094 12.5016C15.3492 10.0016 16.2844 7.50078 17.2234 5.00078ZM19.7 8.76875C18.45 8.89297 17.4289 10.0797 17.5031 11.3359C17.5148 12.6086 18.6422 13.732 19.9141 13.7461C21.1547 13.818 22.3305 12.825 22.475 11.5922C22.5875 10.8109 22.3008 9.98594 21.7266 9.44453C21.1984 8.92891 20.4313 8.67891 19.7 8.76875ZM17.5039 18.118C17.4953 19.5781 17.5016 21.0398 17.5008 22.5008C17.2398 22.5055 16.9766 22.4797 16.718 22.5219C16.3734 22.5992 16.1586 23.0023 16.2867 23.332C16.3773 23.6086 16.6719 23.775 16.9562 23.75C18.9867 23.75 21.0172 23.75 23.0477 23.75C23.2547 23.7594 23.4719 23.6898 23.6047 23.5234C23.8219 23.2727 23.7852 22.8539 23.525 22.6461C23.2375 22.4109 22.8391 22.5258 22.4992 22.5C22.4984 21.0406 22.5047 19.5805 22.4961 18.1203C22.5063 17.7906 22.2117 17.4953 21.882 17.5031C20.6289 17.4969 19.3758 17.4984 18.1234 17.5031C17.7922 17.4922 17.4945 17.7867 17.5039 18.118Z" fill="#D0DBF7"/>
<path d="M5.11484 5.26692C5.23828 5.07238 5.47656 4.98332 5.7 4.99973C9.54141 5.00051 13.3828 4.99817 17.2234 5.00051C16.2844 7.50051 15.3492 10.0013 14.4094 12.5013C10.4367 12.4997 6.46406 12.4966 2.49219 12.5029C2.51094 12.238 2.48672 11.9724 2.50781 11.7075C3.41406 9.57707 4.2125 7.39817 5.11484 5.26692Z" fill="#344C80"/>
<path d="M22.7766 5.00051C26.6156 4.99817 30.4547 5.00129 34.2937 4.99895C34.5594 4.97395 34.8398 5.11457 34.9398 5.36926C35.8016 7.47863 36.6086 9.61145 37.4937 11.7099C37.5109 11.9724 37.4953 12.2364 37.5 12.4997C33.5312 12.5005 29.5633 12.4982 25.5945 12.5005C24.6531 10.0013 23.7172 7.50051 22.7766 5.00051Z" fill="#344C80"/>
<path d="M19.6999 8.76897C20.4312 8.67912 21.1984 8.92912 21.7265 9.44475C22.3007 9.98615 22.5874 10.8112 22.4749 11.5924C22.3304 12.8252 21.1546 13.8182 19.914 13.7463C18.6421 13.7322 17.5148 12.6088 17.5031 11.3362C17.4289 10.0799 18.4499 8.89318 19.6999 8.76897Z" fill="#CB9044"/>
<path d="M6.25463 16.8666C6.24525 16.5369 6.539 16.2439 6.86791 16.2533C8.04213 16.2416 9.21635 16.2557 10.3906 16.2471C10.607 16.2494 10.8523 16.2385 11.0249 16.3947C11.1945 16.5275 11.257 16.7479 11.2499 16.9557C11.2507 18.8041 11.2492 20.6518 11.2499 22.4994C10.3085 22.5033 9.36635 22.4916 8.42494 22.5064L8.38119 22.4869C7.63275 21.6596 6.914 20.8057 6.24994 19.9088V19.8643C6.25385 18.865 6.24291 17.8658 6.25463 16.8666Z" fill="#344C80"/>
<path d="M28.7531 16.8732C28.7414 16.5443 29.0336 16.2466 29.3633 16.2536C30.6195 16.2474 31.8758 16.2474 33.132 16.2536C33.4617 16.245 33.7547 16.5396 33.7461 16.8693C33.7547 18.7458 33.7484 20.6232 33.7492 22.4997C32.0828 22.5005 30.4172 22.4997 28.7508 22.4997C28.7516 20.6247 28.7461 18.7489 28.7531 16.8732Z" fill="#344C80"/>
<path d="M17.5039 18.118C17.4945 17.7867 17.7921 17.4922 18.1234 17.5031C19.3757 17.4985 20.6289 17.4969 21.882 17.5031C22.2117 17.4953 22.5062 17.7906 22.496 18.1203C22.5046 19.5805 22.4984 21.0406 22.4992 22.5C20.8328 22.5008 19.1671 22.4985 17.5007 22.5008C17.5015 21.0399 17.4953 19.5781 17.5039 18.118Z" fill="#344C80"/>
<path d="M17.521 27.976C17.5804 27.6697 17.896 27.4752 18.1975 27.5002C19.4265 27.5033 20.6569 27.4932 21.8858 27.5049C22.2132 27.4971 22.503 27.7893 22.4952 28.1158C22.5077 29.0791 22.4952 30.044 22.4999 31.008C21.4132 30.6268 20.3218 30.2572 19.2647 29.7971C18.6655 29.565 18.0968 29.2627 17.5007 29.0252V28.9916C17.5077 28.6533 17.4749 28.3119 17.521 27.976Z" fill="#344C80"/>
<path d="M28.7578 29.9169C28.807 28.581 30.0562 27.3982 31.4062 27.5091C32.6226 27.5607 33.6875 28.6208 33.7406 29.8388C33.7625 30.9919 33.7437 32.1458 33.75 33.2989C32.0758 33.1107 30.4039 32.8927 28.7508 32.5661C28.7547 31.6833 28.7391 30.7997 28.7578 29.9169Z" fill="#344C80"/>
<path d="M2.49219 12.5028C6.46406 12.4965 10.4367 12.4996 14.4094 12.5012C14.232 12.9856 14.05 13.4692 13.8633 13.9504C13.6945 14.3582 13.7547 14.8075 13.75 15.2364C13.7492 18.7762 13.7523 22.3168 13.7492 25.8567C13.7555 26.2098 13.7617 26.5645 13.7109 26.9145C12.6508 26.2567 11.6492 25.5067 10.6945 24.7035C10.3414 24.3973 9.97266 24.1051 9.66641 23.7496C10.4047 23.745 11.143 23.7575 11.8805 23.7457C12.1594 23.752 12.4211 23.5473 12.4812 23.2754C12.5687 22.9551 12.3562 22.5879 12.0289 22.5207C11.7711 22.4809 11.5094 22.5028 11.25 22.4996C11.2492 20.652 11.2508 18.8043 11.25 16.9559C11.257 16.7481 11.1945 16.5278 11.025 16.395C10.8523 16.2387 10.607 16.2496 10.3906 16.2473C9.21641 16.2559 8.04219 16.2418 6.86797 16.2535C6.53906 16.2442 6.24531 16.5371 6.25469 16.8668C6.24297 17.866 6.25391 18.8653 6.25 19.8645C4.92109 18.0621 3.86641 16.0629 3.04688 13.9809C2.86016 13.5082 2.69844 13.0262 2.51016 12.5535L2.49219 12.5028Z" fill="#E6ECFF"/>
<path d="M25.5945 12.5001C29.5632 12.4978 33.5312 12.5001 37.5 12.4993C37.5 19.5353 37.5 26.5712 37.5 33.6071C36.2476 33.5368 34.9945 33.4587 33.75 33.2985C33.7437 32.1454 33.7625 30.9915 33.7406 29.8384C33.6875 28.6204 32.6226 27.5603 31.4062 27.5087C30.0562 27.3978 28.807 28.5806 28.7578 29.9165C28.739 30.7993 28.7546 31.6829 28.7507 32.5657C27.9164 32.3907 27.082 32.2142 26.2492 32.0306C26.2507 26.1978 26.2484 20.3649 26.2507 14.5321C26.25 14.3087 26.2015 14.0884 26.1187 13.8813C25.9406 13.422 25.7679 12.961 25.5945 12.5001ZM28.7531 16.8728C28.746 18.7485 28.7515 20.6243 28.7507 22.4993C28.4882 22.5048 28.2234 22.4782 27.9632 22.522C27.6234 22.6017 27.4117 22.9993 27.5351 23.3267C27.6242 23.6071 27.921 23.7743 28.2078 23.7493C30.2656 23.747 32.3226 23.754 34.3804 23.7462C34.8648 23.7681 35.182 23.1446 34.8835 22.7634C34.6289 22.3907 34.1304 22.5204 33.7492 22.4993C33.7484 20.6228 33.7546 18.7454 33.746 16.8688C33.7546 16.5392 33.4617 16.2446 33.132 16.2532C31.8757 16.247 30.6195 16.247 29.3632 16.2532C29.0335 16.2462 28.7414 16.5438 28.7531 16.8728Z" fill="#E6ECFF"/>
<path d="M2.51016 12.5539C2.69844 13.0266 2.86016 13.5086 3.04688 13.9812C3.86641 16.0633 4.9211 18.0625 6.25 19.8648V19.9094C6.25 20.7727 6.25 21.6367 6.25 22.5C5.97188 22.5078 5.68985 22.4734 5.41485 22.5266C5.02735 22.6453 4.86797 23.1633 5.10469 23.4867C5.21797 23.6523 5.41329 23.7594 5.61641 23.7492C6.95938 23.7523 8.30313 23.7484 9.6461 23.75H9.66641C9.97266 24.1055 10.3414 24.3977 10.6945 24.7039C11.6492 25.507 12.6508 26.257 13.7109 26.9148C13.7211 26.9211 13.7422 26.9336 13.7531 26.9398C13.7484 30.043 13.7477 33.1461 13.7523 36.25C12.9188 36.25 12.0844 36.25 11.25 36.25C11.2484 34.1656 11.2531 32.082 11.2477 29.9984C11.25 29.2148 10.8609 28.4445 10.2258 27.9859C9.48985 27.4359 8.4336 27.3352 7.62657 27.7883C6.79532 28.2219 6.24297 29.1336 6.25079 30.0727C6.24844 32.1312 6.25079 34.1906 6.25 36.25C5.20938 36.2508 4.16875 36.2492 3.12813 36.2508C2.78985 36.2875 2.46407 35.9648 2.49922 35.6266C2.50157 28.2055 2.49922 20.7836 2.5 13.3625C2.50079 13.093 2.49375 12.8234 2.51016 12.5539Z" fill="#C5D1ED"/>
<path d="M26.2492 32.0312C27.082 32.2148 27.9164 32.3914 28.7508 32.5664C28.7492 33.7945 28.75 35.0219 28.75 36.25C27.9156 36.25 27.0813 36.25 26.2469 36.25C26.2524 34.8438 26.2508 33.4375 26.2492 32.0312Z" fill="#C5D1ED"/>
<path d="M33.75 33.2992C34.9945 33.4594 36.2477 33.5375 37.5 33.6078C37.5 34.2805 37.4992 34.9539 37.5008 35.6273C37.5344 35.9625 37.2133 36.2844 36.8773 36.2508C35.8344 36.2492 34.7922 36.2508 33.75 36.25C33.75 35.2664 33.75 34.2828 33.75 33.2992Z" fill="#C5D1ED"/>
<path d="M6.25 19.9094C6.91406 20.8062 7.63281 21.6602 8.38125 22.4875C7.67109 22.5086 6.96094 22.4969 6.25 22.5C6.25 21.6367 6.25 20.7727 6.25 19.9094Z" fill="#344C80"/>
<path d="M7.62655 27.7887C8.43358 27.3356 9.48983 27.4364 10.2258 27.9864C10.8609 28.445 11.25 29.2153 11.2476 29.9989C11.2531 32.0825 11.2484 34.1661 11.25 36.2505C9.58358 36.2505 7.91639 36.2505 6.24999 36.2505C6.25077 34.1911 6.24842 32.1317 6.25077 30.0731C6.24296 29.1341 6.7953 28.2223 7.62655 27.7887Z" fill="#344C80"/>
<path d="M17.5007 29.0246C18.0968 29.2621 18.6655 29.5645 19.2647 29.7965C20.3218 30.2566 21.4132 30.6262 22.4999 31.0074C22.4999 31.5043 22.4999 32.002 22.4999 32.4996C20.8335 32.498 19.1663 32.502 17.4999 32.4996C17.4999 31.341 17.4991 30.1824 17.5007 29.0246Z" fill="#344C80"/>
<path d="M28.7508 32.5664C30.4039 32.893 32.0758 33.1109 33.75 33.2992C33.75 34.2828 33.75 35.2664 33.75 36.25C32.0836 36.25 30.4164 36.25 28.75 36.25C28.75 35.0219 28.7492 33.7945 28.7508 32.5664Z" fill="#344C80"/>
<path d="M5.41485 22.5266C5.68985 22.4734 5.97188 22.5078 6.25001 22.5C6.96095 22.4969 7.6711 22.5086 8.38126 22.4875L8.42501 22.507C8.8172 22.9352 9.23985 23.3344 9.6461 23.75C8.30313 23.7484 6.95938 23.7523 5.61642 23.7492C5.41329 23.7594 5.21798 23.6523 5.1047 23.4867C4.86798 23.1633 5.02735 22.6453 5.41485 22.5266Z" fill="#162444"/>
<path d="M16.6688 32.5359C16.9406 32.4719 17.2234 32.5062 17.5 32.5C19.1664 32.5023 20.8336 32.4984 22.5 32.5C22.7578 32.5023 23.0188 32.4812 23.275 32.5219C23.6242 32.5922 23.8414 33.0039 23.7117 33.3344C23.6227 33.6078 23.3336 33.7695 23.0531 33.7492C21.018 33.75 18.9828 33.7508 16.9477 33.7492C16.7055 33.7633 16.4531 33.6547 16.3344 33.4359C16.1359 33.1148 16.3086 32.6477 16.6688 32.5359Z" fill="#162444"/>
<path d="M8.42499 22.507C9.36639 22.4922 10.3086 22.5039 11.25 22.5C11.5094 22.5031 11.7711 22.4813 12.0289 22.5211C12.3562 22.5883 12.5687 22.9555 12.4812 23.2758C12.4211 23.5477 12.1594 23.7523 11.8805 23.7461C11.143 23.7578 10.4047 23.7453 9.66639 23.75H9.64608C9.23983 23.3344 8.81718 22.9352 8.42499 22.507Z" fill="#162444"/>
<path d="M16.2867 23.332C16.1586 23.0023 16.3734 22.5992 16.7179 22.5219C16.9765 22.4797 17.2398 22.5055 17.5008 22.5008C19.1672 22.4984 20.8328 22.5008 22.4992 22.5C22.839 22.5258 23.2375 22.4109 23.525 22.6461C23.7851 22.8539 23.8219 23.2727 23.6047 23.5234C23.4719 23.6898 23.2547 23.7594 23.0476 23.75C21.0172 23.75 18.9867 23.75 16.9562 23.75C16.6718 23.775 16.3773 23.6086 16.2867 23.332Z" fill="#162444"/>
<path d="M27.5352 23.3278C27.4118 23.0005 27.6235 22.6028 27.9633 22.5231C28.2235 22.4794 28.4883 22.5059 28.7508 22.5005C30.4172 22.5005 32.0829 22.5013 33.7493 22.5005C34.1305 22.5216 34.629 22.3919 34.8836 22.7645C35.1821 23.1458 34.8649 23.7692 34.3805 23.7474C32.3227 23.7552 30.2657 23.7481 28.2079 23.7505C27.9211 23.7755 27.6243 23.6083 27.5352 23.3278Z" fill="#162444"/>
<path d="M13.7532 26.9395C14.9782 27.666 16.2087 28.3871 17.5009 28.991V29.0246C17.4993 30.1824 17.5001 31.341 17.5001 32.4996C17.2235 32.5059 16.9407 32.4715 16.6688 32.5355C16.3087 32.6473 16.136 33.1145 16.3344 33.4355C16.4532 33.6543 16.7055 33.7629 16.9477 33.7488C18.9829 33.7504 21.018 33.7496 23.0532 33.7488C23.3337 33.7691 23.6227 33.6074 23.7118 33.334C23.8415 33.0035 23.6243 32.5918 23.2751 32.5215C23.0188 32.4809 22.7579 32.502 22.5001 32.4996C22.5001 32.002 22.5001 31.5043 22.5001 31.0074C23.729 31.4184 24.9829 31.7559 26.2493 32.0309C26.2509 33.4371 26.2524 34.8434 26.2469 36.2496C22.0821 36.2496 17.9173 36.2496 13.7524 36.2496C13.7477 33.1457 13.7485 30.0426 13.7532 26.9395Z" fill="#A0B5E0"/>
</svg>
