
<svg width="40" height="40" viewBox="0 0 40 40" fill="none" xmlns="http://www.w3.org/2000/svg">
<g clip-path="url(#clip0_1_5037)">
<path d="M12.7031 0H20C19.9945 1.25937 20.0109 2.51875 19.9914 3.77734C19.9898 3.80703 19.9867 3.86641 19.9852 3.89531C19.6664 4.42656 19.4109 4.99062 19.1312 5.54297C17.0836 9.63984 15.0617 13.7492 13.0062 17.8414C12.843 18.1641 12.6891 18.4922 12.5523 18.8273C10.7383 18.8289 8.92343 18.8281 7.10937 18.8281C7.10937 14.5039 7.10937 10.1797 7.10937 5.85547C7.10234 4.30234 7.75078 2.76016 8.8664 1.67969C9.88046 0.670312 11.2766 0.071875 12.7031 0Z" fill="#99BBFF"/>
<path d="M20 0H27.6016C28.7938 0.142969 29.9523 0.613281 30.8602 1.40703C32.0586 2.43281 32.825 3.9625 32.8906 5.54219C32.8914 9.97109 32.8906 14.3992 32.8906 18.8281C31.0953 18.8281 29.2992 18.8281 27.5039 18.8281C25.5688 14.9734 23.6672 11.1016 21.7352 7.24453C21.1578 6.08672 20.6031 4.91797 19.9914 3.77734C20.0109 2.51875 19.9945 1.25938 20 0Z" fill="#8095FF"/>
<path d="M19.9852 3.89531C19.9867 3.86641 19.9898 3.80703 19.9914 3.77734C20.6031 4.91797 21.1578 6.08672 21.7352 7.24453C23.6672 11.1016 25.5687 14.9734 27.5039 18.8281C25.0031 18.8281 22.5023 18.8281 20.0008 18.8281C19.9984 14.8695 20.0008 10.9117 20 6.95312C19.9969 5.93359 20.0109 4.91484 19.9852 3.89531Z" fill="#C7CFE1"/>
<path d="M19.9852 3.89532C20.0109 4.91486 19.9969 5.93361 20 6.95314C20.0008 10.9117 19.9984 14.8695 20.0008 18.8281C17.518 18.8274 15.0352 18.8289 12.5523 18.8274C12.6891 18.4922 12.843 18.1641 13.0063 17.8414C15.0617 13.7492 17.0836 9.63985 19.1313 5.54298C19.4109 4.99064 19.6664 4.42657 19.9852 3.89532Z" fill="#F0F7FF"/>
<path d="M-7.62939e-06 18.8281C2.36952 18.8281 4.73984 18.8281 7.10937 18.8281C8.92343 18.8281 10.7383 18.8289 12.5523 18.8273C15.0351 18.8289 17.518 18.8273 20.0008 18.8281C19.9992 19.6094 19.9992 20.3906 20.0016 21.1719C19.3992 21.1758 18.7969 21.1625 18.1945 21.1773C18.1969 21.2101 18.2 21.2758 18.2023 21.3086C17.8734 21.1047 17.4758 21.1695 17.1094 21.168C15.5539 21.182 13.9976 21.1578 12.443 21.182C11.2351 21.1641 10.0273 21.1687 8.81952 21.1773C8.82187 21.2101 8.82499 21.275 8.82655 21.3078C8.49765 21.1047 8.10077 21.1687 7.73437 21.168C6.15312 21.1828 4.57109 21.1578 2.98984 21.182C1.99296 21.1601 0.996867 21.1773 -7.62939e-06 21.1719V18.8281Z" fill="#4D5980"/>
<path d="M21.8078 21.1718C23.7242 21.1765 25.6414 21.1601 27.5578 21.182C28.0484 23.9086 28.225 26.6851 28.2031 29.4531C28.218 32.1968 28.0898 34.9554 27.5789 37.6562C28.7844 37.6531 29.9898 37.6632 31.1953 37.6507C30.9672 36.2859 30.7789 34.9125 30.6875 33.5304C30.5156 31.5507 30.5367 29.5609 30.5563 27.5757C30.6406 25.432 30.7953 23.2851 31.1828 21.1718C33.1258 21.1765 35.0688 21.1601 37.0109 21.182C37.5273 24.0375 37.6883 26.9461 37.6563 29.8437C37.6734 31.2515 37.6063 32.6586 37.4992 34.0617C37.3555 36.0703 37.0336 38.0703 36.45 40H20C20 39.2187 19.9984 38.4375 20.0016 37.6562C20.6078 37.6539 21.2141 37.6625 21.8203 37.6507C21.4211 35.3562 21.2211 33.0304 21.1734 30.7031C21.1852 29.3507 21.132 27.9961 21.2281 26.6453C21.307 24.8117 21.4813 22.9796 21.8078 21.1718Z" fill="#4D5980"/>
<path d="M20.0008 18.8281C22.5023 18.8281 25.0031 18.8281 27.5039 18.8281C29.2992 18.8281 31.0953 18.8281 32.8906 18.8281C35.2602 18.8281 37.6305 18.8281 40 18.8281V21.1719C39.0039 21.1773 38.007 21.1602 37.0109 21.182C35.0688 21.1602 33.1258 21.1766 31.1828 21.1719C29.9742 21.1773 28.7656 21.1594 27.5578 21.182C25.6414 21.1602 23.7242 21.1766 21.8078 21.1719C21.2055 21.1719 20.6039 21.1719 20.0016 21.1719C19.9992 20.3906 19.9992 19.6094 20.0008 18.8281Z" fill="#3D4866"/>
<path d="M2.98984 21.182C4.57109 21.1578 6.15312 21.1828 7.73437 21.168C8.10078 21.1688 8.49765 21.1047 8.82656 21.3078C9.34218 24.357 9.49375 27.4578 9.4414 30.5477C9.40156 32.9258 9.25937 35.3109 8.82109 37.6531C10.0352 37.6586 11.2492 37.6586 12.4633 37.6531C11.9359 34.6914 11.7727 31.6758 11.8016 28.6711C11.8398 26.1641 12.0039 23.6531 12.443 21.182C13.9977 21.1578 15.5539 21.182 17.1094 21.168C17.4758 21.1695 17.8734 21.1047 18.2023 21.3086C18.6031 23.6891 18.7859 26.1024 18.8187 28.5149C18.8469 31.5688 18.7531 34.6422 18.1961 37.6531C18.7977 37.6609 19.4 37.6547 20.0016 37.6563C19.9984 38.4375 20 39.2188 20 40H3.55859C2.825 37.4609 2.53828 34.8172 2.40937 32.1852C2.25468 28.5117 2.36093 24.8102 2.98984 21.182Z" fill="#5C6A99"/>
</g>
<defs>
<clipPath id="clip0_1_5037">
<rect width="40" height="40" fill="white"/>
</clipPath>
</defs>
</svg>
