
<svg width="48" height="48" viewBox="0 0 48 48" fill="none" xmlns="http://www.w3.org/2000/svg">
<g clip-path="url(#clip0_1_5144)">
<path d="M20.806 2.43135C21.3694 1.25478 22.7925 0.590095 24.0572 0.915408C23.7 1.11322 23.2904 1.23416 22.9885 1.52103C22.6782 1.81166 22.3969 2.14447 22.216 2.5326C22.0379 2.90572 22.0125 3.32478 21.9244 3.72416C21.4491 3.73728 20.9738 3.73353 20.4994 3.71947C20.5154 3.2751 20.5979 2.82791 20.806 2.43135Z" fill="#183549"/>
<path d="M26.5594 2.46939C27.1031 1.29282 28.5028 0.5972 29.7684 0.9047C29.5462 1.06126 29.3034 1.18407 29.069 1.31814C28.259 1.83845 27.7697 2.76657 27.7219 3.72095C27.2409 3.73314 26.759 3.73689 26.2781 3.71814C26.2772 3.6722 26.2753 3.57939 26.2744 3.53251C26.3231 3.16876 26.3944 2.80126 26.5594 2.46939Z" fill="#183549"/>
<path d="M9.03655 4.17563C10.4794 3.55032 12.0844 3.69844 13.6144 3.70688C12.2812 3.81844 10.9687 4.29469 9.94218 5.16657C8.48249 6.35438 7.62562 8.24719 7.6753 10.1278C7.67343 11.7516 7.66874 13.3753 7.6753 14.9981C7.67905 15.5419 7.64437 16.0875 7.71843 16.6284C7.46249 17.1047 7.05374 17.5003 6.55499 17.715C6.11718 17.9119 5.63249 17.9569 5.15905 17.985C5.1478 17.5566 5.15249 17.1281 5.1478 16.6997C5.13749 14.415 5.15436 12.1313 5.15249 9.84657C5.15624 7.40251 6.77811 5.08407 9.03655 4.17563Z" fill="#183549"/>
<path d="M24.0572 0.914609C25.26 1.19492 26.2088 2.29367 26.2744 3.53211C26.2753 3.57898 26.2772 3.6718 26.2781 3.71773C26.7591 3.73648 27.2409 3.73273 27.7219 3.72055C27.7697 2.76617 28.2591 1.83805 29.0691 1.31773C29.3034 1.18367 29.5463 1.06086 29.7684 0.904297C31.0106 1.21555 31.9791 2.37242 32.0119 3.66148C32.0381 5.85523 31.29 8.04711 29.9372 9.77398C28.6894 11.3912 26.9222 12.593 24.9666 13.1809C23.9541 13.4809 22.8975 13.6037 21.8428 13.5971C17.7713 13.5952 13.7006 13.598 9.62906 13.5952C9.16031 13.5952 8.6925 13.5952 8.22375 13.5952C8.29781 14.6227 8.21719 15.7065 7.71844 16.628C7.64438 16.0871 7.67906 15.5415 7.67531 14.9977C7.66875 13.3749 7.67344 11.7512 7.67531 10.1274C7.62563 8.2468 8.4825 6.35398 9.94219 5.16617C10.9688 4.2943 12.2813 3.81805 13.6144 3.70648C15.9094 3.72711 18.2044 3.70367 20.4994 3.71867C20.9738 3.73273 21.4491 3.73648 21.9244 3.72336C22.0125 3.32398 22.0378 2.90492 22.2159 2.5318C22.3969 2.14367 22.6781 1.81086 22.9884 1.52023C23.2903 1.23336 23.7 1.11242 24.0572 0.914609Z" fill="#24465E"/>
<path d="M10.3471 18.9856C10.7999 18.7428 11.4009 19.1037 11.3999 19.6165C11.413 20.3825 11.4168 21.1494 11.398 21.9153C11.3877 22.3887 10.8618 22.7365 10.4212 22.5603C10.1296 22.4572 9.9393 22.1553 9.94305 21.8506C9.93273 21.1269 9.93367 20.4031 9.94211 19.6794C9.93742 19.3962 10.0902 19.114 10.3471 18.9856Z" fill="#24465E"/>
<path d="M19.1503 18.9727C19.44 18.8471 19.8094 18.923 20.0063 19.1762C20.2191 19.4171 20.1722 19.763 20.1816 20.0612C20.1675 20.6855 20.1994 21.3118 20.1675 21.9362C20.1525 22.3552 19.7119 22.6862 19.3041 22.5887C18.9553 22.5315 18.7003 22.1893 18.7163 21.8396C18.7078 21.1233 18.7097 20.4062 18.7153 19.6899C18.7031 19.3899 18.8728 19.0946 19.1503 18.9727Z" fill="#24465E"/>
<path d="M36.2437 23.019C37.0069 23.0171 37.77 23.0171 38.5331 23.019C38.535 23.9996 38.5341 24.9793 38.5341 25.9599C37.77 25.959 37.0069 25.959 36.2437 25.9599C36.2428 24.9793 36.2428 23.9996 36.2437 23.019Z" fill="#24465E"/>
<path d="M36.2438 36.7412C37.0069 36.7412 37.77 36.7412 38.5341 36.7412C38.535 38.3359 38.5331 39.9306 38.535 41.5252C38.5369 43.4124 38.5275 45.2987 38.5397 47.1859C37.7747 47.2281 37.0078 47.2037 36.2428 47.199C36.2381 46.1677 36.2531 45.1374 36.2344 44.1071C36.7884 44.0659 37.4316 44.2018 37.8844 43.794C38.5031 43.3159 38.4938 42.2799 37.8722 41.8093C37.4194 41.4212 36.7894 41.5384 36.2428 41.5131C36.2447 39.9221 36.2419 38.3312 36.2438 36.7412Z" fill="#24465E"/>
<path d="M21.8428 13.5979C22.8975 13.6045 23.954 13.4816 24.9665 13.1816C24.9665 14.3563 24.9665 15.5301 24.9665 16.7048C24.9656 18.9538 24.9684 21.2038 24.9647 23.4529C24.9665 25.551 24.3056 27.652 23.0531 29.3404C21.7031 31.2023 19.6809 32.5673 17.4459 33.111C16.6472 33.3107 15.8222 33.4035 14.9981 33.4035C14.129 33.4035 13.3209 32.9713 12.6797 32.4116C11.7431 31.5707 11.1131 30.4485 10.6453 29.2945C10.1334 27.981 9.82496 26.5916 9.6984 25.1891C9.58028 24.0482 9.62715 22.8988 9.61778 21.7541C9.62528 19.0354 9.60184 16.3157 9.62903 13.596C13.7006 13.5988 17.7712 13.596 21.8428 13.5979ZM10.3472 18.9866C10.0903 19.1151 9.93746 19.3973 9.94215 19.6804C9.93371 20.4041 9.93278 21.1279 9.94309 21.8516C9.93934 22.1563 10.1297 22.4582 10.4212 22.5613C10.8618 22.7376 11.3878 22.3898 11.3981 21.9163C11.4168 21.1504 11.4131 20.3835 11.4 19.6176C11.4009 19.1048 10.8 18.7438 10.3472 18.9866ZM19.1503 18.9735C18.8728 19.0954 18.7031 19.3907 18.7153 19.6907C18.7097 20.407 18.7078 21.1241 18.7162 21.8404C18.7003 22.1901 18.9553 22.5323 19.304 22.5895C19.7118 22.687 20.1525 22.356 20.1675 21.937C20.1993 21.3126 20.1675 20.6863 20.1815 20.062C20.1722 19.7638 20.219 19.4179 20.0062 19.177C19.8093 18.9238 19.44 18.8479 19.1503 18.9735ZM12.4959 26.2823C12.0075 26.4032 11.8143 27.0623 12.1434 27.4373C12.8193 28.1357 13.755 28.5876 14.7272 28.657C15.7397 28.7479 16.7822 28.4338 17.5743 27.7963C17.7815 27.6238 18.0272 27.456 18.104 27.1823C18.2765 26.722 17.8247 26.1773 17.34 26.2541C17.0343 26.2898 16.8215 26.5345 16.5834 26.7023C15.675 27.4063 14.2828 27.366 13.4156 26.6113C13.1653 26.392 12.8484 26.166 12.4959 26.2823Z" fill="#E5BAA8"/>
<path d="M34.859 41.7023C35.2697 41.4398 35.7806 41.5223 36.2428 41.5138C36.7893 41.5391 37.4193 41.422 37.8722 41.8101C38.4937 42.2807 38.5031 43.3166 37.8843 43.7948C37.4315 44.2026 36.7884 44.0666 36.2343 44.1079C36.2531 45.1382 36.2381 46.1685 36.2428 47.1998C37.0078 47.2045 37.7747 47.2288 38.5397 47.1866C38.5275 45.2995 38.5368 43.4132 38.535 41.526C39.2784 41.6001 39.975 42.0548 40.3078 42.7298C40.6565 43.402 40.5262 44.181 40.5487 44.9076C40.5609 45.5385 40.3209 46.177 39.8503 46.6063C39.4265 47.017 38.834 47.2035 38.2547 47.2279C36.9122 47.2504 35.5706 47.1866 34.2281 47.2073C34.2281 45.7832 34.2272 44.3582 34.2178 42.9341C34.1822 42.4457 34.4372 41.9516 34.859 41.7023Z" fill="#E5BAA8"/>
<path d="M8.22375 13.5956C8.6925 13.5956 9.16031 13.5956 9.62906 13.5956C9.60188 16.3153 9.62531 19.035 9.61781 21.7537C9.62719 22.8984 9.58031 24.0478 9.69844 25.1887C9.825 26.5912 10.1334 27.9806 10.6453 29.294C11.1131 30.4481 11.7431 31.5703 12.6797 32.4112C13.3209 32.9709 14.1291 33.4031 14.9981 33.4031C15.8222 33.4031 16.6472 33.3103 17.4459 33.1106C17.4366 33.9862 17.4656 34.8628 17.4309 35.7375C17.3737 36.3478 17.0859 36.9375 16.6153 37.335C15.9619 37.9031 14.9897 38.0775 14.1853 37.7456C13.3556 37.4278 12.7547 36.6131 12.6881 35.7281C12.6516 34.8581 12.6891 33.9872 12.6684 33.1172C10.2188 32.5462 8.04375 30.9487 6.69562 28.8337C5.68125 27.2409 5.11406 25.349 5.15438 23.4572C3.9525 23.9522 2.49844 23.8106 1.46438 23.0025C0.583125 22.3509 0.06375 21.2878 0 20.2022V20.0015C0.0440625 18.7294 0.756562 17.4947 1.88063 16.8797C2.865 16.3069 4.10156 16.2787 5.14781 16.6997C5.1525 17.1281 5.14781 17.5565 5.15906 17.985C5.6325 17.9569 6.11719 17.9119 6.555 17.715C7.05375 17.5003 7.4625 17.1047 7.71844 16.6284C8.21719 15.7069 8.29781 14.6231 8.22375 13.5956Z" fill="#CE8D77"/>
<path d="M24.9666 16.7044C25.7447 16.395 26.6222 16.3097 27.4331 16.545C28.3584 16.7981 29.1666 17.4394 29.6344 18.2766C30.15 19.1747 30.2494 20.2987 29.9063 21.2756C29.5406 22.365 28.6275 23.2491 27.5278 23.5819C26.6925 23.8556 25.7747 23.7741 24.9647 23.4525C24.9684 21.2034 24.9656 18.9534 24.9666 16.7044Z" fill="#CE8D77"/>
<path d="M12.4959 26.2814C12.8484 26.1652 13.1653 26.3911 13.4156 26.6105C14.2828 27.3652 15.675 27.4055 16.5834 26.7014C16.8216 26.5336 17.0344 26.2889 17.34 26.2533C17.8247 26.1764 18.2766 26.7211 18.1041 27.1814C18.0272 27.4552 17.7816 27.623 17.5744 27.7955C16.7822 28.433 15.7397 28.7471 14.7272 28.6561C13.755 28.5867 12.8194 28.1349 12.1434 27.4364C11.8144 27.0614 12.0075 26.4024 12.4959 26.2814Z" fill="#CE8D77"/>
<path d="M26.7778 25.9607C29.9334 25.9597 33.0881 25.9607 36.2437 25.9607C37.0068 25.9597 37.7699 25.9597 38.534 25.9607C41.6896 25.9607 44.8443 25.9607 47.9999 25.9607V36.7419C44.8443 36.7419 41.6896 36.7419 38.534 36.7419C37.7699 36.7419 37.0068 36.7419 36.2437 36.7419C33.0881 36.741 29.9324 36.7419 26.7778 36.7419C26.7778 33.1475 26.7768 29.5541 26.7778 25.9607ZM30.4209 28.2791C30.0918 28.3382 29.7656 28.4497 29.4974 28.6532C28.6884 29.241 28.6978 30.6416 29.5284 31.2069C30.0524 31.6316 30.7462 31.7666 31.274 32.1819C31.5712 32.3966 31.6499 32.8335 31.4409 33.1344C31.1671 33.4804 30.6618 33.501 30.2671 33.3997C29.8771 33.3013 29.6334 32.9188 29.2481 32.8232C28.8684 32.8625 28.6265 33.3716 28.829 33.6941C29.0737 34.1094 29.5649 34.266 29.999 34.3991C30.6543 34.5425 31.3959 34.5079 31.9706 34.1291C32.9334 33.4869 32.9343 31.8744 32.0174 31.19C31.4915 30.755 30.7809 30.6435 30.2437 30.23C29.9512 30.0191 29.9756 29.5241 30.299 29.3563C30.8099 29.0816 31.4278 29.2325 31.9209 29.4744C32.444 29.6985 32.7928 28.7835 32.3137 28.5388C31.7493 28.2163 31.0509 28.1966 30.4209 28.2791ZM34.5553 28.7235C34.0415 30.396 33.5259 32.0675 33.014 33.741C32.7993 34.2604 33.6609 34.5988 33.9937 34.2744C34.1934 33.905 34.2318 33.4719 34.3818 33.0819C35.0062 33.0922 35.6306 33.0641 36.2549 33.0979C36.3937 33.5029 36.4181 33.9641 36.6656 34.3213C37.0228 34.5491 37.7878 34.2529 37.6049 33.7541C37.0968 32.0938 36.584 30.4335 36.0796 28.7722C35.9606 28.056 34.7193 28.0241 34.5553 28.7235ZM38.3793 28.3485C38.1609 28.43 38.1693 28.6822 38.1712 28.8744C38.1806 30.5929 38.1618 32.3122 38.1806 34.0307C38.1759 34.3035 38.4862 34.416 38.7159 34.4038C39.4978 34.4132 40.2806 34.401 41.0634 34.4085C41.2331 34.3991 41.4637 34.4338 41.5631 34.2557C41.7168 34.0063 41.7065 33.5563 41.3999 33.4288C40.7024 33.366 39.9984 33.4429 39.299 33.3913C39.3074 31.8229 39.3065 30.2544 39.3009 28.686C39.3018 28.2369 38.6868 28.206 38.3793 28.3485ZM42.2071 28.6804C42.1959 30.4344 42.2024 32.1894 42.2034 33.9444C42.1565 34.2088 42.4049 34.4019 42.6487 34.3982C43.5253 34.4216 44.4037 34.3972 45.2803 34.4094C45.4565 34.401 45.6421 34.4263 45.8118 34.3663C46.1268 34.161 46.1118 33.5263 45.7199 33.4213C44.924 33.3754 44.1243 33.4391 43.3284 33.3913C43.3378 32.856 43.3312 32.3216 43.3312 31.7872C43.7643 31.7732 44.1984 31.806 44.6306 31.7704C45.0281 31.7029 45.0393 31.0382 44.6793 30.9088C44.2312 30.8479 43.7774 30.9154 43.3274 30.8704C43.3378 30.3379 43.3312 29.8054 43.3321 29.2729C44.1056 29.2616 44.8799 29.2841 45.6534 29.2635C46.0481 29.2466 46.1203 28.6916 45.929 28.4244C45.8409 28.2547 45.6299 28.28 45.4706 28.2697C44.5631 28.2744 43.6556 28.266 42.749 28.2735C42.5053 28.2566 42.1809 28.3888 42.2071 28.6804Z" fill="#F4D06B"/>
<path d="M35.2892 29.7812C35.5677 30.5603 35.7449 31.3712 35.9914 32.1616C35.5367 32.2066 35.0802 32.1719 34.6255 32.1831C34.8214 31.3759 35.0746 30.5838 35.2892 29.7812Z" fill="#F4D06B"/>
<path d="M30.4208 28.2783C31.0508 28.1958 31.7493 28.2155 32.3136 28.538C32.7927 28.7827 32.444 29.6977 31.9208 29.4737C31.4277 29.2318 30.8099 29.0808 30.299 29.3555C29.9755 29.5233 29.9511 30.0183 30.2436 30.2293C30.7808 30.6427 31.4915 30.7543 32.0174 31.1893C32.9343 31.8737 32.9333 33.4862 31.9705 34.1283C31.3958 34.5071 30.6543 34.5418 29.999 34.3983C29.5649 34.2652 29.0736 34.1087 28.829 33.6933C28.6265 33.3708 28.8683 32.8618 29.248 32.8224C29.6333 32.918 29.8771 33.3005 30.2671 33.399C30.6618 33.5002 31.1671 33.4796 31.4408 33.1337C31.6499 32.8327 31.5711 32.3958 31.274 32.1812C30.7461 31.7658 30.0524 31.6308 29.5283 31.2062C28.6977 30.6408 28.6883 29.2402 29.4974 28.6524C29.7655 28.449 30.0918 28.3374 30.4208 28.2783Z" fill="white"/>
<path d="M34.5552 28.7227C34.7193 28.0234 35.9605 28.0552 36.0796 28.7715C36.584 30.4327 37.0968 32.093 37.6049 33.7534C37.7877 34.2521 37.0227 34.5484 36.6655 34.3205C36.418 33.9634 36.3937 33.5021 36.2549 33.0971C35.6305 33.0634 35.0062 33.0915 34.3818 33.0812C34.2318 33.4712 34.1933 33.9043 33.9937 34.2737C33.6608 34.598 32.7993 34.2596 33.014 33.7402C33.5258 32.0668 34.0415 30.3952 34.5552 28.7227ZM35.2893 29.7802C35.0746 30.5827 34.8215 31.3749 34.6255 32.1821C35.0802 32.1709 35.5368 32.2055 35.9915 32.1605C35.7449 31.3702 35.5677 30.5593 35.2893 29.7802Z" fill="white"/>
<path d="M38.3793 28.3481C38.6868 28.2056 39.3018 28.2365 39.3009 28.6856C39.3065 30.254 39.3075 31.8225 39.299 33.3909C39.9984 33.4425 40.7025 33.3656 41.4 33.4284C41.7065 33.5559 41.7168 34.0059 41.5631 34.2553C41.4637 34.4334 41.2331 34.3987 41.0634 34.4081C40.2806 34.4006 39.4978 34.4128 38.7159 34.4034C38.4862 34.4156 38.1759 34.3031 38.1806 34.0303C38.1618 32.3118 38.1806 30.5925 38.1712 28.874C38.1693 28.6818 38.1609 28.4296 38.3793 28.3481Z" fill="white"/>
<path d="M42.207 28.6792C42.1807 28.3876 42.5051 28.2554 42.7489 28.2723C43.6554 28.2648 44.5629 28.2732 45.4704 28.2686C45.6298 28.2789 45.8407 28.2536 45.9289 28.4232C46.1201 28.6904 46.0479 29.2454 45.6532 29.2623C44.8798 29.2829 44.1054 29.2604 43.332 29.2717C43.3311 29.8042 43.3376 30.3367 43.3273 30.8692C43.7773 30.9142 44.2311 30.8467 44.6792 30.9076C45.0392 31.037 45.0279 31.7017 44.6304 31.7692C44.1982 31.8048 43.7642 31.772 43.3311 31.7861C43.3311 32.3204 43.3376 32.8548 43.3282 33.3901C44.1242 33.4379 44.9239 33.3742 45.7198 33.4201C46.1117 33.5251 46.1267 34.1598 45.8117 34.3651C45.642 34.4251 45.4564 34.3998 45.2801 34.4082C44.4036 34.3961 43.5251 34.4204 42.6486 34.397C42.4048 34.4007 42.1564 34.2076 42.2032 33.9432C42.2023 32.1882 42.1957 30.4332 42.207 28.6792Z" fill="white"/>
<path d="M10.0388 35.9316C10.8938 35.6503 11.8041 35.7422 12.6881 35.7281C12.7547 36.6131 13.3556 37.4278 14.1853 37.7456C14.9897 38.0775 15.9619 37.9031 16.6153 37.335C17.0859 36.9375 17.3737 36.3478 17.4309 35.7375C18.6253 35.7178 19.875 35.7169 20.9766 36.2456C20.8022 36.5063 20.5931 36.7406 20.3709 36.9619C19.3144 38.1263 18.2559 39.2888 17.1909 40.4447C17.0016 40.6763 16.8075 40.9116 16.5413 41.0578C16.6622 40.8975 16.7822 40.7372 16.9078 40.5806C16.2919 39.6956 15.6975 38.7938 15.0441 37.9359C14.4966 38.7263 13.95 39.5175 13.3941 40.3022C13.3125 40.4166 13.2628 40.5497 13.2131 40.6819C12.7125 40.3116 12.36 39.7875 11.925 39.3497C11.5341 38.9597 11.2134 38.5013 10.7888 38.145C10.5394 38.6719 10.455 39.2588 10.4419 39.8381C10.4306 42.2981 10.4588 44.7591 10.4297 47.2191C9.39094 47.2463 8.35219 47.2238 7.31344 47.2313C7.31156 44.6756 7.31344 42.12 7.3125 39.5644C7.32188 37.9359 8.48813 36.4088 10.0388 35.9316Z" fill="#CCCCCC"/>
<path d="M22.2112 47.2186C22.2412 46.5698 22.1821 45.9192 22.2534 45.2723C22.5721 45.9164 22.9181 46.5502 23.1834 47.2186C22.8599 47.2383 22.5346 47.2383 22.2112 47.2186Z" fill="#CCCCCC"/>
<path d="M20.9766 36.2461C22.0172 36.7027 22.9388 37.4377 23.58 38.3798C24.1763 39.2217 24.45 40.2277 24.8231 41.1764C25.5731 43.1864 26.3231 45.1955 27.0722 47.2064C25.7766 47.2148 24.4791 47.1905 23.1834 47.2186C22.9181 46.5502 22.5722 45.9164 22.2534 45.2723C22.1822 45.9192 22.2413 46.5698 22.2113 47.2186C20.5894 47.1905 18.9675 47.2148 17.3456 47.2055C15.0403 47.2852 12.7341 47.1698 10.4297 47.2195C10.4588 44.7595 10.4306 42.2986 10.4419 39.8386C10.455 39.2592 10.5394 38.6723 10.7888 38.1455C11.2134 38.5017 11.5341 38.9602 11.925 39.3502C12.36 39.788 12.7125 40.312 13.2131 40.6823C13.8966 41.3217 14.4216 42.112 15.0703 42.788C15.555 42.2058 16.0416 41.6273 16.5413 41.0583C16.8075 40.912 17.0016 40.6767 17.1909 40.4452C18.2559 39.2892 19.3144 38.1267 20.3709 36.9623C20.5931 36.7411 20.8022 36.5067 20.9766 36.2461ZM15.0459 42.818C14.4853 44.1605 13.9172 45.4992 13.3594 46.8427C13.3106 46.9495 13.2497 47.0489 13.1766 47.1427C14.4113 47.2833 15.6591 47.1652 16.8994 47.2139C16.7737 46.8286 16.5984 46.463 16.4456 46.0889C15.9731 45.0014 15.5541 43.8886 15.0459 42.818Z" fill="#E6E6E6"/>
<path d="M15.044 37.9355C15.6974 38.7934 16.2918 39.6952 16.9078 40.5802C16.7821 40.7368 16.6621 40.8971 16.5412 41.0574C16.0415 41.6265 15.5549 42.2049 15.0703 42.7871C14.4215 42.1112 13.8965 41.3209 13.2131 40.6815C13.2628 40.5493 13.3124 40.4162 13.394 40.3018C13.9499 39.5171 14.4965 38.7259 15.044 37.9355Z" fill="#344C80"/>
<path d="M15.0459 42.8174C15.554 43.888 15.9731 45.0008 16.4456 46.0883C16.5984 46.4624 16.7737 46.828 16.8993 47.2133C15.659 47.1646 14.4112 47.2827 13.1765 47.1421C13.2496 47.0483 13.3106 46.9489 13.3593 46.8421C13.9171 45.4986 14.4853 44.1599 15.0459 42.8174Z" fill="#344C80"/>
</g>
<defs>
<clipPath id="clip0_1_5144">
<rect width="48" height="48" fill="white"/>
</clipPath>
</defs>
</svg>
