
<svg width="40" height="40" viewBox="0 0 40 40" fill="none" xmlns="http://www.w3.org/2000/svg">
<g clip-path="url(#clip0_1_5453)">
<path d="M25.8234 -1.14441e-05H31.7898C31.9141 0.107801 32.0938 0.20077 32.1031 0.386707C32.1539 0.774988 32.1195 1.16718 32.1266 1.55702C32.118 1.94843 32.1547 2.34218 32.1078 2.7328C32.0961 2.91952 31.9172 3.01796 31.7969 3.13514C30.2047 3.12421 28.6125 3.13358 27.0203 3.13046C26.6336 3.12343 26.2469 3.14452 25.8609 3.12264C25.593 3.10546 25.3984 2.83827 25.4203 2.57889C25.4219 1.87811 25.4133 1.17733 25.425 0.477332C25.4227 0.242957 25.6141 0.0679573 25.8234 -1.14441e-05Z" fill="#025F80"/>
<path d="M31.7898 -1.14441e-05H33.9672C34.1508 0.0913948 34.325 0.25077 34.318 0.474207C34.3359 1.17577 34.3242 1.87889 34.3234 2.58046C34.3391 2.81014 34.2039 3.03671 33.9852 3.11483C33.5672 3.16014 33.1453 3.12421 32.7258 3.13514C32.4164 3.13436 32.1063 3.13593 31.7969 3.13514C31.9172 3.01796 32.0961 2.91952 32.1078 2.7328C32.1547 2.34218 32.118 1.94843 32.1266 1.55702C32.1195 1.16718 32.1539 0.774989 32.1031 0.386707C32.0938 0.20077 31.9141 0.107801 31.7898 -1.14441e-05Z" fill="#024C67"/>
<path d="M27.0203 3.13047C28.6125 3.13359 30.2047 3.12422 31.7969 3.13516C32.1062 3.13594 32.4164 3.13437 32.7258 3.13516C32.7273 5.78594 32.7219 8.43594 32.7281 11.0867C32.0656 10.668 31.4031 10.2484 30.7414 9.82734C30.8023 9.31328 30.7711 8.79531 30.7758 8.27891C30.7742 7.34141 30.7781 6.40469 30.7758 5.46719C30.7609 5.17656 30.7633 4.83672 30.5414 4.61719C30.357 4.43516 30.0805 4.44375 29.8398 4.4375C28.9008 4.44453 27.9617 4.43125 27.0227 4.44375C27.0172 4.00547 27.0211 3.56797 27.0203 3.13047Z" fill="#344C80"/>
<path d="M18.0281 8.49297C18.757 8.0336 19.7438 8.04688 20.4648 8.51485C22.9922 10.1188 25.5188 11.7242 28.0453 13.3289C27.6266 13.6203 27.2109 13.9188 26.7945 14.2141C26.6469 14.3086 26.5539 14.4609 26.5008 14.625C26.0297 14.3641 25.582 14.0633 25.1273 13.7766C23.6 12.8055 22.0727 11.8352 20.5445 10.8664C19.7859 10.3383 18.718 10.318 17.9523 10.843C16.557 11.7367 15.1453 12.6063 13.7617 13.5172C13.6383 12.8219 13.5211 12.1242 13.4125 11.4258C14.9492 10.4453 16.4898 9.47031 18.0281 8.49297Z" fill="#344C80"/>
<path d="M27.7023 15.0578C28.1812 14.7094 28.657 14.3555 29.1562 14.0359C30.6727 14.9906 32.1805 15.9586 33.6969 16.9141C33.7094 23.3648 33.6984 29.8156 33.7023 36.2664C32.9172 36.2633 32.132 36.2648 31.3469 36.2812C31.3719 33.8492 31.3492 31.4164 31.357 28.9844C31.3492 25.2344 31.3711 21.4836 31.3453 17.7344C30.9781 17.4672 30.5805 17.2469 30.2023 16.9969C29.3656 16.4836 28.5562 15.9242 27.7039 15.4359C27.7039 15.3094 27.7023 15.1836 27.7023 15.0578Z" fill="#344C80"/>
<path d="M18.2297 3.31015C19.193 3.03281 20.2766 3.17109 21.1219 3.71797C23.0898 4.9664 25.0586 6.21328 27.0242 7.4664C28.2617 8.25547 29.5031 9.03906 30.7414 9.82734C31.4031 10.2484 32.0656 10.668 32.7281 11.0867C33.8617 11.8086 35 12.5227 36.1297 13.25C36.8414 13.7156 37.2297 14.6172 37.0766 15.4539C36.9203 16.4422 36.0133 17.2578 35.0078 17.2742C35.3102 16.5977 35.3234 15.7805 34.9344 15.1359C34.6 14.5555 33.9758 14.257 33.4352 13.9062C28.7203 10.9125 24.007 7.91718 19.2914 4.925C18.5687 4.45937 17.6727 4.25859 16.8234 4.41093C16.5922 4.4539 16.3578 4.47968 16.1227 4.49218C16.8141 4.08203 17.4477 3.5414 18.2297 3.31015Z" fill="#AE762F"/>
<path d="M26.7946 14.2144C27.211 13.9191 27.6266 13.6207 28.0453 13.3293C28.4188 13.5605 28.7852 13.8019 29.1563 14.0363C28.6571 14.3559 28.1813 14.7098 27.7024 15.0582C27.7024 15.184 27.7039 15.3098 27.7039 15.4363C27.6977 15.7824 27.7156 16.1285 27.6992 16.4738C27.6938 16.709 27.5266 16.9074 27.3203 17.0035C26.8633 17.2371 26.4024 17.4644 25.9422 17.691C25.875 18.1262 25.8672 18.5684 25.7899 19.0019C25.7016 19.3785 25.2789 19.4902 24.9953 19.6855C24.6891 19.8426 24.3852 20.1488 24.0125 20.0387C23.5985 19.9332 23.4344 19.3535 23.743 19.0535C24.0149 18.8262 24.3477 18.6887 24.6406 18.491C24.6735 18.1676 24.7094 17.8441 24.7352 17.5207C24.5328 17.3215 24.3321 17.1207 24.1289 16.9238C23.4547 16.9152 22.7797 16.9316 22.1063 16.9168C21.8469 16.923 21.6641 16.7176 21.4961 16.5504C21.2938 16.3324 21.0555 16.1465 20.8797 15.9051C20.65 15.5551 20.9133 15.034 21.3297 15.0043C21.8 14.9637 22.0453 15.448 22.3633 15.709C23.0367 15.7238 23.7102 15.7035 24.3836 15.7176C24.5422 15.7144 24.693 15.784 24.8055 15.8949C25.0391 16.1121 25.2555 16.348 25.4867 16.5691C25.8219 16.4082 26.1531 16.2371 26.4883 16.0754C26.5102 15.5926 26.4883 15.109 26.5008 14.6254C26.5539 14.4613 26.6469 14.309 26.7946 14.2144Z" fill="#CB9044"/>
<path d="M25.0875 24.6773C25.4977 24.6766 25.9078 24.6766 26.318 24.6773C26.2977 25.2289 26.3172 25.7805 26.3086 26.332C26.3086 26.5672 26.2539 26.8375 26.0352 26.9672C25.6094 27.2359 25.1273 27.4 24.7008 27.6687C24.6727 27.9664 24.6719 28.2664 24.707 28.5648C25.0984 28.8859 25.5594 29.1164 25.9242 29.4695C26.2273 29.7609 26.0531 30.318 25.6578 30.4242C25.2508 30.5578 24.9297 30.1875 24.618 29.9891C24.2773 29.7055 23.8422 29.5234 23.5656 29.1703C23.4102 28.6898 23.5281 28.1719 23.4875 27.6758C23.0727 27.3945 22.5906 27.2383 22.1625 26.982C21.9781 26.8883 21.8672 26.6906 21.8742 26.4852C21.8398 26.1016 22.2586 25.7812 22.6195 25.8984C23.125 26.0711 23.557 26.4117 24.0672 26.5719C24.4227 26.482 24.7789 26.3078 25.0688 26.0836C25.1344 25.618 25.082 25.1453 25.0875 24.6773Z" fill="#CB9044"/>
<path d="M27.6648 24.6773C28.15 24.6773 28.6344 24.6758 29.1195 24.6781C29.1219 28.5453 29.1187 32.4117 29.1211 36.2789C28.6352 36.2805 28.15 36.2781 27.6641 36.2805C27.6805 32.4125 27.6758 28.5445 27.6648 24.6773Z" fill="#AE762F"/>
<path d="M25.3625 32.3148C25.5844 32.2 25.8273 32.0469 26.0875 32.1219C26.5219 32.2062 26.6625 32.8477 26.3352 33.1266C26.1422 33.282 25.918 33.3891 25.7023 33.5078C25.0961 33.8695 24.3578 33.7187 23.6961 33.8672C23.4016 34.1531 23.3086 34.5953 22.9844 34.857C22.6898 35.0578 22.3445 35.1602 22.0234 35.3078C21.5516 35.5187 21.0711 35.7102 20.5992 35.9211C20.4375 35.9625 20.4695 36.1539 20.4375 36.2797H20.4109C20.4047 35.7523 20.4055 35.225 20.4063 34.6977C20.982 34.4375 21.5766 34.2141 22.1391 33.9273C22.5266 33.6016 22.5992 33.0008 23.0484 32.7336C23.8023 32.5086 24.6641 32.7375 25.3625 32.3148Z" fill="#CB9044"/>
<path d="M16.8235 4.41057C17.6727 4.25822 18.5688 4.45901 19.2915 4.92463C24.0071 7.91682 28.7204 10.9121 33.4352 13.9059C33.9758 14.2567 34.6 14.5551 34.9344 15.1356C35.3235 15.7801 35.3102 16.5973 35.0079 17.2738C34.5477 17.2824 34.0829 17.1684 33.6969 16.9137C32.1805 15.9582 30.6727 14.9903 29.1563 14.0356C28.7852 13.8012 28.4188 13.5598 28.0454 13.3285C25.5188 11.7238 22.9922 10.1184 20.4649 8.51447C19.7438 8.04651 18.7571 8.03322 18.0282 8.4926C16.4899 9.46994 14.9493 10.4449 13.4125 11.4254C13.1836 11.5473 12.9266 11.702 12.6586 11.6356C12.4094 11.5457 12.4211 11.2278 12.4586 11.0145C12.5711 10.3856 12.6946 9.75822 12.8094 9.12932C12.3665 8.74182 11.911 8.36994 11.4696 7.98088C11.2969 7.86369 11.2508 7.58635 11.4555 7.47541C13.004 6.46994 14.5782 5.50432 16.1227 4.49182C16.3579 4.47932 16.5922 4.45354 16.8235 4.41057Z" fill="#CB9044"/>
<path d="M9.33364 23.4903C9.52739 23.4629 9.72349 23.4668 9.91802 23.4629C12.0563 23.4778 14.1946 23.4614 16.3329 23.4723C16.7047 23.4707 17.0672 23.6832 17.2422 24.0114C17.3766 24.2371 17.3774 24.5074 17.3766 24.7621C17.3704 26.8457 17.3829 28.9301 17.3704 31.0137C17.3696 31.5614 16.8758 32.0387 16.3297 32.0278C14.0618 32.0332 11.793 32.0332 9.52505 32.0278C8.97817 32.0395 8.4813 31.5606 8.48208 31.0121C8.47349 28.8512 8.47817 26.6895 8.47974 24.5285C8.46567 24.0348 8.84614 23.5692 9.33364 23.4903ZM9.68599 24.6746C9.6852 26.7239 9.68286 28.7731 9.68677 30.8223C11.4282 30.8231 13.1688 30.8231 14.9102 30.8223C15.329 30.8231 15.7469 30.8215 16.1657 30.8231C16.1696 28.7746 16.1672 26.7262 16.1672 24.677C15.7477 24.6762 15.329 24.6762 14.9102 24.677C14.0211 24.677 13.1321 24.6762 12.243 24.677C11.4805 24.6793 10.7188 24.6699 9.95708 24.6824C9.86645 24.6754 9.77661 24.6723 9.68599 24.6746Z" fill="#CB9044"/>
<path d="M20.4071 24.6782C21.9672 24.6751 23.5274 24.6782 25.0875 24.6774C25.0821 25.1454 25.1344 25.618 25.0688 26.0836C24.7789 26.3079 24.4227 26.4821 24.0672 26.5719C23.5571 26.4118 23.125 26.0711 22.6196 25.8985C22.2586 25.7813 21.8399 26.1016 21.8742 26.4852C21.8672 26.6907 21.9781 26.8883 22.1625 26.9821C22.5906 27.2383 23.0727 27.3946 23.4875 27.6758C23.5281 28.1719 23.4102 28.6899 23.5656 29.1704C23.8422 29.5235 24.2774 29.7055 24.618 29.9891C24.9297 30.1876 25.2508 30.5579 25.6578 30.4243C26.0531 30.318 26.2274 29.761 25.9242 29.4696C25.5594 29.1165 25.0985 28.886 24.7071 28.5649C24.6719 28.2665 24.6727 27.9665 24.7008 27.6688C25.1274 27.4001 25.6094 27.236 26.0352 26.9672C26.2539 26.8376 26.3086 26.5672 26.3086 26.3321C26.3172 25.7805 26.2977 25.229 26.318 24.6774C26.7672 24.6774 27.2156 24.6774 27.6649 24.6774C27.6758 28.5446 27.6805 32.4126 27.6641 36.2805C25.2555 36.2821 22.8469 36.2829 20.4375 36.2797C20.4696 36.154 20.4375 35.9626 20.5992 35.9211C21.0711 35.7102 21.5516 35.5188 22.0235 35.3079C22.3446 35.1602 22.6899 35.0579 22.9844 34.8571C23.3086 34.5954 23.4016 34.1532 23.6961 33.8672C24.3578 33.7188 25.0961 33.8696 25.7024 33.5079C25.918 33.3891 26.1422 33.2821 26.3352 33.1266C26.6625 32.8477 26.5219 32.2063 26.0875 32.1219C25.8274 32.0469 25.5844 32.2001 25.3625 32.3149C24.6641 32.7376 23.8024 32.5086 23.0485 32.7336C22.5992 33.0008 22.5266 33.6016 22.1391 33.9274C21.5766 34.2141 20.9821 34.4376 20.4063 34.6977C20.4063 31.3579 20.4047 28.018 20.4071 24.6782Z" fill="#CB9044"/>
<path d="M27.0227 4.44375C27.9617 4.43125 28.9008 4.44453 29.8398 4.4375C30.0805 4.44375 30.357 4.43516 30.5414 4.61719C30.7633 4.83672 30.7609 5.17656 30.7758 5.46719C30.7781 6.40469 30.7742 7.34141 30.7758 8.27891C30.7711 8.79531 30.8023 9.31328 30.7414 9.82734C29.5031 9.03906 28.2617 8.25547 27.0242 7.46641C27.025 6.45859 27.0281 5.45078 27.0227 4.44375Z" fill="#ECECF1"/>
<path d="M17.9523 10.8433C18.718 10.3183 19.7859 10.3386 20.5445 10.8668C22.0727 11.8355 23.6 12.8058 25.1273 13.7769C25.582 14.0636 26.0297 14.3644 26.5008 14.6254C26.4883 15.109 26.5102 15.5926 26.4883 16.0754C26.1531 16.2371 25.8219 16.4082 25.4867 16.5691C25.2555 16.348 25.0391 16.1121 24.8055 15.8949C24.693 15.784 24.5422 15.7144 24.3836 15.7176C23.7102 15.7035 23.0367 15.7238 22.3633 15.709C22.0453 15.448 21.8 14.9636 21.3297 15.0043C20.9133 15.034 20.65 15.5551 20.8797 15.9051C21.0555 16.1465 21.2937 16.3324 21.4961 16.5504C21.6641 16.7176 21.8469 16.923 22.1062 16.9168C22.7797 16.9316 23.4547 16.9152 24.1289 16.9238C24.332 17.1207 24.5328 17.3215 24.7352 17.5207C24.7094 17.8441 24.6734 18.1676 24.6406 18.491C24.3477 18.6886 24.0148 18.8261 23.743 19.0535C23.4344 19.3535 23.5984 19.9332 24.0125 20.0386C24.3852 20.1488 24.6891 19.8426 24.9953 19.6855C25.2789 19.4902 25.7016 19.3785 25.7898 19.0019C25.8672 18.5683 25.875 18.1261 25.9422 17.691C26.4023 17.4644 26.8633 17.2371 27.3203 17.0035C27.5266 16.9074 27.6937 16.709 27.6992 16.4738C27.7156 16.1285 27.6977 15.7824 27.7039 15.4363C28.5562 15.9246 29.3656 16.484 30.2023 16.9972C30.5805 17.2472 30.9781 17.4676 31.3453 17.7347C31.3711 21.484 31.3492 25.2347 31.357 28.9847C31.3492 31.4168 31.3719 33.8496 31.3469 36.2816C31.0062 36.2816 30.6656 36.2824 30.3258 36.2785C30.3305 32.4152 30.3273 28.5519 30.3273 24.6886C30.3609 24.041 29.7937 23.4496 29.143 23.4715C26.2242 23.4707 23.3055 23.4668 20.3867 23.4715C19.7391 23.4527 19.1594 24.0402 19.1984 24.6902C19.1977 28.5527 19.1977 32.416 19.2 36.2785C14.3883 36.2847 9.57734 36.2793 4.76562 36.2816C4.76484 31.5551 4.76641 26.8293 4.76484 22.1027C4.75469 21.9769 4.78594 21.848 4.90078 21.7801C6.02031 20.8949 7.13906 20.009 8.25937 19.1246C8.43125 18.9847 8.63516 18.8644 8.73594 18.6582C9.13516 17.9113 9.53359 17.1629 9.93672 16.4176C9.98672 16.3051 10.1102 16.2129 10.2375 16.2652C11.2312 16.5347 12.2164 16.8324 13.2055 17.1183C13.325 17.1371 13.3977 17.2355 13.4484 17.3371C13.9445 18.2519 14.4289 19.1738 14.932 20.0847C15.0164 20.2722 15.325 20.2371 15.3656 20.0355C15.6172 19.1113 15.8414 18.1793 16.0875 17.2543C16.1109 17.1152 16.2008 16.9465 16.0781 16.8285C15.4219 16.0746 14.7531 15.3301 14.0891 14.5824C13.7906 14.3129 13.8664 13.8722 13.7617 13.5176C15.1453 12.6066 16.557 11.7371 17.9523 10.8433ZM9.33359 23.491C8.84609 23.5699 8.46562 24.0355 8.47969 24.5293C8.47812 26.6902 8.47344 28.8519 8.48203 31.0129C8.48125 31.5613 8.97812 32.0402 9.525 32.0285C11.793 32.034 14.0617 32.034 16.3297 32.0285C16.8758 32.0394 17.3695 31.5621 17.3703 31.0144C17.3828 28.9308 17.3703 26.8465 17.3766 24.7629C17.3773 24.5082 17.3766 24.2379 17.2422 24.0121C17.0672 23.684 16.7047 23.4715 16.3328 23.473C14.1945 23.4621 12.0562 23.4785 9.91797 23.4636C9.72344 23.4676 9.52734 23.4636 9.33359 23.491Z" fill="#ECECF1"/>
<path d="M19.1984 24.6898C19.1594 24.0398 19.7391 23.4523 20.3867 23.4711C23.3055 23.4664 26.2242 23.4703 29.143 23.4711C29.7938 23.4492 30.3609 24.0406 30.3273 24.6883C30.3273 28.5516 30.3305 32.4148 30.3258 36.2781C29.9242 36.2719 29.5227 36.2758 29.1211 36.2789C29.1188 32.4117 29.1219 28.5453 29.1195 24.6781C28.6344 24.6758 28.15 24.6773 27.6648 24.6773C27.2156 24.6773 26.7672 24.6773 26.318 24.6773C25.9078 24.6766 25.4977 24.6766 25.0875 24.6773C23.5273 24.6781 21.9672 24.675 20.407 24.6781C20.4047 28.018 20.4063 31.3578 20.4063 34.6977C20.4055 35.225 20.4047 35.7523 20.4109 36.2797C20.007 36.2734 19.6039 36.2711 19.2 36.2781C19.1977 32.4156 19.1977 28.5523 19.1984 24.6898Z" fill="#E2DEE2"/>
<path d="M33.7023 36.2664C34.1375 36.2578 34.5727 36.2578 35.007 36.2648C35.2875 36.2602 35.575 36.5008 35.5508 36.7945C35.5539 37.7078 35.5594 38.6211 35.5484 39.5344C35.5555 39.757 35.3672 39.9187 35.1789 40H31.8773C32.0289 39.8219 32.2 39.6281 32.1797 39.3773C32.1844 38.568 32.1781 37.7594 32.182 36.9508C32.1953 36.7187 32.0773 36.5148 31.9727 36.3188C32.5484 36.2727 33.1281 36.3437 33.7023 36.2664Z" fill="#E2DEE2"/>
<path d="M9.68598 24.6746C9.77661 24.6723 9.86645 24.6754 9.95708 24.6824C10.3196 24.866 10.6852 25.0441 11.0446 25.234C11.0586 25.6465 11.0282 26.0598 11.0579 26.4723C11.0665 26.6863 11.2305 26.8441 11.3946 26.9598C11.7618 27.2215 12.1329 27.4777 12.4969 27.7426C12.675 27.8715 12.8844 28.009 13.1165 27.948C13.4508 27.8926 13.6844 27.5207 13.5813 27.1949C13.5297 26.9848 13.3407 26.8574 13.1766 26.7387C12.868 26.5223 12.5579 26.309 12.2563 26.0832C12.2477 25.6144 12.2633 25.1457 12.243 24.6769C13.1321 24.6762 14.0211 24.6769 14.9102 24.6769C14.9094 26.7254 14.9102 28.7738 14.9102 30.8223C13.1688 30.823 11.4282 30.823 9.68676 30.8223C9.68286 28.773 9.6852 26.7238 9.68598 24.6746Z" fill="#ECECF1"/>
<path d="M9.95703 24.6824C10.7188 24.6699 11.4805 24.6793 12.243 24.677C12.2633 25.1457 12.2477 25.6145 12.2563 26.0832C12.5578 26.309 12.868 26.5223 13.1766 26.7387C13.3406 26.8574 13.5297 26.9848 13.5812 27.1949C13.6844 27.5207 13.4508 27.8926 13.1164 27.9481C12.8844 28.009 12.675 27.8715 12.4969 27.7426C12.1328 27.4778 11.7617 27.2215 11.3945 26.9598C11.2305 26.8442 11.0664 26.6864 11.0578 26.4723C11.0281 26.0598 11.0586 25.6465 11.0445 25.234C10.6852 25.0442 10.3195 24.866 9.95703 24.6824Z" fill="#ECECF1"/>
<path d="M14.9103 24.6773C15.329 24.6766 15.7478 24.6766 16.1673 24.6773C16.1673 26.7266 16.1696 28.775 16.1657 30.8234C15.747 30.8219 15.329 30.8234 14.9103 30.8227C14.9103 28.7742 14.9095 26.7258 14.9103 24.6773Z" fill="#ECECF1"/>
<path d="M3.38839 36.2878C3.84698 36.2691 4.30636 36.2863 4.76573 36.2808C9.57745 36.2785 14.3884 36.2839 19.2001 36.2777C19.604 36.2706 20.0071 36.273 20.411 36.2792H20.4376C22.847 36.2824 25.2556 36.2816 27.6642 36.28C28.1501 36.2777 28.6353 36.28 29.1212 36.2785C29.5228 36.2753 29.9243 36.2714 30.3259 36.2777C30.6657 36.2816 31.0064 36.2808 31.347 36.2808C32.1321 36.2644 32.9173 36.2628 33.7024 36.266C33.1282 36.3433 32.5485 36.2722 31.9728 36.3183C32.0774 36.5144 32.1954 36.7183 32.1821 36.9503C32.1782 37.7589 32.1845 38.5675 32.1798 39.3769C32.2001 39.6277 32.029 39.8214 31.8774 39.9996H3.37823C3.11182 39.9675 2.89073 39.7292 2.90714 39.4566C2.90557 38.5706 2.90323 37.6855 2.9087 36.8003C2.90167 36.5378 3.12589 36.2972 3.38839 36.2878Z" fill="#F3F0F3"/>
</g>
<defs>
<clipPath id="clip0_1_5453">
<rect width="40" height="40" fill="white"/>
</clipPath>
</defs>
</svg>
