
<svg width="40" height="40" viewBox="0 0 40 40" fill="none" xmlns="http://www.w3.org/2000/svg">
<g clip-path="url(#clip0_1_5260)">
<path d="M38.5641 -1.14441e-05H39.1062C39.5211 0.152332 39.8531 0.474989 40 0.893739V25.8594C39.2188 25.8594 38.4383 25.8586 37.657 25.8601C36.875 25.8594 36.093 25.8586 35.3117 25.8601C34.5312 25.8586 33.75 25.8594 32.9695 25.8601C32.1875 25.8594 31.4055 25.8586 30.6242 25.8601C29.843 25.8594 29.0625 25.8594 28.282 25.8601C27.5 25.8586 26.7188 25.8594 25.9375 25.8594C22.3695 25.8594 18.8023 25.8594 15.2344 25.8594C15.2359 22.7344 15.2305 19.6094 15.2375 16.4851C16.4078 16.4836 17.5789 16.4851 18.7492 16.4836C18.7492 13.7781 18.7531 11.0734 18.7477 8.36796C17.7711 8.66874 16.7898 8.95233 15.8141 9.25546C15.5563 9.33358 15.2836 9.41093 15.0125 9.35311C14.4797 9.25546 14.0539 8.74999 14.0625 8.20624C14.0508 7.69608 14.4148 7.21952 14.9031 7.08202C22.4031 4.84218 29.9062 2.61249 37.4055 0.371864C37.7953 0.259364 38.1875 0.152332 38.5641 -1.14441e-05ZM33.8555 9.41093C30.732 10.1914 27.6086 10.9742 24.4852 11.7555C23.975 11.8719 23.5883 12.3609 23.5961 12.8844C23.5914 15.2586 23.593 17.632 23.5953 20.0062C23.5828 20.6258 24.1406 21.1789 24.7594 21.1695C27.8883 21.1734 31.0172 21.1734 34.1469 21.1695C34.768 21.1812 35.3219 20.6273 35.3102 20.0062C35.3141 16.8508 35.3141 13.6961 35.3102 10.5414C35.3375 9.80858 34.5602 9.20311 33.8555 9.41093ZM16.4063 18.8289C16.4063 20.3906 16.4055 21.9531 16.407 23.5156C17.1875 23.5156 17.9688 23.5164 18.7492 23.5156C18.75 21.9531 18.75 20.3906 18.7492 18.8281C17.9688 18.8281 17.1875 18.8273 16.4063 18.8289Z" fill="#344C80"/>
<path d="M15.2344 28.2031C16.7984 28.2031 18.3633 28.2039 19.9273 28.2016C20.5266 28.1711 21.0836 28.693 21.0906 29.293C21.1 30.4922 21.0906 31.6914 21.0938 32.8906C19.9195 32.8937 18.7453 32.8852 17.5719 32.893C16.9477 32.8797 16.3914 33.4398 16.407 34.0625C16.3922 34.6852 16.9508 35.2414 17.5719 35.2312C18.7453 35.2398 19.9195 35.2312 21.0938 35.2344C21.0938 36.8227 21.0938 38.4117 21.0938 40H15.2344C15.2344 36.068 15.2344 32.1352 15.2344 28.2031Z" fill="#344C80"/>
<path d="M33.8554 9.41053C34.5601 9.20271 35.3375 9.80818 35.3101 10.541C35.314 13.6957 35.314 16.8504 35.3101 20.0058C35.3218 20.6269 34.7679 21.1808 34.1468 21.1691C31.0171 21.173 27.8882 21.173 24.7593 21.1691C24.1406 21.1785 23.5828 20.6254 23.5953 20.0058C23.5929 17.6316 23.5914 15.2582 23.5961 12.884C23.5882 12.3605 23.975 11.8715 24.4851 11.7551C27.6086 10.9738 30.732 10.191 33.8554 9.41053Z" fill="#6AA9FF"/>
<path d="M-7.62939e-06 17.5367C0.0609299 16.9578 0.578117 16.4703 1.16796 16.4867C5.8578 16.482 10.5476 16.4852 15.2375 16.4852C15.2305 19.6094 15.2359 22.7344 15.2344 25.8594C11.7187 25.8586 8.20312 25.8609 4.68749 25.8586C3.51405 25.8578 2.33984 25.8641 1.16562 25.857C0.601555 25.8703 0.120305 25.4242 -7.62939e-06 24.8883V17.5367ZM2.34374 18.8281C2.34374 20.3906 2.34374 21.9531 2.34374 23.5156C3.12499 23.5156 3.90624 23.5156 4.68749 23.5156C4.68749 21.9531 4.68749 20.3906 4.68749 18.8281C3.90624 18.8273 3.12499 18.8281 2.34374 18.8281ZM7.03124 18.8281C7.03124 20.3906 7.03124 21.9531 7.03124 23.5156C7.81249 23.5156 8.59374 23.5156 9.37499 23.5156C9.37499 21.9531 9.37499 20.3906 9.37499 18.8281C8.59374 18.8281 7.81249 18.8281 7.03124 18.8281ZM11.7187 18.8281C11.7187 20.3906 11.7187 21.9531 11.7187 23.5156C12.5 23.5156 13.2812 23.5156 14.0625 23.5156C14.0625 21.9531 14.0625 20.3906 14.0625 18.8281C13.2812 18.8281 12.5 18.8281 11.7187 18.8281Z" fill="#4E6391"/>
<path d="M9.37724 29.369C9.35849 28.7456 9.91709 28.1854 10.5413 28.2058C12.1054 28.1995 13.6702 28.2058 15.2343 28.2034C15.2343 32.1354 15.2343 36.0683 15.2343 40.0003H9.3749C9.37646 36.4565 9.37177 32.9128 9.37724 29.369Z" fill="#4E6391"/>
<path d="M4.6875 25.8586C8.20312 25.8609 11.7188 25.8586 15.2344 25.8594C15.2344 26.6406 15.2344 27.4219 15.2344 28.2031C13.6703 28.2055 12.1055 28.1992 10.5414 28.2055C9.91719 28.1852 9.35859 28.7453 9.37734 29.3687C9.37187 32.9125 9.37656 36.4562 9.375 40H4.6875C4.6875 39.2187 4.68828 38.4375 4.6875 37.6562C4.6875 33.7234 4.6875 29.7914 4.6875 25.8586Z" fill="#ECECF1"/>
<path d="M15.2344 25.8594C18.8023 25.8594 22.3695 25.8594 25.9375 25.8594C25.9375 30.5727 25.9367 35.2867 25.9375 40H21.0938C21.0938 38.4117 21.0938 36.8227 21.0938 35.2344C21.0938 34.4531 21.0938 33.6719 21.0938 32.8906C21.0906 31.6914 21.1 30.4922 21.0906 29.293C21.0836 28.693 20.5266 28.1711 19.9273 28.2016C18.3633 28.2039 16.7984 28.2031 15.2344 28.2031C15.2344 27.4219 15.2344 26.6406 15.2344 25.8594Z" fill="#D3D3D8"/>
<path d="M25.9375 25.8594C26.7187 25.8594 27.5 25.8586 28.282 25.8602C28.2805 30.5734 28.282 35.2867 28.2805 40H25.9375C25.9367 35.2867 25.9375 30.5727 25.9375 25.8594Z" fill="#EAC596"/>
<path d="M30.6242 25.8602C31.4055 25.8586 32.1875 25.8594 32.9695 25.8602C32.9672 30.5734 32.9703 35.2867 32.968 40H30.6258C30.6227 35.2867 30.6273 30.5734 30.6242 25.8602Z" fill="#EAC596"/>
<path d="M35.3117 25.8602C36.093 25.8586 36.875 25.8594 37.657 25.8602C37.6547 30.5734 37.657 35.2867 37.6562 40H35.3133C35.3102 35.2867 35.3141 30.5734 35.3117 25.8602Z" fill="#EAC596"/>
<path d="M28.282 25.8598C29.0625 25.859 29.843 25.859 30.6242 25.8598C30.6273 30.573 30.6227 35.2863 30.6258 39.9996H28.2805C28.282 35.2863 28.2805 30.573 28.282 25.8598Z" fill="#CB9044"/>
<path d="M32.9695 25.8602C33.75 25.8594 34.5313 25.8586 35.3117 25.8602C35.3141 30.5734 35.3102 35.2867 35.3133 40H32.968C32.9703 35.2867 32.9672 30.5734 32.9695 25.8602Z" fill="#CB9044"/>
<path d="M37.657 25.8602C38.4383 25.8586 39.2188 25.8594 40 25.8594V39.0914C39.832 39.5516 39.4523 39.9367 38.95 40H37.6563C37.657 35.2867 37.6547 30.5734 37.657 25.8602Z" fill="#CB9044"/>
<path d="M16.407 34.0625C16.3914 33.4398 16.9477 32.8797 17.5719 32.893C18.7453 32.8852 19.9195 32.8938 21.0937 32.8906C21.0937 33.6719 21.0937 34.4531 21.0937 35.2344C19.9195 35.2313 18.7453 35.2398 17.5719 35.2312C16.9508 35.2414 16.3922 34.6852 16.407 34.0625Z" fill="#FFBB33"/>
<path d="M0 38.7004C0.0726563 38.1285 0.582812 37.6473 1.16719 37.6574C2.34063 37.6527 3.51406 37.6574 4.6875 37.6559C4.68828 38.4371 4.6875 39.2184 4.6875 39.9996H1.05C0.514062 39.9285 0.071875 39.4926 0 38.9559V38.7004Z" fill="#7ED8F6"/>
</g>
<defs>
<clipPath id="clip0_1_5260">
<rect width="40" height="40" fill="white"/>
</clipPath>
</defs>
</svg>
