
<svg width="40" height="40" viewBox="0 0 40 40" fill="none" xmlns="http://www.w3.org/2000/svg">
<g clip-path="url(#clip0_1_5289)">
<path d="M9.08515 -1.14441e-05H30.9344C31.5617 0.0562386 32.1016 0.608582 32.1062 1.24452C32.1187 2.21327 32.1031 3.1828 32.1133 4.15155C32.1148 4.79921 32.1234 5.44686 32.1117 6.09452C32.1172 6.61718 31.7703 7.11639 31.2851 7.30389C30.7633 7.47577 30.2047 7.39218 29.6664 7.39921C23.2219 7.39452 16.7781 7.39374 10.3336 7.39999C9.81093 7.39452 9.27421 7.46561 8.76327 7.32811C8.23749 7.17265 7.87343 6.63593 7.88046 6.09452C7.86796 5.44218 7.88515 4.78905 7.8789 4.13671C7.88437 3.17499 7.87343 2.21249 7.88359 1.25077C7.88281 0.603114 8.44374 0.0359261 9.08515 -1.14441e-05ZM11.1297 1.21561C10.7125 1.28202 10.3031 1.50546 10.0914 1.88124C9.77577 2.42421 9.88827 3.07343 9.86796 3.67108C9.88984 4.22733 9.80312 4.79921 9.95702 5.34296C10.0969 5.8453 10.5516 6.20936 11.0562 6.29921C11.6211 6.39608 12.257 6.37577 12.7398 6.0328C13.1406 5.74843 13.307 5.24139 13.3117 4.76718C13.3187 4.11639 13.3148 3.46561 13.3133 2.81483C13.3133 2.35233 13.1797 1.85546 12.8101 1.55155C12.3469 1.16796 11.7 1.13749 11.1297 1.21561ZM14.0172 1.55233C14.0109 2.83124 14.018 4.10936 14.0148 5.38827C14.0172 5.61249 13.9984 5.83983 14.0344 6.06249C14.1289 6.27889 14.4094 6.31249 14.618 6.30468C14.8305 6.30311 15.1273 6.19843 15.1078 5.93749C15.1203 5.34686 15.107 4.75468 15.1109 4.16327C15.4922 4.15155 15.875 4.18514 16.2547 4.14764C16.6203 4.0328 16.5734 3.3328 16.1672 3.32186C15.8164 3.30468 15.4648 3.32264 15.1141 3.31796C15.1094 2.92421 15.1117 2.53046 15.1109 2.13671C15.7508 2.1203 16.3937 2.16718 17.032 2.11405C17.3773 1.92811 17.3437 1.16874 16.8828 1.17968C16.0984 1.17421 15.3148 1.17499 14.5312 1.17968C14.3047 1.16249 13.9898 1.27655 14.0172 1.55233ZM17.632 1.55702C17.6234 2.83593 17.6328 4.11561 17.6281 5.39452C17.6328 5.62655 17.6055 5.86327 17.657 6.09218C17.8101 6.31561 18.1195 6.32577 18.3617 6.29061C18.5117 6.26249 18.7023 6.18046 18.7164 6.00546C18.7633 5.39686 18.6742 4.76796 18.7555 4.1703C19.0914 4.1414 19.4289 4.18124 19.7648 4.15858C20.2023 4.17655 20.2359 3.41171 19.8414 3.32968C19.4703 3.29764 19.0976 3.32577 18.7258 3.31561C18.725 2.92499 18.7266 2.53358 18.7234 2.14296C19.3555 2.11561 19.9898 2.16483 20.6203 2.11874C21.0109 1.96249 20.9594 1.13436 20.4703 1.17889C19.6875 1.17655 18.9031 1.17264 18.1195 1.18124C17.8976 1.16952 17.5992 1.28827 17.632 1.55702ZM21.5164 1.21483C21.3578 1.25155 21.2219 1.38749 21.2461 1.56093C21.2375 2.96718 21.2484 4.37343 21.2414 5.77968C21.2484 5.92499 21.2242 6.11405 21.3734 6.19921C21.6226 6.34686 21.9656 6.34764 22.2133 6.19608C22.3601 6.11171 22.3336 5.92577 22.3414 5.78358C22.3351 4.37499 22.3453 2.96718 22.3367 1.55858C22.3461 1.15077 21.8016 1.13983 21.5164 1.21483ZM24.2531 1.22264C23.8555 1.29686 23.4726 1.5203 23.268 1.87733C23.057 2.22811 23.0344 2.64921 23.0383 3.04764C23.0461 3.64608 23.0281 4.24452 23.0476 4.84296C23.0617 5.30311 23.2461 5.7828 23.6367 6.05155C24.1328 6.39139 24.7859 6.40624 25.3547 6.27343C25.8875 6.14608 26.3734 5.72968 26.4609 5.1703C26.4922 4.93358 26.5391 4.62186 26.3297 4.45077C26.1055 4.32499 25.8187 4.3453 25.582 4.42343C25.3508 4.51796 25.407 4.80702 25.3375 5.00233C25.2242 5.53827 24.3187 5.52421 24.182 5.00858C24.0953 4.62186 24.1508 4.2203 24.1367 3.82733C24.1516 3.39608 24.0961 2.95858 24.1781 2.53202C24.2937 2.07733 24.9578 2.01171 25.2531 2.31874C25.4531 2.52968 25.2914 2.96796 25.6336 3.05389C25.8976 3.11171 26.3117 3.16171 26.4445 2.85858C26.582 2.37733 26.3797 1.82421 25.9726 1.53593C25.482 1.18046 24.8351 1.12577 24.2531 1.22264ZM27.1445 1.29608C27.0164 1.3953 27.0492 1.57343 27.0391 1.71483C27.0469 3.12421 27.0344 4.53358 27.0445 5.94296C27.0195 6.18593 27.2828 6.31014 27.4906 6.30311C28.2461 6.31718 29.0031 6.30077 29.7594 6.31014C29.9391 6.30233 30.1875 6.34764 30.2781 6.14296C30.4094 5.88202 30.3726 5.37108 30 5.3578C29.3797 5.3453 28.7594 5.35702 28.1398 5.35546C28.1359 4.9578 28.1367 4.56014 28.1383 4.16171C28.5234 4.15077 28.9117 4.18983 29.2961 4.14218C29.6086 4.00624 29.5945 3.43358 29.2641 3.33202C28.8898 3.29452 28.5117 3.32811 28.1367 3.31483C28.1375 2.92186 28.1367 2.52889 28.1383 2.13514C28.7328 2.13436 29.3281 2.13983 29.9226 2.13593C30.4898 2.20858 30.4984 1.10389 29.9289 1.17733C29.1961 1.17343 28.4641 1.18046 27.732 1.17499C27.5344 1.18593 27.307 1.15936 27.1445 1.29608Z" fill="#F3F4F4"/>
<path d="M11.3711 2.16094C11.6523 2.08516 12.0227 2.15625 12.1469 2.45156C12.2609 2.76562 12.2078 3.10703 12.2187 3.43437C12.2039 3.92891 12.25 4.42734 12.1937 4.92031C12.1398 5.44141 11.3617 5.55937 11.0805 5.16484C10.943 4.95156 10.968 4.68672 10.9617 4.44531C10.9719 3.87344 10.95 3.30156 10.9711 2.73047C10.975 2.48281 11.1148 2.22031 11.3711 2.16094Z" fill="#F3F4F4"/>
<path d="M18.8757 29.1168C20.5616 29.1113 22.2483 29.1215 23.9351 29.1113L23.9319 29.1652C23.7819 29.3012 23.6241 29.4285 23.4788 29.5699C22.3749 30.6785 21.2671 31.784 20.1608 32.8918C19.4647 33.566 18.8108 34.2855 18.0866 34.9316C18.0733 33.4449 18.0936 31.9574 18.0765 30.4707C18.0851 30.2605 18.0522 30.0168 18.2069 29.8488C18.4257 29.6004 18.6757 29.3816 18.8757 29.1168Z" fill="#F3F4F4"/>
<path d="M22.5594 31.2336C23.0195 30.7867 23.4492 30.3078 23.9383 29.8914C23.9336 30.8227 23.9383 31.7547 23.9359 32.6859C23.7328 32.8461 23.5375 33.0164 23.3578 33.2031C21.8945 34.6937 20.3906 36.143 18.9422 37.6477L18.9187 37.6711C18.6398 37.6539 18.3601 37.6406 18.0812 37.6289C18.0961 37.0227 18.0578 36.4141 18.0937 35.8094C18.2117 35.4766 18.5406 35.2789 18.7687 35.025C20.032 33.7602 21.2953 32.4969 22.5594 31.2336Z" fill="#F3F4F4"/>
<path d="M11.1297 1.21562C11.7 1.1375 12.3469 1.16797 12.8101 1.55156C13.1797 1.85547 13.3133 2.35234 13.3133 2.81484C13.3148 3.46562 13.3187 4.1164 13.3117 4.76719C13.307 5.2414 13.1406 5.74844 12.7398 6.03281C12.257 6.37578 11.6211 6.39609 11.0562 6.29922C10.5516 6.20937 10.0969 5.84531 9.95702 5.34297C9.80312 4.79922 9.88984 4.22734 9.86796 3.67109C9.88827 3.07344 9.77577 2.42422 10.0914 1.88125C10.3031 1.50547 10.7125 1.28203 11.1297 1.21562ZM11.3711 2.16094C11.1148 2.22031 10.975 2.48281 10.9711 2.73047C10.95 3.30156 10.9719 3.87344 10.9617 4.44531C10.968 4.68672 10.943 4.95156 11.0805 5.16484C11.3617 5.55937 12.1398 5.4414 12.1937 4.92031C12.25 4.42734 12.2039 3.9289 12.2187 3.43437C12.2078 3.10703 12.2609 2.76562 12.1469 2.45156C12.0226 2.15625 11.6523 2.08515 11.3711 2.16094Z" fill="#CB9044"/>
<path d="M14.0172 1.55234C13.9898 1.27656 14.3047 1.1625 14.5312 1.17969C15.3148 1.175 16.0984 1.17422 16.8828 1.17969C17.3437 1.16875 17.3773 1.92812 17.032 2.11406C16.3937 2.16719 15.7508 2.12031 15.1109 2.13672C15.1117 2.53047 15.1094 2.92422 15.1141 3.31797C15.4648 3.32266 15.8164 3.30469 16.1672 3.32187C16.5734 3.33281 16.6203 4.03281 16.2547 4.14766C15.875 4.18516 15.4922 4.15156 15.1109 4.16328C15.107 4.75469 15.1203 5.34687 15.1078 5.9375C15.1273 6.19844 14.8305 6.30312 14.618 6.30469C14.4094 6.3125 14.1289 6.27891 14.0344 6.0625C13.9984 5.83984 14.0172 5.6125 14.0148 5.38828C14.018 4.10937 14.0109 2.83125 14.0172 1.55234Z" fill="#CB9044"/>
<path d="M17.632 1.55703C17.5992 1.28828 17.8976 1.16953 18.1195 1.18125C18.9031 1.17266 19.6875 1.17656 20.4703 1.17891C20.9594 1.13438 21.0109 1.9625 20.6203 2.11875C19.9898 2.16484 19.3555 2.11563 18.7234 2.14297C18.7266 2.53359 18.725 2.925 18.7258 3.31563C19.0976 3.32578 19.4703 3.29766 19.8414 3.32969C20.2359 3.41172 20.2023 4.17656 19.7648 4.15859C19.4289 4.18125 19.0914 4.14141 18.7555 4.17031C18.6742 4.76797 18.7633 5.39688 18.7164 6.00547C18.7023 6.18047 18.5117 6.2625 18.3617 6.29063C18.1195 6.32578 17.8101 6.31563 17.657 6.09219C17.6055 5.86328 17.6328 5.62656 17.6281 5.39453C17.6328 4.11563 17.6234 2.83594 17.632 1.55703Z" fill="#CB9044"/>
<path d="M21.5164 1.21484C21.8015 1.13984 22.3461 1.15078 22.3367 1.55859C22.3453 2.96719 22.3351 4.375 22.3414 5.78359C22.3336 5.92578 22.3601 6.11172 22.2133 6.19609C21.9656 6.34766 21.6226 6.34688 21.3734 6.19922C21.2242 6.11406 21.2484 5.925 21.2414 5.77969C21.2484 4.37344 21.2375 2.96719 21.2461 1.56094C21.2219 1.3875 21.3578 1.25156 21.5164 1.21484Z" fill="#CB9044"/>
<path d="M24.253 1.22312C24.835 1.12625 25.4819 1.18094 25.9725 1.53641C26.3796 1.82469 26.5819 2.37781 26.4444 2.85906C26.3116 3.16219 25.8975 3.11219 25.6335 3.05437C25.2913 2.96844 25.453 2.53016 25.253 2.31922C24.9577 2.01219 24.2936 2.07781 24.178 2.5325C24.096 2.95906 24.1514 3.39656 24.1366 3.82781C24.1507 4.22078 24.0952 4.62234 24.1819 5.00906C24.3186 5.52469 25.2241 5.53875 25.3374 5.00281C25.4069 4.8075 25.3507 4.51844 25.5819 4.4239C25.8186 4.34578 26.1053 4.32547 26.3296 4.45125C26.5389 4.62234 26.4921 4.93406 26.4608 5.17078C26.3733 5.73015 25.8874 6.14656 25.3546 6.27391C24.7858 6.40672 24.1327 6.39187 23.6366 6.05203C23.246 5.78328 23.0616 5.30359 23.0475 4.84344C23.028 4.245 23.046 3.64656 23.0382 3.04812C23.0343 2.64969 23.0569 2.22859 23.2678 1.87781C23.4725 1.52078 23.8553 1.29734 24.253 1.22312Z" fill="#CB9044"/>
<path d="M27.1445 1.29609C27.307 1.15938 27.5344 1.18594 27.732 1.175C28.4641 1.18047 29.1961 1.17344 29.9289 1.17734C30.4984 1.10391 30.4898 2.20859 29.9227 2.13594C29.3281 2.13984 28.7328 2.13438 28.1383 2.13516C28.1367 2.52891 28.1375 2.92188 28.1367 3.31484C28.5117 3.32813 28.8898 3.29453 29.2641 3.33203C29.5945 3.43359 29.6086 4.00625 29.2961 4.14219C28.9117 4.18984 28.5234 4.15078 28.1383 4.16172C28.1367 4.56016 28.1359 4.95781 28.1398 5.35547C28.7594 5.35703 29.3797 5.34531 30 5.35781C30.3727 5.37109 30.4094 5.88203 30.2781 6.14297C30.1875 6.34766 29.9391 6.30234 29.7594 6.31016C29.0031 6.30078 28.2461 6.31719 27.4906 6.30313C27.2828 6.31016 27.0195 6.18594 27.0445 5.94297C27.0344 4.53359 27.0469 3.12422 27.0391 1.71484C27.0492 1.57344 27.0164 1.39531 27.1445 1.29609Z" fill="#CB9044"/>
<path d="M3.57968 8.66406C4.76172 6.9375 6.24531 5.43672 7.8789 4.13672C7.88515 4.78906 7.86797 5.44219 7.88047 6.09453C7.87343 6.63594 8.2375 7.17266 8.76328 7.32813C9.27422 7.46563 9.81094 7.39453 10.3336 7.4C10.3344 7.69922 10.3344 7.99844 10.3422 8.29844C10.3625 10.5172 10.3484 12.7359 10.35 14.9555C7.12656 14.9672 3.90312 14.9508 0.680466 14.957C1.27187 12.7125 2.2539 10.5703 3.57968 8.66406Z" fill="#E0DEF7"/>
<path d="M32.1133 4.15156C35.6281 6.82109 38.2094 10.6883 39.3219 14.9602C36.0976 14.957 32.8711 14.9711 29.6492 14.943C29.6523 12.7289 29.6367 10.5141 29.657 8.29922C29.6656 7.99922 29.6656 7.69922 29.6664 7.39922C30.2047 7.39219 30.7633 7.47578 31.2851 7.30391C31.7703 7.11641 32.1172 6.61719 32.1117 6.09453C32.1234 5.44687 32.1148 4.79922 32.1133 4.15156Z" fill="#E0DEF7"/>
<path d="M10.3336 7.4C16.7781 7.39375 23.2219 7.39453 29.6664 7.39922C29.6656 7.69922 29.6656 7.99922 29.657 8.29922C26.1 8.32891 22.5414 8.30234 18.9836 8.3125C16.1031 8.30313 13.2227 8.33047 10.3422 8.29844C10.3344 7.99844 10.3344 7.69922 10.3336 7.4Z" fill="#344C80"/>
<path d="M0.67187 14.9862C1.72421 14.9355 2.77812 14.9761 3.83046 14.9644C5.18359 14.9698 6.53671 14.9472 7.88984 14.9808C8.70312 14.9636 9.51796 14.9472 10.3312 14.9792C10.3648 16.2019 10.3383 17.4261 10.3453 18.6495C8.07734 18.6464 5.80859 18.6511 3.54062 18.6472C2.81953 18.6487 2.09765 18.6487 1.37656 18.648C1.36093 19.4526 1.37265 20.2581 1.36953 21.0636C2.09296 21.0683 2.81562 21.0636 3.53906 21.0667C5.80859 21.0636 8.0789 21.0667 10.3484 21.0651C10.3625 21.5026 10.3633 21.9401 10.3492 22.3769C8.0789 22.3761 5.80859 22.3792 3.53828 22.3753C2.81562 22.3792 2.09296 22.3745 1.36953 22.3792C1.37109 23.1839 1.36406 23.9886 1.37421 24.7933C2.09609 24.7948 2.81796 24.7917 3.53984 24.7948C5.80937 24.7909 8.0789 24.7964 10.3484 24.7917C10.3609 25.23 10.3625 25.6675 10.3492 26.1058C8.07968 26.1034 5.81015 26.1065 3.53984 26.1042C2.81796 26.1034 2.09609 26.105 1.37421 26.1034C1.37343 26.4761 1.35937 26.8495 1.36562 27.223C-0.133599 23.3487 -0.377349 19.005 0.67187 14.9862Z" fill="#344C80"/>
<path d="M29.6383 15.0062C31.8141 14.9328 33.993 14.9758 36.1711 14.9648C37.2234 14.9766 38.2773 14.9367 39.3297 14.9883C40.3742 19.0086 40.1359 23.3523 38.6328 27.2266C38.6383 26.8523 38.6266 26.4781 38.6289 26.1039C36.3594 26.1039 34.0891 26.1047 31.8195 26.1039C31.0969 26.107 30.375 26.1039 29.6531 26.107C29.6375 25.668 29.6375 25.2297 29.6539 24.7914C30.3758 24.7969 31.0984 24.7914 31.8211 24.7969C34.0906 24.7906 36.3601 24.7969 38.6297 24.7937C38.6328 23.9891 38.6289 23.1852 38.6312 22.3812C36.3422 22.3703 34.0531 22.3852 31.7641 22.3734C31.0601 22.3805 30.357 22.3766 29.6539 22.3781C29.6367 21.9406 29.6351 21.5031 29.6523 21.0656C30.3742 21.0664 31.0961 21.0648 31.818 21.0687C34.0898 21.057 36.3625 21.0805 38.6344 21.0562C38.625 20.2547 38.6344 19.4523 38.6297 18.65C36.3594 18.6469 34.0898 18.6531 31.8203 18.6469C31.0969 18.6516 30.3742 18.6453 29.6508 18.6531C29.6297 17.4375 29.6492 16.2219 29.6383 15.0062Z" fill="#344C80"/>
<path d="M1.91953 28.5211C2.46015 28.5203 3.00156 28.5195 3.54218 28.5219C5.81093 28.5219 8.08046 28.5242 10.3492 28.5211C10.3633 28.9586 10.3594 29.3961 10.3476 29.8344C8.0789 29.8313 5.81015 29.8359 3.5414 29.832C3.22734 29.8313 2.91406 29.8328 2.60078 29.8375C2.35859 29.4063 2.13281 28.9664 1.91953 28.5211Z" fill="#344C80"/>
<path d="M29.6516 29.8367C29.6359 29.3977 29.6359 28.9578 29.6516 28.5188C30.375 28.5258 31.0977 28.5211 31.8211 28.5219C33.907 28.5195 35.993 28.5203 38.0789 28.5219C37.8672 28.9672 37.6406 29.4055 37.4008 29.8359C35.5414 29.8297 33.6813 29.8359 31.8219 29.8328C31.0984 29.8359 30.375 29.8313 29.6516 29.8367Z" fill="#344C80"/>
<path d="M4.20546 32.2508C6.25312 32.2477 8.30155 32.2516 10.3492 32.2492C10.3625 32.6875 10.3617 33.1258 10.3484 33.5641C8.67265 33.5625 6.99687 33.5586 5.3203 33.5664C4.9328 33.1422 4.56171 32.7023 4.20546 32.2508Z" fill="#344C80"/>
<path d="M29.6531 33.5656C29.6367 33.1266 29.6359 32.6883 29.6531 32.2492C30.375 32.2516 31.0969 32.25 31.8195 32.2516C33.1445 32.2484 34.4695 32.2492 35.7953 32.2508C35.4398 32.7031 35.068 33.1422 34.6797 33.5664C33.7266 33.5562 32.7734 33.5672 31.8203 33.5602C31.0976 33.5648 30.375 33.5586 29.6531 33.5656Z" fill="#344C80"/>
<path d="M8.00319 35.9934C8.78288 35.9629 9.56413 35.984 10.3454 35.9801C10.3477 36.4887 10.3524 36.9973 10.329 37.5051C9.52194 37.052 8.74381 36.548 8.00319 35.9934Z" fill="#344C80"/>
<path d="M29.6594 35.9828C30.425 35.9945 31.1945 35.9367 31.957 36.0227C31.2383 36.5602 30.482 37.0484 29.6992 37.4883C29.6242 36.9891 29.6555 36.4844 29.6594 35.9828Z" fill="#344C80"/>
<path d="M10.3422 8.29883C13.2227 8.33086 16.1031 8.30352 18.9836 8.31289C22.5414 8.30273 26.1 8.3293 29.657 8.29961C29.6367 10.5145 29.6523 12.7293 29.6492 14.9434C32.8711 14.9715 36.0977 14.9574 39.3219 14.9605L39.3297 14.9887C38.2773 14.9371 37.2234 14.977 36.1711 14.9652C33.993 14.9762 31.8141 14.9332 29.6383 15.0066C29.6492 16.2223 29.6297 17.4379 29.6508 18.6535C29.6617 19.4574 29.6609 20.2613 29.6523 21.066C29.6352 21.5035 29.6367 21.941 29.6539 22.3785C29.6602 23.1824 29.6602 23.9871 29.6539 24.7918C29.6375 25.2301 29.6375 25.6684 29.6531 26.1074C29.6602 26.9113 29.6617 27.7152 29.6516 28.5191C29.6359 28.9582 29.6359 29.398 29.6516 29.8371C29.6617 30.641 29.6602 31.4457 29.6531 32.2496C29.6359 32.6887 29.6367 33.127 29.6531 33.566C29.6641 34.3715 29.6531 35.177 29.6594 35.9832C29.6555 36.4848 29.6242 36.9895 29.6992 37.4887C27.9 38.4848 25.9492 39.2043 23.9336 39.6129C23.9398 38.9691 23.9383 38.3254 23.9437 37.6824C23.9297 36.0168 23.9445 34.3512 23.9359 32.6863C23.9383 31.7551 23.9336 30.823 23.9383 29.8918C23.9391 29.6496 23.9312 29.4082 23.932 29.166L23.9352 29.1121C22.2484 29.1223 20.5617 29.1121 18.8758 29.1176C18.6055 29.116 18.3367 29.1129 18.0672 29.1113C17.4 29.1184 16.7336 29.1098 16.0664 29.1215C16.057 30.059 16.0633 30.9973 16.0648 31.9348C16.0586 33.6168 16.0633 35.2996 16.0625 36.9816C16.0625 37.2137 16.0625 37.4457 16.0625 37.6777C16.0617 38.3215 16.0609 38.9645 16.0625 39.6074C14.0578 39.2082 12.1203 38.4895 10.3289 37.5059C10.3523 36.998 10.3477 36.4895 10.3453 35.9809C10.3477 35.1754 10.3414 34.3699 10.3484 33.5645C10.3617 33.1262 10.3625 32.6879 10.3492 32.2496C10.3422 31.4441 10.3445 30.6395 10.3477 29.8348C10.3594 29.3965 10.3633 28.959 10.3492 28.5215C10.343 27.7168 10.343 26.9113 10.3492 26.1066C10.3625 25.6684 10.3609 25.2309 10.3484 24.7926C10.3438 23.9879 10.343 23.1832 10.3492 22.3777C10.3633 21.941 10.3625 21.5035 10.3484 21.066C10.3406 20.2613 10.3477 19.4559 10.3453 18.6504C10.3383 17.427 10.3648 16.2027 10.3312 14.9801C9.51797 14.948 8.70312 14.9645 7.88984 14.9816C6.53672 14.948 5.18359 14.9707 3.83047 14.9652C2.77812 14.977 1.72422 14.9363 0.671875 14.9871L0.680469 14.9574C3.90312 14.9512 7.12656 14.9676 10.35 14.9559C10.3484 12.7363 10.3625 10.5176 10.3422 8.29883ZM12.9266 9.19414C12.7047 9.23945 12.6359 9.48633 12.6547 9.68398C12.6594 11.1449 12.6492 12.6059 12.6594 14.0668C12.6445 14.248 12.7766 14.4434 12.9664 14.4527C13.4336 14.484 13.9023 14.452 14.3695 14.4668C14.543 14.4559 14.7586 14.4957 14.8859 14.3465C15.0023 14.2293 14.9773 14.0527 14.9867 13.9035C14.9797 12.4707 14.9883 11.0371 14.9828 9.6043C15.0094 9.39102 14.8406 9.17148 14.618 9.18242C14.0547 9.17852 13.4883 9.15742 12.9266 9.19414ZM17.0617 9.19102C16.8656 9.21914 16.7578 9.42305 16.7742 9.60664C16.7727 11.0918 16.7695 12.577 16.7758 14.0613C16.7578 14.2527 16.9016 14.4543 17.1023 14.4559C17.5719 14.4793 18.043 14.4543 18.5133 14.4668C18.6672 14.4559 18.85 14.4887 18.9742 14.3738C19.1148 14.2629 19.0969 14.0699 19.1031 13.9105C19.0992 12.5043 19.1008 11.0973 19.1023 9.69102C19.0977 9.55195 19.1031 9.38945 18.9922 9.28633C18.8453 9.13867 18.6187 9.18633 18.432 9.17461C17.975 9.19023 17.5172 9.1543 17.0617 9.19102ZM21.2023 9.18789C20.9969 9.20273 20.8727 9.41289 20.8898 9.60508C20.8898 11.0918 20.8859 12.5793 20.8914 14.0668C20.8758 14.2668 21.0359 14.4676 21.2461 14.459C21.768 14.4707 22.2906 14.466 22.8133 14.4613C23.0367 14.4871 23.2383 14.2887 23.2141 14.0645C23.2234 12.6043 23.2125 11.1441 23.2187 9.68398C23.2125 9.55273 23.2211 9.40195 23.1219 9.30039C22.9883 9.14492 22.7648 9.18398 22.5836 9.17461C22.1234 9.18789 21.6617 9.1582 21.2023 9.18789ZM25.2766 9.19414C25.0906 9.23242 24.9914 9.42852 25.007 9.60664C25.0047 11.0949 25.0016 12.584 25.0086 14.0723C24.9906 14.2816 25.1719 14.4785 25.3859 14.4598C25.9094 14.4676 26.4336 14.4684 26.957 14.4598C27.1711 14.477 27.35 14.277 27.3312 14.0676C27.3375 12.5793 27.3344 11.0902 27.3328 9.60273C27.3594 9.38477 27.1836 9.16836 26.9586 9.18164C26.3984 9.1793 25.8352 9.15664 25.2766 9.19414ZM12.9 15.802C12.7109 15.8582 12.6406 16.0676 12.6555 16.2465C12.6562 17.7066 12.6539 19.1668 12.657 20.627C12.6352 20.8215 12.7586 21.0395 12.9672 21.0566C13.5141 21.0809 14.0625 21.0699 14.6102 21.0629C14.8406 21.0754 15.0125 20.8488 14.9828 20.6285C14.9836 19.1418 14.9883 17.6543 14.9812 16.1684C15.0016 15.9223 14.7633 15.7441 14.5312 15.777C13.9875 15.7879 13.4398 15.7449 12.9 15.802ZM16.9766 15.8176C16.7781 15.9043 16.7656 16.1387 16.7703 16.3254C16.7797 17.7832 16.7633 19.241 16.7781 20.698C16.7656 20.9207 16.9773 21.0848 17.1883 21.066C17.707 21.0684 18.2273 21.077 18.7469 21.0613C18.9742 21.0645 19.125 20.8395 19.1 20.6262C19.1023 19.1668 19.1008 17.7066 19.1008 16.2473C19.118 16.059 19.0344 15.8379 18.8312 15.7957C18.5734 15.7582 18.3117 15.7793 18.0523 15.7762C17.6945 15.7941 17.3258 15.7309 16.9766 15.8176ZM21.1094 15.8105C20.9344 15.8777 20.8758 16.0746 20.8883 16.2465C20.8906 17.7066 20.8875 19.1676 20.8898 20.6285C20.8625 20.8387 21.0172 21.0645 21.2406 21.0605C21.6844 21.0832 22.1281 21.059 22.5719 21.0707C22.7578 21.0613 22.9859 21.1012 23.1234 20.9426C23.2406 20.8152 23.2102 20.6277 23.2203 20.4699C23.2109 19.0371 23.225 17.6043 23.2133 16.1723C23.2336 15.9504 23.0352 15.7574 22.8148 15.7801C22.2477 15.7887 21.6711 15.7363 21.1094 15.8105ZM25.2461 15.8027C25.0578 15.8605 24.9898 16.0691 25.0047 16.248C25.0062 17.7074 25.0031 19.1676 25.0062 20.6277C24.9758 20.8512 25.1508 21.077 25.3844 21.0637C25.9102 21.0723 26.4359 21.0738 26.9609 21.0629C27.1914 21.0746 27.3617 20.8488 27.3328 20.6293C27.3336 19.1418 27.3391 17.6535 27.3305 16.166C27.35 15.9199 27.1109 15.7449 26.8797 15.777C26.3359 15.7887 25.7867 15.7434 25.2461 15.8027ZM12.925 22.3957C12.7391 22.4332 12.6422 22.6316 12.657 22.809C12.6562 24.2965 12.6516 25.7848 12.6594 27.2715C12.6398 27.4848 12.8258 27.6801 13.0414 27.6621C13.5648 27.6715 14.0898 27.6723 14.6133 27.6621C14.8234 27.6723 14.9977 27.4785 14.9812 27.2723C14.9875 25.7848 14.9844 24.2965 14.9828 22.809C15.0094 22.5949 14.8437 22.3715 14.618 22.384C14.0539 22.3832 13.4875 22.3605 12.925 22.3957ZM17.0594 22.3926C16.8602 22.4207 16.7562 22.6309 16.7734 22.816C16.7734 24.2988 16.7687 25.7824 16.7758 27.2652C16.7508 27.4965 16.9625 27.6918 17.1898 27.6645C17.7109 27.6668 18.232 27.677 18.7523 27.659C18.9594 27.6629 19.1164 27.4613 19.0977 27.2621C19.1047 25.7801 19.1008 24.2973 19.1 22.8152C19.1242 22.6043 18.9734 22.3801 18.7484 22.3848C18.1859 22.3809 17.6211 22.3652 17.0594 22.3926ZM21.2 22.3887C20.9914 22.4043 20.8719 22.6199 20.8898 22.8129C20.8867 24.2457 20.893 25.6793 20.8867 27.1121C20.8945 27.2551 20.8727 27.423 20.9797 27.5379C21.1219 27.7082 21.3664 27.6574 21.5625 27.6699C22.0047 27.6559 22.4477 27.6855 22.8898 27.6566C23.0875 27.652 23.2297 27.4543 23.2141 27.2652C23.2242 25.8332 23.2109 24.4004 23.2203 22.9684C23.2109 22.8113 23.2383 22.6277 23.1234 22.502C22.9883 22.3434 22.7625 22.3871 22.5797 22.377C22.1195 22.391 21.6586 22.3621 21.2 22.3887ZM25.2758 22.3957C25.0898 22.4316 24.9922 22.6309 25.0062 22.8074C25.0016 24.2418 25.0094 25.6762 25.0031 27.1098C25.0125 27.2582 24.9883 27.4363 25.107 27.5504C25.2359 27.6965 25.45 27.6582 25.6242 27.6699C26.0937 27.6543 26.5648 27.6895 27.0336 27.6535C27.2547 27.6309 27.357 27.3902 27.3344 27.1918C27.3328 25.7316 27.3367 24.2715 27.3328 22.8121C27.3625 22.5918 27.1875 22.366 26.9578 22.3832C26.3977 22.384 25.8344 22.3605 25.2758 22.3957ZM12.843 29.0254C12.6562 29.1199 12.6516 29.3449 12.6531 29.527C12.6594 30.9598 12.6523 32.3934 12.657 33.827C12.6258 34.0527 12.8039 34.2801 13.0391 34.2621C13.5633 34.2684 14.0883 34.2699 14.6117 34.2613C14.8406 34.2754 15.0117 34.0504 14.9836 33.8332C14.9867 32.3738 14.9828 30.9152 14.9852 29.4559C15.0062 29.2598 14.9125 29.0176 14.6922 28.9934C14.2742 28.9566 13.8531 28.9918 13.4336 28.977C13.2375 28.9848 13.0289 28.952 12.843 29.0254ZM25.2469 29.0027C25.0578 29.0598 24.9898 29.2707 25.0047 29.4504C25.0062 30.9121 25.0023 32.3738 25.007 33.8355C24.9781 34.0559 25.1539 34.2777 25.3836 34.2621C25.9078 34.2684 26.4328 34.2699 26.957 34.2613C27.1875 34.277 27.3602 34.052 27.3328 33.8332C27.3336 32.3457 27.3391 30.8582 27.3305 29.3715C27.3477 29.1629 27.168 28.966 26.9555 28.984C26.3867 28.9848 25.8133 28.9527 25.2469 29.0027Z" fill="#D0DBF7"/>
<path d="M12.9267 9.19329C13.4884 9.15657 14.0548 9.17767 14.6181 9.18157C14.8407 9.17064 15.0095 9.39017 14.9829 9.60345C14.9884 11.0363 14.9798 12.4699 14.9868 13.9027C14.9774 14.0519 15.0024 14.2284 14.886 14.3456C14.7587 14.4949 14.5431 14.455 14.3696 14.4659C13.9024 14.4511 13.4337 14.4831 12.9665 14.4519C12.7767 14.4425 12.6446 14.2472 12.6595 14.0659C12.6493 12.605 12.6595 11.1441 12.6548 9.68314C12.636 9.48548 12.7048 9.23861 12.9267 9.19329Z" fill="#26447E"/>
<path d="M17.0618 9.19016C17.5173 9.15345 17.9751 9.18938 18.4321 9.17376C18.6189 9.18548 18.8454 9.13782 18.9923 9.28548C19.1032 9.3886 19.0978 9.5511 19.1025 9.69016C19.1009 11.0964 19.0993 12.5034 19.1032 13.9097C19.097 14.0691 19.115 14.262 18.9743 14.373C18.8501 14.4878 18.6673 14.455 18.5134 14.4659C18.0431 14.4534 17.572 14.4784 17.1025 14.455C16.9017 14.4534 16.7579 14.2519 16.7759 14.0605C16.7696 12.5761 16.7728 11.0909 16.7743 9.60579C16.7579 9.4222 16.8657 9.21829 17.0618 9.19016Z" fill="#26447E"/>
<path d="M21.2025 9.18661C21.6619 9.15692 22.1236 9.18661 22.5838 9.17332C22.765 9.1827 22.9884 9.14364 23.122 9.29911C23.2213 9.40067 23.2127 9.55145 23.2189 9.6827C23.2127 11.1429 23.2236 12.603 23.2142 14.0632C23.2384 14.2874 23.0369 14.4858 22.8134 14.46C22.2908 14.4647 21.7681 14.4694 21.2463 14.4577C21.0361 14.4663 20.8759 14.2655 20.8916 14.0655C20.8861 12.578 20.89 11.0905 20.89 9.60379C20.8728 9.41161 20.997 9.20145 21.2025 9.18661Z" fill="#26447E"/>
<path d="M25.2767 9.19329C25.8353 9.15579 26.3985 9.17845 26.9587 9.18079C27.1837 9.16751 27.3595 9.38392 27.3329 9.60189C27.3345 11.0894 27.3376 12.5784 27.3314 14.0667C27.3501 14.2761 27.1712 14.4761 26.9571 14.4589C26.4337 14.4675 25.9095 14.4667 25.386 14.4589C25.172 14.4777 24.9907 14.2808 25.0087 14.0714C25.0017 12.5831 25.0048 11.0941 25.0071 9.60579C24.9915 9.42767 25.0907 9.23157 25.2767 9.19329Z" fill="#26447E"/>
<path d="M12.9 15.8009C13.4399 15.7438 13.9875 15.7868 14.5313 15.7759C14.7633 15.743 15.0016 15.9212 14.9813 16.1673C14.9883 17.6532 14.9836 19.1407 14.9828 20.6274C15.0125 20.8477 14.8406 21.0743 14.6102 21.0618C14.0625 21.0688 13.5141 21.0798 12.9672 21.0555C12.7586 21.0383 12.6352 20.8204 12.657 20.6258C12.6539 19.1657 12.6563 17.7055 12.6555 16.2454C12.6406 16.0665 12.711 15.8571 12.9 15.8009Z" fill="#26447E"/>
<path d="M16.9767 15.8167C17.3259 15.73 17.6946 15.7933 18.0525 15.7753C18.3118 15.7784 18.5735 15.7574 18.8314 15.7949C19.0345 15.837 19.1181 16.0581 19.1009 16.2464C19.1009 17.7058 19.1025 19.1659 19.1001 20.6253C19.1251 20.8386 18.9743 21.0636 18.747 21.0605C18.2275 21.0761 17.7071 21.0675 17.1884 21.0652C16.9775 21.0839 16.7657 20.9199 16.7782 20.6972C16.7634 19.2402 16.7798 17.7824 16.7704 16.3245C16.7657 16.1378 16.7782 15.9034 16.9767 15.8167Z" fill="#26447E"/>
<path d="M21.1094 15.81C21.6712 15.7358 22.2477 15.7881 22.8149 15.7795C23.0352 15.7569 23.2337 15.9498 23.2133 16.1717C23.2251 17.6037 23.211 19.0365 23.2204 20.4694C23.2102 20.6272 23.2407 20.8147 23.1235 20.942C22.986 21.1006 22.7579 21.0608 22.5719 21.0701C22.1282 21.0584 21.6844 21.0826 21.2407 21.06C21.0172 21.0639 20.8626 20.8381 20.8899 20.6279C20.8876 19.167 20.8907 17.7061 20.8883 16.2459C20.8758 16.074 20.9344 15.8772 21.1094 15.81Z" fill="#26447E"/>
<path d="M25.2462 15.8019C25.7868 15.7425 26.336 15.7878 26.8798 15.7761C27.111 15.7441 27.3501 15.9191 27.3306 16.1652C27.3392 17.6527 27.3337 19.1409 27.3329 20.6284C27.3618 20.848 27.1915 21.0738 26.961 21.062C26.436 21.073 25.9103 21.0714 25.3845 21.0628C25.1509 21.0761 24.9759 20.8503 25.0064 20.6269C25.0032 19.1667 25.0064 17.7066 25.0048 16.2472C24.9899 16.0683 25.0579 15.8597 25.2462 15.8019Z" fill="#26447E"/>
<path d="M12.9251 22.3949C13.4876 22.3597 14.054 22.3824 14.6181 22.3831C14.8439 22.3706 15.0095 22.5941 14.9829 22.8081C14.9845 24.2956 14.9876 25.7839 14.9814 27.2714C14.9978 27.4777 14.8235 27.6714 14.6134 27.6613C14.0899 27.6714 13.5649 27.6706 13.0415 27.6613C12.8259 27.6792 12.6399 27.4839 12.6595 27.2706C12.6517 25.7839 12.6564 24.2956 12.6571 22.8081C12.6423 22.6308 12.7392 22.4324 12.9251 22.3949Z" fill="#26447E"/>
<path d="M17.0595 22.3917C17.6212 22.3644 18.186 22.38 18.7485 22.3839C18.9735 22.3792 19.1243 22.6034 19.1001 22.8144C19.1009 24.2964 19.1048 25.7792 19.0978 27.2613C19.1165 27.4605 18.9595 27.662 18.7524 27.6581C18.2321 27.6761 17.711 27.6659 17.1899 27.6636C16.9626 27.6909 16.7509 27.4956 16.7759 27.2644C16.7688 25.7816 16.7735 24.298 16.7735 22.8152C16.7563 22.63 16.8603 22.4199 17.0595 22.3917Z" fill="#26447E"/>
<path d="M21.2001 22.3878C21.6587 22.3613 22.1196 22.3902 22.5798 22.3761C22.7626 22.3863 22.9884 22.3425 23.1235 22.5011C23.2384 22.6269 23.211 22.8105 23.2204 22.9675C23.211 24.3995 23.2243 25.8324 23.2142 27.2644C23.2298 27.4534 23.0876 27.6511 22.8899 27.6558C22.4478 27.6847 22.0048 27.655 21.5626 27.6691C21.3665 27.6566 21.122 27.7074 20.9798 27.537C20.8728 27.4222 20.8946 27.2542 20.8868 27.1113C20.8931 25.6784 20.8868 24.2449 20.89 22.812C20.872 22.6191 20.9915 22.4034 21.2001 22.3878Z" fill="#26447E"/>
<path d="M25.2758 22.3944C25.8344 22.3593 26.3977 22.3827 26.9579 22.3819C27.1875 22.3647 27.3625 22.5905 27.3329 22.8108C27.3368 24.2702 27.3329 25.7304 27.3344 27.1905C27.3571 27.389 27.2547 27.6296 27.0336 27.6522C26.5649 27.6882 26.0938 27.653 25.6243 27.6687C25.45 27.6569 25.236 27.6952 25.1071 27.5491C24.9883 27.4351 25.0125 27.2569 25.0032 27.1085C25.0094 25.6749 25.0016 24.2405 25.0063 22.8062C24.9922 22.6296 25.0899 22.4304 25.2758 22.3944Z" fill="#26447E"/>
<path d="M12.8431 29.0241C13.029 28.9506 13.2376 28.9834 13.4337 28.9756C13.8533 28.9905 14.2743 28.9553 14.6923 28.992C14.9126 29.0162 15.0064 29.2584 14.9853 29.4545C14.9829 30.9139 14.9868 32.3725 14.9837 33.8319C15.0118 34.0491 14.8408 34.2741 14.6118 34.26C14.0884 34.2686 13.5634 34.267 13.0392 34.2608C12.804 34.2787 12.6259 34.0514 12.6572 33.8256C12.6525 32.392 12.6595 30.9584 12.6533 29.5256C12.6517 29.3436 12.6564 29.1186 12.8431 29.0241Z" fill="#26447E"/>
<path d="M25.247 29.0019C25.8134 28.9519 26.3868 28.9839 26.9556 28.9831C27.1681 28.9652 27.3478 29.162 27.3306 29.3706C27.3392 30.8574 27.3337 32.3449 27.3329 33.8324C27.3603 34.0511 27.1876 34.2761 26.9571 34.2605C26.4329 34.2691 25.9079 34.2675 25.3837 34.2613C25.154 34.2769 24.9782 34.055 25.0071 33.8347C25.0024 32.373 25.0064 30.9113 25.0048 29.4495C24.9899 29.2699 25.0579 29.0589 25.247 29.0019Z" fill="#26447E"/>
<path d="M1.36952 21.0637C1.37265 20.2582 1.36093 19.4527 1.37655 18.648C2.09765 18.6488 2.81952 18.6488 3.54062 18.6473C3.55077 19.4535 3.55468 20.2605 3.53905 21.0668C2.81562 21.0637 2.09296 21.0684 1.36952 21.0637Z" fill="#91C7EE"/>
<path d="M29.6508 18.6527C30.3742 18.6449 31.0969 18.6512 31.8203 18.6465C31.8297 19.4535 31.8336 20.2613 31.818 21.0684C31.0961 21.0645 30.3742 21.066 29.6523 21.0652C29.6609 20.2605 29.6617 19.4566 29.6508 18.6527Z" fill="#91C7EE"/>
<path d="M1.36958 22.3789C2.09302 22.3742 2.81568 22.3789 3.53833 22.375C3.55474 23.1812 3.55318 23.9883 3.5399 24.7945C2.81802 24.7914 2.09615 24.7945 1.37427 24.793C1.36412 23.9883 1.37115 23.1836 1.36958 22.3789Z" fill="#91C7EE"/>
<path d="M29.6539 22.3777C30.357 22.3762 31.0601 22.3801 31.7641 22.373C31.8016 22.5441 31.8383 22.7168 31.8328 22.8941C31.8203 23.5277 31.8336 24.1621 31.8211 24.7965C31.0984 24.791 30.3758 24.7965 29.6539 24.791C29.6602 23.9863 29.6602 23.1816 29.6539 22.3777Z" fill="#91C7EE"/>
<path d="M1.3742 26.1035C2.09608 26.1051 2.81795 26.1035 3.53983 26.1043C3.55389 26.9098 3.55077 27.716 3.54217 28.5215C3.00155 28.5191 2.46014 28.5199 1.91952 28.5207C1.72499 28.0926 1.53436 27.6621 1.36561 27.223C1.35936 26.8496 1.37342 26.4762 1.3742 26.1035Z" fill="#91C7EE"/>
<path d="M29.6531 26.1066C30.375 26.1035 31.0969 26.1066 31.8195 26.1035C31.8328 26.909 31.8289 27.7152 31.8211 28.5215C31.0976 28.5207 30.375 28.5254 29.6516 28.5184C29.6617 27.7145 29.6601 26.9105 29.6531 26.1066Z" fill="#91C7EE"/>
<path d="M16.0664 29.1207C16.7336 29.109 17.4 29.1176 18.0672 29.1105C18.0711 29.3793 18.1 29.6512 18.0523 29.9176C17.9492 30.1418 17.7422 30.2926 17.5765 30.4676C17.068 30.952 16.6047 31.484 16.0648 31.934C16.0633 30.9965 16.057 30.0582 16.0664 29.1207Z" fill="#91C7EE"/>
<path d="M2.60083 29.8367C2.91411 29.832 3.22739 29.8305 3.54146 29.8312C3.55005 30.318 3.57036 30.807 3.50942 31.2922C3.18911 30.818 2.88755 30.3312 2.60083 29.8367Z" fill="#91C7EE"/>
<path d="M29.6516 29.8359C30.375 29.8305 31.0985 29.8352 31.8219 29.832C31.8297 30.6383 31.8329 31.4445 31.8196 32.2508C31.0969 32.2492 30.375 32.2508 29.6532 32.2484C29.6602 31.4445 29.6618 30.6398 29.6516 29.8359Z" fill="#91C7EE"/>
<path d="M29.6531 33.5652C30.375 33.5582 31.0976 33.5645 31.8203 33.5598C31.8351 34.3434 31.8226 35.1277 31.8265 35.9113C31.875 35.9277 31.9711 35.9598 32.0195 35.9754C32.0039 35.9871 31.9726 36.0105 31.957 36.0223C31.1945 35.9363 30.425 35.9941 29.6594 35.9824C29.6531 35.1762 29.664 34.3707 29.6531 33.5652Z" fill="#91C7EE"/>
<path d="M16.0625 36.9809C16.7492 36.3512 17.3609 35.6426 18.0633 35.0301C18.0695 35.2262 18.0922 35.4262 18.057 35.6215C17.9844 35.8004 17.8297 35.927 17.6992 36.0637C17.1469 36.5941 16.6242 37.1559 16.0625 37.677C16.0625 37.4449 16.0625 37.2129 16.0625 36.9809Z" fill="#91C7EE"/>
<path d="M18.9187 37.6707L18.9422 37.6473C19.4734 37.7066 20.0086 37.6777 20.5422 37.6824C21.6766 37.6824 22.8101 37.6832 23.9437 37.6816C23.9383 38.3246 23.9398 38.9684 23.9336 39.6121C22.7078 39.8527 21.4601 39.9824 20.2109 39.9996H19.6562C18.7023 39.9723 17.75 39.8934 16.807 39.7441C17.5297 39.0723 18.1945 38.3402 18.9187 37.6707Z" fill="#91C7EE"/>
<path d="M3.54053 18.6473C5.8085 18.6512 8.07725 18.6465 10.3452 18.6496C10.3476 19.4551 10.3405 20.2605 10.3483 21.0652C8.07881 21.0668 5.8085 21.0637 3.53897 21.0668C3.5546 20.2605 3.55069 19.4535 3.54053 18.6473Z" fill="#CCE1FE"/>
<path d="M31.8202 18.6465C34.0897 18.6527 36.3593 18.6465 38.6296 18.6496C38.6343 19.452 38.6249 20.2543 38.6343 21.0559C36.3624 21.0801 34.0897 21.0566 31.8179 21.0684C31.8335 20.2613 31.8296 19.4535 31.8202 18.6465Z" fill="#CCE1FE"/>
<path d="M3.53809 22.375C5.8084 22.3789 8.07871 22.3758 10.349 22.3766C10.3428 23.182 10.3436 23.9867 10.3482 24.7914C8.07871 24.7961 5.80918 24.7906 3.53965 24.7945C3.55293 23.9883 3.55449 23.1812 3.53809 22.375Z" fill="#CCE1FE"/>
<path d="M31.764 22.373C34.053 22.3848 36.3421 22.3699 38.6312 22.3809C38.6288 23.1848 38.6327 23.9887 38.6296 24.7934C36.3601 24.7965 34.0905 24.7902 31.821 24.7965C31.8335 24.1621 31.8202 23.5277 31.8327 22.8941C31.8382 22.7168 31.8015 22.5441 31.764 22.373Z" fill="#CCE1FE"/>
<path d="M3.53975 26.1043C5.81006 26.1066 8.07959 26.1035 10.3491 26.1059C10.3429 26.9105 10.3429 27.716 10.3491 28.5207C8.08037 28.5238 5.81084 28.5215 3.54209 28.5215C3.55069 27.716 3.55381 26.9098 3.53975 26.1043Z" fill="#CCE1FE"/>
<path d="M31.8194 26.1035C34.089 26.1043 36.3593 26.1035 38.6288 26.1035C38.6265 26.4777 38.6382 26.852 38.6327 27.2262C38.4632 27.6645 38.2741 28.0949 38.0788 28.5215C35.9929 28.5199 33.9069 28.5191 31.821 28.5215C31.8288 27.7152 31.8327 26.909 31.8194 26.1035Z" fill="#CCE1FE"/>
<path d="M18.0671 29.1105C18.3366 29.1121 18.6054 29.1152 18.8757 29.1168C18.6757 29.3816 18.4257 29.6004 18.2069 29.8488C18.0522 30.0168 18.0851 30.2605 18.0765 30.4707C18.0937 31.9574 18.0733 33.4449 18.0866 34.9316C18.8108 34.2855 19.4647 33.566 20.1608 32.8918C21.2671 31.784 22.3749 30.6785 23.4788 29.5699C23.6241 29.4285 23.7819 29.3012 23.9319 29.1652C23.9312 29.4074 23.939 29.6488 23.9382 29.891C23.4491 30.3074 23.0194 30.7863 22.5593 31.2332C21.2952 32.4965 20.0319 33.7598 18.7687 35.0246C18.5405 35.2785 18.2116 35.4762 18.0937 35.809C18.0577 36.4137 18.096 37.0223 18.0812 37.6285C18.3601 37.6402 18.6397 37.6535 18.9187 37.6707C18.1944 38.3402 17.5296 39.0723 16.8069 39.7441C16.5585 39.7004 16.3101 39.6535 16.0624 39.6066C16.0608 38.9637 16.0616 38.3207 16.0624 37.677C16.6241 37.1559 17.1468 36.5941 17.6991 36.0637C17.8296 35.927 17.9843 35.8004 18.0569 35.6215C18.0921 35.4262 18.0694 35.2262 18.0632 35.0301C17.3608 35.6426 16.7491 36.3512 16.0624 36.9809C16.0632 35.2988 16.0585 33.616 16.0647 31.934C16.6046 31.484 17.0679 30.952 17.5765 30.4676C17.7421 30.2926 17.9491 30.1418 18.0523 29.9176C18.0999 29.6512 18.071 29.3793 18.0671 29.1105Z" fill="#CCE1FE"/>
<path d="M3.54131 29.832C5.81006 29.8359 8.07881 29.8312 10.3476 29.8344C10.3444 30.6391 10.3421 31.4438 10.3491 32.2492C8.30147 32.2516 6.25303 32.2477 4.20537 32.2508C3.96631 31.9367 3.7335 31.618 3.50928 31.293C3.57021 30.8078 3.5499 30.3187 3.54131 29.832Z" fill="#CCE1FE"/>
<path d="M31.8217 29.832C33.6811 29.8352 35.5412 29.8289 37.4006 29.8352C36.9225 30.6766 36.3857 31.4844 35.7951 32.25C34.4693 32.2484 33.1443 32.2477 31.8193 32.2508C31.8326 31.4445 31.8295 30.6383 31.8217 29.832Z" fill="#CCE1FE"/>
<path d="M23.3577 33.2027C23.5374 33.016 23.7327 32.8457 23.9358 32.6855C23.9444 34.3504 23.9296 36.016 23.9437 37.6816C22.8101 37.6832 21.6765 37.6824 20.5421 37.6824C20.0085 37.6777 19.4733 37.7066 18.9421 37.6473C20.3905 36.1426 21.8944 34.6934 23.3577 33.2027Z" fill="#CCE1FE"/>
<path d="M5.32022 33.566C6.99678 33.5582 8.67257 33.5621 10.3483 33.5637C10.3413 34.3691 10.3476 35.1746 10.3452 35.9801C9.56397 35.984 8.78272 35.9629 8.00303 35.9934C7.04131 35.2629 6.1421 34.4512 5.32022 33.566Z" fill="#CCE1FE"/>
<path d="M31.8202 33.5598C32.7733 33.5668 33.7265 33.5559 34.6796 33.566C33.8663 34.4457 32.9726 35.2496 32.0194 35.9754C31.971 35.9598 31.8749 35.9277 31.8265 35.9113C31.8226 35.1277 31.8351 34.3434 31.8202 33.5598Z" fill="#CCE1FE"/>
</g>
<defs>
<clipPath id="clip0_1_5289">
<rect width="40" height="40" fill="white"/>
</clipPath>
</defs>
</svg>
