
<svg width="40" height="40" viewBox="0 0 40 40" fill="none" xmlns="http://www.w3.org/2000/svg">
<path d="M10.1875 1.91955C11.35 1.64845 12.6047 2.50861 12.7789 3.68673C13.0164 4.85626 12.1187 6.08751 10.9359 6.22658C9.78359 6.42423 8.59765 5.53205 8.46015 4.37267C8.27265 3.26564 9.08515 2.11955 10.1875 1.91955Z" fill="#CB9044"/>
<path d="M4.94139 12.2074C5.51796 11.6011 6.34608 11.2503 7.18202 11.2511C9.16249 11.2464 11.1437 11.2519 13.1242 11.2488C13.4844 11.2456 13.8492 11.2535 14.1992 11.3464C15.2726 11.6019 16.1656 12.4816 16.4484 13.5472C16.5547 13.9175 16.568 14.305 16.5633 14.6878C16.5617 16.666 16.5617 18.6449 16.5633 20.623C16.9961 20.6331 17.4742 20.5605 17.8539 20.8191C18.2187 21.041 18.4125 21.4535 18.4539 21.8667C17.8242 21.8847 17.1937 21.8683 16.5633 21.8761C16.5609 25.6511 16.5633 29.4269 16.5625 33.2027C16.5594 33.7238 16.6062 34.2667 16.3992 34.7597C16.0672 35.6386 15.1656 36.2574 14.225 36.248C11.643 36.2519 9.06171 36.248 6.47968 36.2503C5.87889 36.262 5.27421 36.048 4.83202 35.6378C4.34686 35.2042 4.06327 34.5613 4.06327 33.9113C4.06014 29.8995 4.06483 25.8878 4.06171 21.8753C3.43124 21.8683 2.80077 21.8839 2.17108 21.8675C2.21249 21.4535 2.39999 21.0363 2.76952 20.8175C3.15077 20.562 3.62811 20.6331 4.06171 20.623C4.06561 18.5386 4.05936 16.4542 4.06405 14.3691C4.06405 13.5706 4.38046 12.7777 4.94139 12.2074ZM9.34608 18.187C7.85546 18.3683 6.46327 19.0472 5.31561 20.0011C5.93671 21.0425 6.55936 22.0831 7.18827 23.1199C9.17421 22.3292 11.4508 22.3285 13.4367 23.1199C14.0656 22.0831 14.6875 21.0417 15.3101 20.0003C14.9711 19.737 14.6297 19.4761 14.2648 19.2503C12.8117 18.3449 11.043 17.962 9.34608 18.187ZM5.32108 22.5261C5.30233 23.9745 5.31718 25.4245 5.31327 26.8738C5.62499 26.8753 5.93749 26.8753 6.24921 26.8738C6.24999 26.3519 6.25233 25.8308 6.24921 25.3089C6.24374 24.316 5.92889 23.316 5.32108 22.5261ZM14.5961 23.898C14.2719 24.8574 14.4 25.8808 14.3758 26.8738C14.6875 26.8753 15 26.8753 15.3117 26.8738C15.3086 25.4245 15.3226 23.9761 15.3047 22.5277C14.9851 22.9347 14.7523 23.4058 14.5961 23.898ZM5.31327 28.1253C5.31639 29.366 5.30233 30.6074 5.3203 31.848C5.76952 31.2652 6.0578 30.566 6.18124 29.8425C6.2828 29.2761 6.24374 28.698 6.24921 28.1253C5.93749 28.1238 5.62499 28.1238 5.31327 28.1253ZM14.3758 28.1253C14.382 28.698 14.3414 29.2761 14.443 29.8425C14.5664 30.5652 14.8547 31.2652 15.3047 31.8464C15.3226 30.6066 15.3086 29.366 15.3117 28.1253C15 28.1238 14.6875 28.1238 14.3758 28.1253ZM7.81717 29.9972C7.39374 31.0363 6.98124 32.0792 6.56561 33.1214C7.58046 33.4261 8.61874 33.6824 9.68202 33.73C11.1656 33.8331 12.6469 33.5636 14.0594 33.1253C13.6469 32.0824 13.2328 31.0394 12.8086 30.0019C11.9016 30.0941 10.9922 30.1824 10.0789 30.1613C9.32186 30.1605 8.56952 30.0683 7.81717 29.9972Z" fill="#CB9044"/>
<path d="M28.9344 1.89921C30.1367 1.76484 31.3976 2.19922 32.2414 3.07109C32.4672 3.26484 32.2476 3.6625 31.9648 3.59453C31.7844 3.52812 31.6617 3.36796 31.5117 3.25546C30.5086 2.42734 29.0179 2.26797 27.8586 2.85468C27.4953 3.01875 27.1945 3.28203 26.8929 3.53672C26.6453 3.76093 26.2406 3.35859 26.4656 3.11093C27.1031 2.425 28.0062 2.00234 28.9344 1.89921Z" fill="#344C80"/>
<path d="M28.8585 3.17144C29.7522 3.00112 30.7296 3.298 31.3608 3.95581C31.5296 4.10347 31.4561 4.41519 31.2389 4.46987C31.0171 4.54956 30.8671 4.32378 30.7077 4.21362C29.9444 3.58784 28.746 3.60034 27.996 4.24331C27.8538 4.34644 27.7116 4.53862 27.5124 4.46675C27.2897 4.41675 27.2124 4.09956 27.3843 3.95112C27.778 3.54644 28.3046 3.27534 28.8585 3.17144Z" fill="#344C80"/>
<path d="M29.086 4.39969C29.5985 4.30125 30.1712 4.48094 30.5118 4.88172C30.697 5.11297 30.397 5.47781 30.1384 5.33484C29.8868 5.16609 29.622 4.95828 29.2977 5.00437C29.0071 5.00984 28.8001 5.22937 28.5587 5.35515C28.2954 5.44812 28.0548 5.09656 28.2282 4.87937C28.4438 4.62234 28.7602 4.46375 29.086 4.39969Z" fill="#344C80"/>
<path d="M29.2523 5.64802C29.4679 5.53865 29.7328 5.77302 29.6773 5.99959C29.6414 6.20584 29.3703 6.33084 29.1992 6.19802C28.9875 6.07771 29.0257 5.73006 29.2523 5.64802Z" fill="#344C80"/>
<path d="M1.87586 7.50116C7.70867 7.50116 13.5415 7.50116 19.3743 7.50116C19.3751 7.91757 19.3751 8.33319 19.3743 8.7496C13.5415 8.7496 7.70867 8.7496 1.87586 8.7496C1.87508 8.33319 1.87508 7.91757 1.87586 7.50116Z" fill="#344C80"/>
<path d="M20.6259 7.50116C26.4587 7.50116 32.2915 7.50116 38.1243 7.50116C38.1251 7.91757 38.1251 8.33319 38.1243 8.7496C32.2915 8.7496 26.4587 8.7496 20.6259 8.7496C20.6251 8.33319 20.6251 7.91757 20.6259 7.50116Z" fill="#344C80"/>
<path d="M0.939831 9.92084C0.914831 9.6724 1.23514 9.52006 1.42655 9.6599C1.55077 9.72396 1.56874 9.87631 1.55936 10.0005C1.53905 10.5208 1.53671 11.0412 1.54139 11.5622C1.54139 19.9216 1.54218 28.281 1.54139 36.6404C1.53514 37.1341 1.5453 37.6287 1.55468 38.1224C1.58124 38.363 1.26327 38.5341 1.07499 38.3833C0.956238 38.3185 0.9328 38.174 0.936706 38.0521C0.939831 28.6747 0.933581 19.2974 0.939831 9.92084Z" fill="#344C80"/>
<path d="M19.0655 10.0004C19.0124 9.77931 19.2139 9.559 19.4389 9.6129C19.6202 9.64025 19.7093 9.82462 19.6882 9.99415C19.6866 19.3465 19.6874 28.6996 19.6882 38.052C19.6991 38.1957 19.6421 38.3574 19.4968 38.4113C19.3085 38.5106 19.0413 38.3387 19.0694 38.1223C19.0999 36.2488 19.0757 34.3738 19.0835 32.4996C19.0835 25.7551 19.0835 19.0098 19.0835 12.2652C19.0804 11.5106 19.0968 10.7551 19.0655 10.0004Z" fill="#344C80"/>
<path d="M20.3148 9.92029C20.2703 9.56013 20.8898 9.49294 20.918 9.84763C20.9141 16.9297 20.918 24.0117 20.9164 31.0937C20.925 33.4367 20.8992 35.7804 20.9297 38.1226C20.9562 38.3633 20.6375 38.5343 20.45 38.3828C20.3312 38.3187 20.3078 38.1734 20.3117 38.0523C20.3148 28.675 20.3086 19.2976 20.3148 9.92029Z" fill="#344C80"/>
<path d="M38.4571 9.84731C38.4641 9.63247 38.7672 9.54106 38.9274 9.6606C39.0492 9.7231 39.0656 9.87231 39.0633 9.99419C39.0594 19.3715 39.0672 28.7481 39.0594 38.1254C39.0867 38.5293 38.4047 38.5293 38.4446 38.1223C38.4758 34.3473 38.4492 30.5723 38.4586 26.7965C38.4571 21.1465 38.4602 15.4965 38.4571 9.84731Z" fill="#344C80"/>
<path d="M25.0016 16.2516C26.668 16.2414 28.3344 16.2531 30.0008 16.2461C31.0391 16.2406 32.0711 16.6914 32.7656 17.4656C33.5805 18.3344 33.9289 19.6125 33.6719 20.775C33.4055 22.1109 32.3438 23.2484 31.0313 23.6094C30.393 23.8047 29.7195 23.7461 29.0625 23.7523C28.1273 23.7555 27.1914 23.7445 26.257 23.757C26.2422 25.8367 26.2609 27.9172 26.2484 29.9976C25.8328 30.0094 25.4172 30.0094 25.0016 29.9976C24.9961 25.4156 24.9953 20.8336 25.0016 16.2516ZM26.257 17.507C26.2484 19.1687 26.2492 20.8312 26.2562 22.493C27.4523 22.5047 28.6492 22.4945 29.8453 22.4992C30.3422 22.5062 30.85 22.4047 31.2773 22.1422C31.9992 21.7219 32.4703 20.9141 32.4945 20.0805C32.5328 19.1336 31.9797 18.1898 31.1258 17.775C30.7094 17.5531 30.2312 17.4867 29.7648 17.5C28.5961 17.5078 27.4266 17.4937 26.257 17.507Z" fill="#344C80"/>
<path d="M20.918 9.84764C26.7641 9.84139 32.611 9.84139 38.457 9.84764C38.4602 15.4969 38.457 21.1469 38.4586 26.7969C38.4492 30.5726 38.4758 34.3476 38.4445 38.1226C32.6063 38.1266 26.768 38.1266 20.9297 38.1226C20.8992 35.7805 20.925 33.4367 20.9164 31.0937C20.918 24.0117 20.9141 16.9297 20.918 9.84764ZM25.0016 16.2516C24.9953 20.8336 24.9961 25.4156 25.0016 29.9976C25.4172 30.0094 25.8328 30.0094 26.2485 29.9976C26.261 27.9172 26.2422 25.8367 26.257 23.757C27.1914 23.7445 28.1274 23.7555 29.0625 23.7523C29.7195 23.7461 30.393 23.8047 31.0313 23.6094C32.3438 23.2484 33.4055 22.1109 33.6719 20.775C33.9289 19.6125 33.5805 18.3344 32.7656 17.4656C32.0711 16.6914 31.0391 16.2406 30.0008 16.2461C28.3344 16.2531 26.668 16.2414 25.0016 16.2516Z" fill="#E6ECFF"/>
<path d="M1.55938 10.0004C7.39454 9.99882 13.2305 9.99882 19.0656 10.0004C19.0969 10.7551 19.0805 11.5105 19.0836 12.2652C19.0836 19.0098 19.0836 25.7551 19.0836 32.4996C19.0758 34.3738 19.1 36.2488 19.0695 38.1223C13.2313 38.1262 7.39297 38.1262 1.55469 38.1223C1.54532 37.6285 1.53516 37.134 1.54141 36.6402C1.54219 28.2808 1.54141 19.9215 1.54141 11.5621C1.53672 11.041 1.53907 10.5207 1.55938 10.0004ZM4.94141 12.2074C4.38047 12.7777 4.06407 13.5707 4.06407 14.3691C4.05938 16.4543 4.06563 18.5387 4.06172 20.623C3.62813 20.6332 3.15079 20.5621 2.76954 20.8176C2.40001 21.0363 2.21251 21.4535 2.1711 21.8676C2.80079 21.884 3.43126 21.8683 4.06172 21.8754C4.06485 25.8879 4.06016 29.8996 4.06329 33.9113C4.06329 34.5613 4.34688 35.2043 4.83204 35.6379C5.27422 36.048 5.87891 36.2621 6.47969 36.2504C9.06172 36.248 11.643 36.2519 14.225 36.248C15.1656 36.2574 16.0672 35.6387 16.3992 34.7598C16.6063 34.2668 16.5594 33.7238 16.5625 33.2027C16.5633 29.4269 16.5609 25.6512 16.5633 21.8762C17.1938 21.8683 17.8242 21.8848 18.4539 21.8668C18.4125 21.4535 18.2188 21.041 17.8539 20.8191C17.4742 20.5605 16.9961 20.6332 16.5633 20.623C16.5617 18.6449 16.5617 16.666 16.5633 14.6879C16.568 14.3051 16.5547 13.9176 16.4484 13.5473C16.1656 12.4816 15.2727 11.6019 14.1992 11.3465C13.8492 11.2535 13.4844 11.2457 13.1242 11.2488C11.1438 11.2519 9.16251 11.2465 7.18204 11.2512C6.3461 11.2504 5.51797 11.6012 4.94141 12.2074Z" fill="#E6ECFF"/>
<path d="M26.257 17.507C27.4266 17.4937 28.5961 17.5078 29.7649 17.5C30.2313 17.4867 30.7094 17.5531 31.1258 17.775C31.9797 18.1898 32.5328 19.1336 32.4945 20.0804C32.4703 20.914 31.9992 21.7218 31.2774 22.1422C30.85 22.4047 30.3422 22.5062 29.8453 22.4992C28.6492 22.4945 27.4524 22.5047 26.2563 22.4929C26.2492 20.8312 26.2485 19.1687 26.257 17.507Z" fill="#E6ECFF"/>
<path d="M9.34614 18.187C11.043 17.962 12.8118 18.3449 14.2649 19.2503C14.6297 19.4761 14.9711 19.737 15.3102 20.0003C14.6875 21.0417 14.0657 22.0831 13.4368 23.1199C11.4508 22.3284 9.17427 22.3292 7.18833 23.1199C6.55942 22.0831 5.93677 21.0425 5.31567 20.0011C6.46333 19.0472 7.85552 18.3683 9.34614 18.187Z" fill="#E6ECFF"/>
<path d="M5.32125 22.5264C5.92906 23.3162 6.24391 24.3162 6.24938 25.3092C6.2525 25.8311 6.25016 26.3521 6.24938 26.874C5.93766 26.8756 5.62516 26.8756 5.31344 26.874C5.31735 25.4248 5.3025 23.9748 5.32125 22.5264Z" fill="#E6ECFF"/>
<path d="M14.596 23.8977C14.7523 23.4055 14.9851 22.9344 15.3046 22.5273C15.3226 23.9758 15.3085 25.4242 15.3117 26.8734C15 26.875 14.6874 26.875 14.3757 26.8734C14.3999 25.8805 14.2718 24.857 14.596 23.8977Z" fill="#E6ECFF"/>
<path d="M5.31334 28.1253C5.62506 28.1238 5.93756 28.1238 6.24928 28.1253C6.24381 28.698 6.28288 29.2761 6.18131 29.8425C6.05788 30.5659 5.76959 31.2652 5.32038 31.848C5.30241 30.6073 5.31647 29.3659 5.31334 28.1253Z" fill="#E6ECFF"/>
<path d="M14.3758 28.1253C14.6876 28.1238 15.0001 28.1238 15.3118 28.1253C15.3087 29.3659 15.3227 30.6066 15.3048 31.8464C14.8548 31.2652 14.5665 30.5652 14.443 29.8425C14.3415 29.2761 14.3821 28.698 14.3758 28.1253Z" fill="#E6ECFF"/>
<path d="M7.81724 29.9972C8.56958 30.0683 9.32192 30.1605 10.079 30.1613C10.9922 30.1823 11.9016 30.0941 12.8086 30.0019C13.2329 31.0394 13.6469 32.0823 14.0594 33.1253C12.6469 33.5636 11.1657 33.8331 9.68208 33.73C8.6188 33.6823 7.58052 33.4261 6.56567 33.1214C6.9813 32.0792 7.3938 31.0363 7.81724 29.9972Z" fill="#E6ECFF"/>
</svg>
