
<svg width="40" height="40" viewBox="0 0 40 40" fill="none" xmlns="http://www.w3.org/2000/svg">
<g clip-path="url(#clip0_1_5398)">
<path d="M18.0171 4.66758C20.9897 3.3918 23.964 2.1207 26.939 0.853516C26.9515 12.9645 26.939 25.0754 26.9452 37.1863C26.039 37.1871 25.1335 37.1863 24.2272 37.1863C24.2335 34.5512 24.228 31.916 24.2304 29.2809C24.521 29.2465 24.8218 29.2512 25.1038 29.1629C25.3843 29.048 25.4554 28.6387 25.2429 28.4277C25.0851 28.2395 24.8194 28.2887 24.6054 28.3012C22.9429 28.4715 21.2765 28.6129 19.6147 28.7848C19.2671 28.7887 19.046 29.2184 19.2476 29.5012C19.4132 29.7754 19.7757 29.6871 20.0437 29.7082C20.0452 32.2012 20.0343 34.6934 20.0491 37.1863C19.3741 37.1871 18.6999 37.1863 18.0257 37.1863C18.0226 28.8027 18.0296 20.4184 18.0218 12.0348C18.0163 9.57852 18.0257 7.12305 18.0171 4.66758ZM24.2468 5.19414C23.9272 5.34805 23.5772 5.4418 23.278 5.63477C23.2218 5.99336 23.2632 6.3582 23.2546 6.71914C23.2624 7.41914 23.239 8.11992 23.2663 8.81992C23.8429 8.61133 24.4171 8.39727 24.996 8.19492C25.1507 8.17539 25.1327 8.00898 25.1351 7.89336C25.1304 6.87305 25.1351 5.85352 25.1335 4.83398C24.8147 4.89102 24.5437 5.07617 24.2468 5.19414ZM22.6765 5.86211C22.6765 6.92539 22.6726 7.98945 22.6788 9.05273C22.8515 8.98633 23.0522 8.95898 23.1952 8.83555C23.2288 7.76914 23.2171 6.69805 23.2022 5.63086C23.0218 5.6957 22.846 5.77305 22.6765 5.86211ZM19.8429 7.08008C19.6679 7.14336 19.4851 7.19492 19.3265 7.29492C19.2538 7.39805 19.2968 7.53867 19.2819 7.65742C19.2968 8.54258 19.2679 9.42773 19.2976 10.3129C19.4843 10.2535 19.6679 10.1824 19.846 10.0988C20.3999 9.88086 20.9663 9.6957 21.5241 9.48867C21.5327 8.43945 21.5272 7.39102 21.5272 6.3418C20.9655 6.58711 20.4101 6.84727 19.8429 7.08008ZM24.2077 10.5262C23.8937 10.6379 23.571 10.7238 23.2663 10.8582C23.2491 11.9895 23.2413 13.1238 23.271 14.2551C23.896 14.102 24.5241 13.9473 25.1351 13.7457C25.1304 12.5723 25.1358 11.3996 25.1319 10.2262C24.8108 10.2832 24.514 10.4207 24.2077 10.5262ZM22.6796 11.0324C22.6726 12.1707 22.6757 13.309 22.6788 14.4473C22.8538 14.4059 23.0272 14.3582 23.1991 14.3051C23.2257 13.1559 23.2218 12.0051 23.2022 10.8559C23.0265 10.9098 22.8522 10.9684 22.6796 11.0324ZM19.8429 12.0035C19.6554 12.0504 19.4718 12.1098 19.2913 12.1793C19.2812 13.2535 19.2812 14.3277 19.2913 15.402C19.4788 15.3613 19.6632 15.3074 19.8444 15.2426C20.3991 15.0574 20.9812 14.9629 21.5288 14.7566C21.5265 13.6457 21.5312 12.534 21.5265 11.4223C20.9624 11.6082 20.4093 11.8262 19.8429 12.0035ZM23.303 16.2918C23.228 16.4176 23.2624 16.5793 23.2499 16.7207C23.2694 17.716 23.2304 18.7129 23.2702 19.7074C23.8937 19.6152 24.5171 19.509 25.1327 19.3707C25.1187 18.1895 25.1647 17.0043 25.1093 15.8246C24.5108 15.9934 23.9046 16.134 23.303 16.2918ZM22.6788 16.427C22.6733 17.566 22.6772 18.7051 22.6765 19.8441C22.8507 19.8191 23.0249 19.7902 23.1983 19.7559C23.2296 18.6066 23.2202 17.4551 23.2038 16.3051C23.028 16.3418 22.8522 16.3801 22.6788 16.427ZM19.8437 17.1316C19.6593 17.1676 19.4765 17.2105 19.2952 17.2613C19.2757 18.334 19.2843 19.4082 19.2913 20.4809C19.478 20.4598 19.6632 20.427 19.8444 20.3738C20.403 20.2527 20.9718 20.1871 21.5288 20.0605C21.5272 18.9473 21.5296 17.8332 21.528 16.7199C20.9616 16.8371 20.4116 17.0207 19.8437 17.1316ZM23.2757 21.7395C23.2343 22.8793 23.2499 24.0215 23.2687 25.1613C23.8913 25.1223 24.5171 25.0855 25.1343 24.9934C25.1163 23.8105 25.1655 22.6246 25.1093 21.4434C24.4991 21.5512 23.8905 21.6621 23.2757 21.7395ZM22.6796 21.8238C22.6726 22.9605 22.678 24.0965 22.6765 25.2332C22.8476 25.2277 23.0194 25.2199 23.1913 25.2113C23.2335 24.7793 23.2085 24.3449 23.2147 23.9121C23.2062 23.1887 23.2374 22.4652 23.196 21.7434C23.0233 21.7684 22.8507 21.7949 22.6796 21.8238ZM19.8437 22.2715C19.6585 22.2902 19.4741 22.3176 19.2913 22.3512C19.2812 23.4215 19.2819 24.4926 19.2905 25.5637C19.471 25.552 19.6522 25.541 19.8327 25.5301L19.8343 25.4809C20.3999 25.4738 20.9616 25.3957 21.5249 25.3559C21.5288 24.248 21.5226 23.1402 21.5288 22.0324C20.9608 22.0574 20.4093 22.2191 19.8437 22.2715Z" fill="#D1D1F0"/>
<path d="M26.939 0.853516C29.9093 2.13164 32.8882 3.39102 35.857 4.67227C35.8531 15.5105 35.8562 26.3488 35.8554 37.1871C32.8851 37.1855 29.9156 37.1863 26.9453 37.1863C26.939 25.0754 26.9515 12.9645 26.939 0.853516ZM28.932 4.55117C28.6531 4.70273 28.7023 5.05352 28.7007 5.31758C28.7047 15.1098 28.7007 24.902 28.7031 34.6941C28.6718 34.9559 28.8679 35.223 29.1398 35.2324C29.4375 35.2637 29.6797 34.9723 29.6398 34.6848C29.6398 24.9723 29.6398 15.2598 29.6398 5.54727C29.6375 5.31289 29.6546 5.07695 29.6234 4.84414C29.5687 4.5457 29.1843 4.38633 28.932 4.55117ZM31.1882 5.48867C30.9867 5.58086 30.9132 5.81133 30.9297 6.01914C30.9312 15.3934 30.9304 24.7676 30.9304 34.1426C30.9359 34.402 30.9062 34.6652 30.9586 34.9215C31.0484 35.2191 31.4609 35.334 31.6945 35.1293C31.9242 34.9512 31.8586 34.6316 31.8695 34.3785C31.8656 25.1082 31.8695 15.8371 31.8679 6.56602C31.864 6.30586 31.8859 6.04258 31.8492 5.78398C31.7882 5.50508 31.4375 5.35039 31.1882 5.48867ZM33.4531 6.42461C33.2406 6.50039 33.1398 6.73398 33.1578 6.94805C33.1593 16.091 33.1601 25.234 33.1578 34.3777C33.157 34.6574 33.1047 35.0371 33.4148 35.1824C33.7414 35.3668 34.1562 35.052 34.0961 34.6887C34.0976 25.4441 34.0961 16.1988 34.0968 6.9543C34.1586 6.60508 33.7882 6.27305 33.4531 6.42461Z" fill="#AEAED6"/>
<path d="M22.6765 5.86211C22.8461 5.77305 23.0218 5.6957 23.2023 5.63086C23.2172 6.69805 23.2289 7.76914 23.1953 8.83555C23.0523 8.95898 22.8515 8.98633 22.6789 9.05273C22.6726 7.98945 22.6765 6.92539 22.6765 5.86211Z" fill="#AEAED6"/>
<path d="M19.3265 7.29492C19.4851 7.19492 19.6679 7.14336 19.8429 7.08008C19.8445 8.08633 19.839 9.09258 19.846 10.0988C19.6679 10.1824 19.4843 10.2535 19.2976 10.3129C19.2679 9.42773 19.2968 8.54258 19.282 7.65742C19.2968 7.53867 19.2539 7.39805 19.3265 7.29492Z" fill="#AEAED6"/>
<path d="M22.6795 11.032C22.8522 10.968 23.0264 10.9094 23.2022 10.8555C23.2217 12.0047 23.2256 13.1555 23.1991 14.3047C23.0272 14.3578 22.8538 14.4055 22.6788 14.4469C22.6756 13.3086 22.6725 12.1703 22.6795 11.032Z" fill="#AEAED6"/>
<path d="M19.2913 12.1797C19.4718 12.1102 19.6554 12.0508 19.8429 12.0039C19.8437 13.0836 19.8405 14.1633 19.8444 15.243C19.6632 15.3078 19.4788 15.3617 19.2913 15.4023C19.2812 14.3281 19.2812 13.2539 19.2913 12.1797Z" fill="#AEAED6"/>
<path d="M22.6788 16.4266C22.8522 16.3797 23.028 16.3414 23.2038 16.3047C23.2202 17.4547 23.2295 18.6062 23.1983 19.7555C23.0248 19.7898 22.8506 19.8188 22.6764 19.8438C22.6772 18.7047 22.6733 17.5656 22.6788 16.4266Z" fill="#AEAED6"/>
<path d="M19.2953 17.2613C19.4765 17.2105 19.6593 17.1676 19.8437 17.1316C19.8429 18.2121 19.8406 19.2934 19.8445 20.3738C19.6633 20.4269 19.4781 20.4598 19.2914 20.4809C19.2843 19.4082 19.2758 18.334 19.2953 17.2613Z" fill="#AEAED6"/>
<path d="M22.6797 21.8238C22.8507 21.7949 23.0234 21.7684 23.1961 21.7434C23.2375 22.4652 23.2062 23.1887 23.2148 23.9121C23.2086 24.3449 23.2336 24.7793 23.1914 25.2113C23.0195 25.2199 22.8476 25.2277 22.6765 25.2332C22.6781 24.0965 22.6726 22.9605 22.6797 21.8238Z" fill="#AEAED6"/>
<path d="M19.2914 22.3512C19.4742 22.3176 19.6585 22.2902 19.8437 22.2715C19.8367 23.3418 19.8539 24.4113 19.8343 25.4809L19.8328 25.5301C19.6523 25.541 19.471 25.552 19.2906 25.5637C19.282 24.4926 19.2812 23.4215 19.2914 22.3512Z" fill="#AEAED6"/>
<path d="M19.6148 28.7848C21.2765 28.6129 22.9429 28.4715 24.6054 28.3012C24.8195 28.2887 25.0851 28.2395 25.2429 28.4277C25.4554 28.6387 25.3843 29.048 25.1039 29.1629C24.8218 29.2512 24.5211 29.2465 24.2304 29.2809C23.0656 29.3965 21.8984 29.4918 20.7343 29.6168C20.7328 32.1402 20.7359 34.6629 20.7328 37.1863C20.5046 37.1863 20.2765 37.1855 20.0492 37.1863C20.0343 34.6934 20.0453 32.2012 20.0437 29.7082C19.7757 29.6871 19.4132 29.7754 19.2476 29.5012C19.0461 29.2184 19.2671 28.7887 19.6148 28.7848Z" fill="#AEAED6"/>
<path d="M28.932 4.55078C29.1844 4.38594 29.5688 4.54531 29.6234 4.84375C29.6547 5.07656 29.6375 5.3125 29.6399 5.54687C29.6399 15.2594 29.6399 24.9719 29.6399 34.6844C29.6797 34.9719 29.4375 35.2633 29.1399 35.232C28.868 35.2227 28.6719 34.9555 28.7031 34.6937C28.7008 24.9016 28.7047 15.1094 28.7008 5.31719C28.7024 5.05312 28.6531 4.70234 28.932 4.55078Z" fill="#F3F3FF"/>
<path d="M24.2468 5.19328C24.5437 5.07531 24.8147 4.89015 25.1335 4.83312C25.1351 5.85265 25.1304 6.87218 25.1351 7.8925C25.1327 8.00812 25.1507 8.17453 24.996 8.19406C24.4171 8.3964 23.8429 8.61047 23.2663 8.81906C23.239 8.11906 23.2624 7.41828 23.2546 6.71828C23.2632 6.35734 23.2218 5.9925 23.278 5.6339C23.5772 5.44094 23.9272 5.34719 24.2468 5.19328Z" fill="#F3F3FF"/>
<path d="M31.1883 5.48828C31.4375 5.35 31.7883 5.50469 31.8492 5.78359C31.8859 6.04219 31.8641 6.30547 31.868 6.56562C31.8695 15.8367 31.8656 25.1078 31.8695 34.3781C31.8586 34.6312 31.9242 34.9508 31.6945 35.1289C31.4609 35.3336 31.0484 35.2187 30.9586 34.9211C30.9062 34.6648 30.9359 34.4016 30.9305 34.1422C30.9305 24.7672 30.9312 15.393 30.9297 6.01875C30.9133 5.81094 30.9867 5.58047 31.1883 5.48828Z" fill="#F3F3FF"/>
<path d="M19.8429 7.07922C20.4101 6.8464 20.9656 6.58625 21.5273 6.34093C21.5273 7.39015 21.5328 8.43859 21.5242 9.48781C20.9664 9.69484 20.4 9.88 19.8461 10.098C19.839 9.09172 19.8445 8.08547 19.8429 7.07922Z" fill="#F3F3FF"/>
<path d="M33.4532 6.42449C33.7884 6.27293 34.1587 6.60496 34.097 6.95418C34.0962 16.1987 34.0978 25.444 34.0962 34.6886C34.1564 35.0518 33.7415 35.3667 33.415 35.1823C33.1048 35.037 33.1572 34.6573 33.1579 34.3776C33.1603 25.2339 33.1595 16.0909 33.1579 6.94793C33.14 6.73387 33.2407 6.50028 33.4532 6.42449Z" fill="#F3F3FF"/>
<path d="M24.2078 10.5258C24.5141 10.4203 24.8109 10.2828 25.132 10.2258C25.1359 11.3992 25.1305 12.5719 25.1352 13.7453C24.5242 13.9469 23.8961 14.1016 23.2711 14.2547C23.2414 13.1234 23.2492 11.9891 23.2664 10.8578C23.5711 10.7234 23.8938 10.6375 24.2078 10.5258Z" fill="#F3F3FF"/>
<path d="M19.843 12.0031C20.4094 11.8258 20.9625 11.6078 21.5266 11.4219C21.5313 12.5336 21.5266 13.6453 21.5289 14.7563C20.9813 14.9625 20.3992 15.057 19.8445 15.2422C19.8406 14.1625 19.8438 13.0828 19.843 12.0031Z" fill="#F3F3FF"/>
<path d="M8.90548 14.5492C9.43283 14.3336 9.95236 14.1016 10.4781 13.882C10.4805 14.7992 10.4789 15.7164 10.4789 16.6336C9.9547 16.8266 9.42423 17.0008 8.90158 17.1961C8.90158 16.3273 8.89533 15.4578 8.9047 14.5891L8.90548 14.5492Z" fill="#F3F3FF"/>
<path d="M6.12729 15.7247C6.58276 15.5255 7.04135 15.3349 7.4976 15.1388C7.49526 15.9935 7.50776 16.8482 7.49135 17.7028C7.03666 17.8591 6.58198 18.0153 6.12807 18.1755C6.12651 17.37 6.12807 16.5638 6.12729 15.7591V15.7247Z" fill="#F3F3FF"/>
<path d="M23.3031 16.2914C23.9047 16.1336 24.5109 15.993 25.1094 15.8242C25.1648 17.0039 25.1188 18.1891 25.1328 19.3703C24.5172 19.5086 23.8937 19.6148 23.2703 19.707C23.2305 18.7125 23.2695 17.7156 23.25 16.7203C23.2625 16.5789 23.2281 16.4172 23.3031 16.2914Z" fill="#F3F3FF"/>
<path d="M19.8438 17.1316C20.4118 17.0206 20.9618 16.837 21.5282 16.7198C21.5297 17.8331 21.5274 18.9472 21.5289 20.0605C20.9719 20.187 20.4032 20.2527 19.8446 20.3737C19.8407 19.2933 19.843 18.212 19.8438 17.1316Z" fill="#F3F3FF"/>
<path d="M8.90075 18.8253C9.42887 18.6652 9.95231 18.4933 10.4781 18.3253C10.4812 19.3042 10.4773 20.2823 10.4797 21.2612C9.95544 21.398 9.42497 21.512 8.90153 21.6527C8.89919 20.7097 8.90075 19.7675 8.90075 18.8253Z" fill="#F3F3FF"/>
<path d="M6.12729 19.7042C6.58432 19.5589 7.04057 19.412 7.4976 19.2667C7.4976 20.1784 7.50073 21.0894 7.49604 22.0003C7.04135 22.1144 6.58432 22.2183 6.12885 22.3316C6.12573 21.4558 6.12885 20.58 6.12729 19.7042Z" fill="#F3F3FF"/>
<path d="M23.2758 21.7386C23.8906 21.6612 24.4992 21.5503 25.1094 21.4425C25.1656 22.6237 25.1164 23.8097 25.1344 24.9925C24.5172 25.0847 23.8914 25.1214 23.2688 25.1605C23.25 24.0206 23.2344 22.8784 23.2758 21.7386Z" fill="#F3F3FF"/>
<path d="M19.8437 22.2714C20.4093 22.2191 20.9609 22.0573 21.5289 22.0323C21.5226 23.1402 21.5289 24.248 21.5249 25.3558C20.9617 25.3956 20.3999 25.4737 19.8343 25.4808C19.8539 24.4112 19.8367 23.3417 19.8437 22.2714Z" fill="#F3F3FF"/>
<path d="M8.90163 23.2841C9.42741 23.1786 9.95319 23.0685 10.4782 22.9552C10.4735 23.9349 10.4938 24.9146 10.468 25.8935C9.94538 25.9646 9.42194 26.0255 8.90163 26.1091C8.90007 25.1669 8.90085 24.2255 8.90163 23.2841Z" fill="#F3F3FF"/>
<path d="M6.1297 23.855C6.58595 23.7605 7.0422 23.6675 7.49766 23.5675C7.49845 24.4792 7.49923 25.3902 7.49688 26.3011C7.04063 26.3636 6.58438 26.4245 6.12813 26.487C6.12813 25.6206 6.12579 24.7542 6.12891 23.887L6.1297 23.855Z" fill="#F3F3FF"/>
<path d="M20.7344 29.6164C21.8984 29.4914 23.0656 29.3961 24.2305 29.2805C24.2281 31.9156 24.2336 34.5508 24.2273 37.1859C23.0625 37.1859 21.8977 37.1867 20.7328 37.1859C20.7359 34.6625 20.7328 32.1398 20.7344 29.6164Z" fill="#F3F3FF"/>
<path d="M7.04916 31.0941C8.20932 30.9839 9.3687 30.8745 10.5289 30.7628C10.5281 32.9042 10.5289 35.0456 10.5281 37.1862C9.36869 37.1862 8.20932 37.1862 7.04994 37.187C7.04916 35.1558 7.04995 33.1253 7.04916 31.0941Z" fill="#F3F3FF"/>
<path d="M4.14764 14.0234C7.24217 12.7055 10.3375 11.3875 13.4258 10.0547C13.4289 19.0992 13.4211 28.143 13.4305 37.1867C12.4625 37.1859 11.4953 37.1875 10.5281 37.1859C10.5289 35.0453 10.5281 32.9039 10.5289 30.7625C10.864 30.693 11.2828 30.7945 11.55 30.5367C11.8258 30.2562 11.5719 29.7188 11.1773 29.7703C9.61483 29.9 8.05467 30.068 6.49296 30.2062C6.26092 30.2125 5.98905 30.2984 5.92421 30.5508C5.80546 30.8844 6.13436 31.2117 6.46717 31.1555C6.4578 33.1656 6.45624 35.1766 6.46796 37.1867C5.69374 37.1867 4.91952 37.1859 4.14452 37.1867C4.14608 29.4656 4.14061 21.7445 4.14764 14.0234ZM8.90546 14.5492L8.90467 14.5891C8.72264 14.6242 8.54686 14.6844 8.38592 14.7766C8.39217 15.6336 8.38514 16.4906 8.38983 17.3477C8.56561 17.3164 8.73749 17.2664 8.90155 17.1961C9.42421 17.0008 9.95467 16.8266 10.4789 16.6336C10.4789 15.7164 10.4805 14.7992 10.4781 13.882C9.95233 14.1016 9.4328 14.3336 8.90546 14.5492ZM6.12733 15.725V15.7594C5.94842 15.7852 5.77967 15.85 5.62499 15.9414C5.61249 16.743 5.60624 17.5453 5.62967 18.3469C5.79842 18.2984 5.96561 18.2422 6.12811 18.1758C6.58202 18.0156 7.03671 17.8594 7.49139 17.7031C7.5078 16.8484 7.4953 15.9938 7.49764 15.1391C7.04139 15.3352 6.5828 15.5258 6.12733 15.725ZM8.90077 18.8258C8.72655 18.8727 8.55546 18.932 8.38827 19C8.3953 19.9227 8.37577 20.8445 8.39764 21.7664C8.56717 21.7367 8.73592 21.6992 8.90155 21.6531C9.42499 21.5125 9.95546 21.3984 10.4797 21.2617C10.4773 20.2828 10.4812 19.3047 10.4781 18.3258C9.95233 18.4938 9.42889 18.6656 8.90077 18.8258ZM6.12733 19.7047C5.96092 19.7492 5.7953 19.7992 5.63124 19.8531C5.60546 20.7164 5.61092 21.5813 5.62811 22.4445C5.79686 22.4164 5.96483 22.3805 6.12889 22.332C6.58436 22.2188 7.04139 22.1148 7.49608 22.0008C7.50077 21.0898 7.49764 20.1789 7.49764 19.2672C7.04061 19.4125 6.58436 19.5594 6.12733 19.7047ZM8.90155 23.2844C8.72967 23.3117 8.55936 23.3477 8.39061 23.3898C8.38671 24.3148 8.39139 25.2406 8.38592 26.1664C8.55858 26.1531 8.73046 26.1367 8.90155 26.1094C9.42186 26.0258 9.9453 25.9648 10.468 25.8938C10.4937 24.9148 10.4734 23.9352 10.4781 22.9555C9.95311 23.0687 9.42733 23.1789 8.90155 23.2844ZM6.12967 23.8547L6.12889 23.8867C5.96483 23.8953 5.80077 23.9086 5.63749 23.9289C5.59842 24.8039 5.60858 25.682 5.63124 26.557C5.79686 26.5367 5.96249 26.5125 6.12811 26.4867C6.58436 26.4242 7.04061 26.3633 7.49686 26.3008C7.49921 25.3898 7.49842 24.4789 7.49764 23.5672C7.04217 23.6672 6.58592 23.7602 6.12967 23.8547Z" fill="#909CD1"/>
<path d="M13.4258 10.0547C14.8859 10.65 16.3266 11.293 17.7805 11.9023C17.8617 11.943 17.9578 11.9656 18.0219 12.0344C18.0297 20.418 18.0226 28.8023 18.0258 37.1859C16.4937 37.1867 14.9617 37.1859 13.4305 37.1867C13.4211 28.143 13.4289 19.0992 13.4258 10.0547Z" fill="#344C80"/>
<path d="M8.38593 14.7766C8.54686 14.6844 8.72264 14.6242 8.90468 14.5891C8.8953 15.4578 8.90155 16.3273 8.90155 17.1961C8.73749 17.2664 8.56561 17.3164 8.38983 17.3477C8.38514 16.4906 8.39218 15.6336 8.38593 14.7766Z" fill="#344C80"/>
<path d="M5.62503 15.9418C5.77972 15.8504 5.94847 15.7855 6.12737 15.7598C6.12816 16.5645 6.12659 17.3707 6.12816 18.1762C5.96566 18.2426 5.79847 18.2988 5.62972 18.3473C5.60628 17.5457 5.61253 16.7434 5.62503 15.9418Z" fill="#344C80"/>
<path d="M8.3882 19.0004C8.55539 18.9324 8.72648 18.873 8.9007 18.8262C8.9007 19.7684 8.89914 20.7105 8.90148 21.6535C8.73585 21.6996 8.5671 21.7371 8.39757 21.7668C8.3757 20.8449 8.39523 19.923 8.3882 19.0004Z" fill="#344C80"/>
<path d="M5.63134 19.8535C5.7954 19.7996 5.96102 19.7496 6.12743 19.7051C6.12899 20.5809 6.12587 21.4566 6.12899 22.3324C5.96493 22.3809 5.79696 22.4168 5.62821 22.4449C5.61102 21.5816 5.60555 20.7168 5.63134 19.8535Z" fill="#344C80"/>
<path d="M8.39061 23.3898C8.55936 23.3477 8.72968 23.3117 8.90155 23.2844C8.90077 24.2258 8.89999 25.1672 8.90155 26.1094C8.73046 26.1367 8.55858 26.1531 8.38593 26.1664C8.39139 25.2406 8.38671 24.3148 8.39061 23.3898Z" fill="#344C80"/>
<path d="M5.6375 23.9289C5.80078 23.9086 5.96484 23.8953 6.1289 23.8867C6.12578 24.7539 6.12812 25.6203 6.12812 26.4867C5.9625 26.5125 5.79687 26.5367 5.63125 26.557C5.60859 25.682 5.59844 24.8039 5.6375 23.9289Z" fill="#344C80"/>
<path d="M6.46718 31.1555C6.66093 31.1359 6.85468 31.1125 7.04921 31.0938C7.04999 33.125 7.04921 35.1555 7.04999 37.1867C6.85546 37.1859 6.66171 37.1867 6.46796 37.1867C6.45624 35.1766 6.4578 33.1656 6.46718 31.1555Z" fill="#344C80"/>
<path d="M6.49294 30.206C8.05466 30.0677 9.61482 29.8997 11.1773 29.7701C11.5718 29.7185 11.8258 30.256 11.55 30.5365C11.2828 30.7943 10.864 30.6927 10.5289 30.7622C9.36872 30.874 8.20935 30.9833 7.04919 31.0935C6.85466 31.1122 6.66091 31.1357 6.46716 31.1552C6.13435 31.2115 5.80544 30.8841 5.92419 30.5505C5.98904 30.2982 6.26091 30.2122 6.49294 30.206Z" fill="#3D4A75"/>
<path d="M0.903131 37.1867C1.9836 37.1859 3.06407 37.1867 4.14454 37.1867C4.91954 37.1859 5.69376 37.1867 6.46798 37.1867C6.66173 37.1867 6.85548 37.1859 7.05001 37.1867C8.20938 37.1859 9.36876 37.1859 10.5281 37.1859C11.4953 37.1875 12.4625 37.1859 13.4305 37.1867C14.9617 37.1859 16.4938 37.1867 18.0258 37.1859C18.7 37.1859 19.3742 37.1867 20.0492 37.1859C20.2766 37.1852 20.5047 37.1859 20.7328 37.1859C21.8977 37.1867 23.0625 37.1859 24.2274 37.1859C25.1336 37.1859 26.0391 37.1867 26.9453 37.1859C29.9156 37.1859 32.8852 37.1852 35.8555 37.1867C36.9359 37.1867 38.0164 37.1859 39.0969 37.1867C39.0969 37.5109 39.0984 37.8352 39.0953 38.1602C26.3649 38.1656 13.6352 38.1656 0.904694 38.1602C0.901569 37.8352 0.903131 37.5109 0.903131 37.1867Z" fill="#CB9044"/>
<path d="M0.881256 38.1602H0.904694C13.6352 38.1656 26.3649 38.1656 39.0953 38.1602H39.1188C39.1172 38.4867 39.118 38.8133 39.118 39.1398C26.3727 39.1406 13.6273 39.1406 0.882037 39.1398C0.882037 38.8133 0.882819 38.4867 0.881256 38.1602Z" fill="#D19458"/>
</g>
<defs>
<clipPath id="clip0_1_5398">
<rect width="40" height="40" fill="white"/>
</clipPath>
</defs>
</svg>
