
<svg width="40" height="40" viewBox="0 0 40 40" fill="none" xmlns="http://www.w3.org/2000/svg">
<g clip-path="url(#clip0_1_5075)">
<path d="M2.84532 7.77344C8.56251 5.45 14.2828 3.13438 19.9992 0.808594C25.5727 3.06406 31.1414 5.32969 36.7133 7.58906C37.1141 7.76562 37.5359 7.89453 37.9227 8.10313C37.1305 8.14453 36.3375 8.11719 35.5453 8.125C26.5086 8.125 17.4711 8.12578 8.43438 8.12422C6.37657 8.11562 4.31876 8.14453 2.26172 8.11094C2.21719 8.10938 2.12891 8.10547 2.08438 8.10391C2.32579 7.96719 2.58985 7.87813 2.84532 7.77344Z" fill="#3D4A75"/>
<path d="M14.1703 10.8027C14.3446 10.8011 14.5188 10.8003 14.693 10.8011C14.7602 11.4253 14.6703 12.0558 14.743 12.6792C18.2477 12.6753 21.7524 12.6745 25.2571 12.68H25.2836C25.2758 12.873 25.2594 13.0659 25.236 13.2581C21.5477 13.2456 17.8594 13.2558 14.1719 13.2527C14.1696 12.4362 14.1735 11.6198 14.1703 10.8027Z" fill="#3D4A75"/>
<path d="M1.97344 15.3691C2.76328 15.3707 3.55313 15.3762 4.34297 15.3699C4.34063 22.2887 4.3461 29.2074 4.33985 36.127C3.55313 36.127 2.76719 36.1215 1.98047 36.1293C1.96485 29.2098 1.97813 22.2895 1.97344 15.3691Z" fill="#3D4A75"/>
<path d="M35.6578 15.3703C36.4469 15.3726 37.2367 15.3726 38.0258 15.3703C38.0203 22.2906 38.0383 29.2117 38.0172 36.1312C37.2312 36.1195 36.4453 36.1289 35.6594 36.1265C35.6555 29.2078 35.6586 22.2891 35.6578 15.3703Z" fill="#3D4A75"/>
<path d="M0.861014 8.7418C0.840702 8.43789 1.09148 8.14102 1.40008 8.13164C1.6282 8.12227 1.85711 8.12227 2.08445 8.10352C2.12898 8.10508 2.21726 8.10898 2.2618 8.11055C2.27117 9.88633 2.26492 11.6621 2.26414 13.4379C2.25008 13.7004 2.36414 13.9824 2.60633 14.1074C2.85086 14.1777 3.11023 14.1504 3.3618 14.1543C15.2876 14.1449 27.2141 14.1613 39.1407 14.1473C39.1126 14.4973 39.2415 14.927 38.9594 15.2035C38.7118 15.448 38.3368 15.3496 38.0259 15.3699C37.2368 15.3723 36.447 15.3723 35.6579 15.3699C25.2196 15.3691 14.7813 15.3691 4.34305 15.3699C3.5532 15.3762 2.76336 15.3707 1.97351 15.3691C1.66258 15.3504 1.28914 15.448 1.04148 15.2043C0.848514 15.0348 0.853202 14.7629 0.857889 14.5285C0.862577 12.5996 0.855545 10.6707 0.861014 8.7418Z" fill="#525D91"/>
<path d="M2.26172 8.11133C4.31875 8.14492 6.37656 8.11602 8.43437 8.12461C17.4711 8.12617 26.5086 8.12539 35.5453 8.12539C36.3375 8.11758 37.1305 8.14492 37.9227 8.10352C38.2672 8.1793 38.6992 8.00352 38.9711 8.29102C39.0727 8.38945 39.1484 8.52148 39.1391 8.66758C39.143 10.4941 39.1398 12.3207 39.1406 14.148C27.2141 14.1621 15.2875 14.1457 3.36172 14.1551C3.11016 14.1512 2.85078 14.1785 2.60625 14.1082C2.36406 13.9832 2.25 13.7012 2.26406 13.4387C2.26484 11.6629 2.27109 9.88711 2.26172 8.11133ZM14.1703 10.8035C14.1734 11.6207 14.1695 12.4371 14.1719 13.2535C17.8594 13.2566 21.5477 13.2465 25.2359 13.259C25.2594 13.0668 25.2758 12.8738 25.2836 12.6809H25.257C25.2766 12.0543 25.2664 11.427 25.2625 10.8004C21.7625 10.8051 18.2625 10.8012 14.7625 10.802C14.7422 11.4277 14.7773 12.0551 14.743 12.6801C14.6703 12.0566 14.7602 11.4262 14.693 10.802C14.5188 10.8012 14.3445 10.802 14.1703 10.8035Z" fill="#5D689E"/>
<path d="M14.7625 10.8015C18.2625 10.8008 21.7625 10.8047 25.2625 10.8C25.2664 11.4266 25.2766 12.0539 25.257 12.6805C21.7524 12.675 18.2477 12.6758 14.743 12.6797C14.7774 12.0547 14.7422 11.4273 14.7625 10.8015Z" fill="#F0F0FF"/>
<path d="M28.9204 20.4044C29.1079 20.1653 29.5259 20.2591 29.5931 20.5544C29.6564 20.7442 29.5228 20.9106 29.3954 21.0341C28.6275 21.7958 27.8642 22.563 27.0994 23.3278C26.8415 23.5716 26.6103 23.8434 26.3376 24.0708C26.1533 24.2247 25.8603 24.1341 25.7626 23.9239C25.4345 23.3661 25.122 22.7981 24.7931 22.2403C24.7228 22.102 24.615 21.9551 24.6611 21.7919C24.7064 21.5809 24.9454 21.4411 25.1509 21.5091C25.3001 21.545 25.3759 21.6903 25.4509 21.8098C25.6994 22.2473 25.9494 22.6841 26.1994 23.1208C26.5087 22.8137 26.8158 22.5051 27.1236 22.1973C27.7236 21.6012 28.3173 20.9973 28.9204 20.4044Z" fill="#F0F0FF"/>
<path d="M23.311 19.0691C24.5813 18.6348 25.8595 18.2215 27.1259 17.7754C27.1188 19.2488 27.1228 20.723 27.1235 22.1973C26.8157 22.5051 26.5087 22.8137 26.1993 23.1207C25.9493 22.684 25.6993 22.2473 25.4509 21.8098C25.3759 21.6902 25.3001 21.5449 25.1509 21.509C24.9454 21.441 24.7063 21.5809 24.661 21.7918C24.6149 21.9551 24.7228 22.102 24.7931 22.2402C25.122 22.798 25.4345 23.366 25.7626 23.9238C25.8603 24.134 26.1532 24.2246 26.3376 24.0707C26.6103 23.8434 26.8415 23.5715 27.0993 23.3277C27.1438 24.041 27.1142 24.7559 27.1212 25.4699C27.1212 25.8988 27.1384 26.3293 27.0907 26.7566C26.5728 26.4723 26.0696 26.1629 25.572 25.8457C25.297 25.6668 25.0298 25.477 24.7688 25.2785C24.2618 24.8809 23.7657 24.423 23.5079 23.8199C23.3657 23.5043 23.3126 23.1559 23.3126 22.8121C23.3103 21.5645 23.3142 20.3168 23.311 19.0691Z" fill="#CB9044"/>
<path d="M27.1257 17.7754C28.4007 18.1879 29.6742 18.6113 30.9367 19.059C30.9711 20.3316 30.9476 21.609 30.9484 22.8832C30.9671 23.8832 30.2742 24.723 29.5093 25.2871C29.25 25.4879 28.9789 25.6723 28.7031 25.848C28.1695 26.1801 27.6359 26.5137 27.0851 26.8168L27.0906 26.7566C27.1382 26.3293 27.1211 25.8988 27.1211 25.4699C27.114 24.7559 27.1437 24.041 27.0992 23.3277C27.864 22.5629 28.6273 21.7957 29.3953 21.034C29.5226 20.9105 29.6562 20.7441 29.5929 20.5543C29.5257 20.259 29.1078 20.1652 28.9203 20.4043C28.3171 20.9973 27.7234 21.6012 27.1234 22.1973C27.1226 20.723 27.1187 19.2488 27.1257 17.7754Z" fill="#CB9044"/>
<path d="M14.6984 24C15.2859 24.0328 15.8773 23.9711 16.4632 24.0344C16.4445 24.682 16.4703 25.3297 16.4484 25.9773C16.1484 25.8469 15.8757 25.6438 15.5585 25.5602C15.257 25.6734 14.982 25.8477 14.6882 25.9797C14.6882 25.3406 14.6757 24.7008 14.6929 24.0617L14.6984 24Z" fill="#CB9044"/>
<path d="M12.518 17.9551C12.7453 17.9363 12.9734 17.9347 13.2016 17.9488C13.1969 19.7269 13.1984 21.5051 13.2047 23.2832C13.2063 23.5105 13.1953 23.7379 13.1797 23.9652C12.9711 23.991 12.7625 24.0129 12.5524 24.016H12.5297C12.5086 21.9965 12.532 19.9754 12.518 17.9551Z" fill="#96602A"/>
<path d="M12.5125 25.0816C12.5164 24.7316 12.4867 24.38 12.5508 24.0339C12.5844 26.0464 12.5594 28.0597 12.5633 30.0722C12.5453 32.073 12.5711 34.0769 12.5508 36.0769L12.5188 36.0886C12.5367 34.0777 12.518 32.066 12.5281 30.055C11.8188 30.0667 11.1086 30.0441 10.3992 30.0683C9.80859 30.0777 9.21797 30.0777 8.62734 30.0683C8.12656 30.0519 7.62578 30.0542 7.125 30.0597L7.12578 30.0191C8.21328 30.0042 9.3 30.0949 10.3875 30.0433C11.0945 29.9972 11.8023 30.0433 12.5094 30.0167C12.5164 28.3714 12.5109 26.7261 12.5125 25.0816Z" fill="#96602A"/>
<path d="M13.2016 17.9492C13.6961 17.957 14.1906 17.9578 14.6844 17.9484C14.6883 18.6062 14.6813 19.264 14.6883 19.9219C14.9828 19.7781 15.2758 19.6305 15.568 19.4828C15.8672 19.6211 16.1586 19.7758 16.4555 19.9203C16.4594 19.2633 16.4523 18.6055 16.4594 17.9484C17.1727 17.9609 17.8859 17.9508 18.5992 17.9547C18.5938 19.9891 18.6133 22.0242 18.5891 24.0586C17.882 24.0851 17.1664 24.1328 16.4633 24.0344C15.8773 23.9711 15.2859 24.0328 14.6984 24C14.2031 23.9844 13.707 23.9805 13.2117 23.9937L13.2062 24.0648C13.1906 26.057 13.1938 28.0508 13.2086 30.0437L13.2094 30.0617C12.9938 30.068 12.7781 30.0703 12.5633 30.0726C12.5594 28.0601 12.5844 26.0469 12.5508 24.0344L12.5523 24.0164C12.7625 24.0133 12.9711 23.9914 13.1797 23.9656C13.1953 23.7383 13.2063 23.5109 13.2047 23.2836C13.1984 21.5055 13.1969 19.7273 13.2016 17.9492Z" fill="#AB733A"/>
<path d="M14.6844 17.9484C15.2758 17.9406 15.868 17.9406 16.4594 17.9484C16.4524 18.6055 16.4594 19.2633 16.4555 19.9203C16.1586 19.7758 15.8672 19.6211 15.568 19.4828C15.2758 19.6305 14.9828 19.7781 14.6883 19.9219C14.6813 19.264 14.6883 18.6062 14.6844 17.9484Z" fill="#FDC72E"/>
<path d="M6.48511 23.9926C6.69683 23.9903 6.90854 23.9895 7.12026 24.0012C7.13511 26.0067 7.12261 28.0129 7.12573 30.0192L7.12495 30.0598C6.91167 30.0653 6.69839 30.0684 6.48433 30.0708C6.48433 28.045 6.48355 26.0184 6.48511 23.9926Z" fill="#D19458"/>
<path d="M7.12036 24.002C7.62036 24.0191 8.12192 24.0168 8.62192 24.0035C8.63442 24.6527 8.62271 25.3027 8.62739 25.9527C8.93989 25.8449 9.22817 25.6832 9.52583 25.5434C9.81333 25.6879 10.1008 25.8332 10.3946 25.9676C10.4086 25.3129 10.3954 24.6582 10.4016 24.0035C11.111 24.0254 11.8204 24.0012 12.5297 24.0168H12.5524L12.5508 24.0348C12.4868 24.3809 12.5165 24.7324 12.5125 25.0824C12.511 26.727 12.5165 28.3723 12.5094 30.0176C11.8024 30.0441 11.0946 29.998 10.3875 30.0441C9.30005 30.0957 8.21333 30.0051 7.12583 30.0199C7.12271 28.0137 7.13521 26.0074 7.12036 24.002Z" fill="#DEA368"/>
<path d="M24.0813 28.9957C24.3079 28.9863 24.536 28.984 24.7626 28.9981C24.7626 31.0215 24.7524 33.0449 24.7649 35.0676C24.5368 35.0793 24.3079 35.0777 24.0805 35.0692C24.0797 33.0442 24.0782 31.0199 24.0813 28.9957Z" fill="#DEA368"/>
<path d="M12.5633 30.0734C12.7782 30.0711 12.9938 30.0687 13.2094 30.0625C13.1821 32.0828 13.2165 34.1031 13.1922 36.1234V36.1516C12.9758 36.1508 12.7524 36.118 12.5422 36.1859C12.5446 36.1586 12.5485 36.1047 12.5508 36.0781C12.5711 34.0781 12.5454 32.0742 12.5633 30.0734Z" fill="#DEA368"/>
<path d="M8.62183 24.0035C9.21479 23.9871 9.80854 23.9871 10.4015 24.0035C10.3953 24.6582 10.4085 25.3129 10.3945 25.9676C10.1007 25.8332 9.81323 25.6879 9.52573 25.5434C9.22808 25.6832 8.93979 25.8449 8.62729 25.9527C8.62261 25.3027 8.63433 24.6527 8.62183 24.0035Z" fill="#FB545C"/>
<path d="M27.0992 28.9895C27.4117 28.9871 27.725 28.9785 28.0375 28.9973C28.0343 29.6582 28.0406 30.3199 28.0343 30.9809C27.7195 30.8528 27.4187 30.6949 27.1179 30.5379C27.1265 30.0301 27.1367 29.5215 27.1007 29.0145L27.0992 28.9895Z" fill="#FB545C"/>
<path d="M14.6851 30.0645C15.2757 30.0676 15.8671 30.066 16.4578 30.0645C16.4538 30.7199 16.4593 31.3762 16.4554 32.0316C16.1554 31.891 15.8632 31.734 15.5609 31.598C15.2726 31.748 14.982 31.8941 14.689 32.0355C14.6804 31.3785 14.6882 30.7215 14.6851 30.0645Z" fill="#FB545C"/>
<path opacity="0.78" d="M13.2118 23.9934C13.7071 23.9801 14.2032 23.984 14.6985 23.9996L14.693 24.0614C14.1977 24.0692 13.7016 24.059 13.2063 24.0645L13.2118 23.9934Z" fill="#8E6134"/>
<path d="M13.2062 24.0648C13.7015 24.0594 14.1976 24.0695 14.693 24.0617C14.6758 24.7008 14.6883 25.3406 14.6883 25.9797C14.982 25.8476 15.257 25.6734 15.5586 25.5601C15.8758 25.6437 16.1484 25.8469 16.4484 25.9773C16.4703 25.3297 16.4445 24.682 16.4633 24.0344C17.1664 24.1328 17.882 24.0851 18.589 24.0586C18.614 26.0539 18.593 28.0492 18.6 30.0445C16.8031 30.0531 15.0055 30.0633 13.2086 30.0437C13.1937 28.0508 13.1906 26.057 13.2062 24.0648Z" fill="#BA8047"/>
<path d="M22.1117 26.927C22.8648 26.1949 23.7726 25.6168 24.7687 25.2793C25.0296 25.4777 25.2968 25.6676 25.5718 25.8465C24.4789 26.1191 23.471 26.6973 22.6632 27.4793C22.8429 27.4551 23.0218 27.4223 23.2039 27.4191C23.4851 27.4293 23.6578 27.7902 23.4929 28.0184C23.3906 28.1887 23.1773 28.1957 23.0031 28.2207C22.5484 28.2746 22.0968 28.3441 21.6429 28.3957C21.3992 28.4496 21.1499 28.2184 21.1929 27.9715C21.2601 27.423 21.3265 26.873 21.4124 26.3277C21.4609 26.0402 21.8679 25.9348 22.0601 26.1473C22.2671 26.3582 22.1226 26.673 22.1117 26.927Z" fill="#7986BF"/>
<path d="M28.7031 25.8488C28.9789 25.6731 29.25 25.4887 29.5093 25.2879C31.3172 25.9027 32.832 27.3027 33.6289 29.034C34.45 30.7988 34.5054 32.9051 33.7656 34.7074C33.6703 34.9793 33.2617 35.0277 33.1 34.7918C32.9758 34.6457 33.0273 34.4488 33.0929 34.291C33.7289 32.6363 33.6226 30.716 32.8125 29.1402C31.9961 27.5215 30.4601 26.2934 28.7031 25.8488Z" fill="#7986BF"/>
<path d="M20.4812 29.3809C20.5625 29.1051 20.9617 29.0285 21.1398 29.2543C21.2757 29.3965 21.239 29.6066 21.1656 29.7699C20.5828 31.2871 20.6187 33.0293 21.257 34.5238C21.8125 35.841 22.8281 36.9566 24.0851 37.6371C25.3086 38.3082 26.7554 38.5504 28.1328 38.3309C29.432 38.1324 30.6523 37.5035 31.5929 36.5895C31.3992 36.609 31.2062 36.6551 31.0101 36.6434C30.757 36.598 30.6117 36.2762 30.7562 36.0598C30.8531 35.8824 31.0695 35.8691 31.2468 35.8465C31.7156 35.7934 32.182 35.7152 32.6523 35.6691C32.8836 35.634 33.1007 35.8621 33.064 36.0918C32.9984 36.6387 32.9296 37.1863 32.8468 37.7316C32.8 38.0066 32.4242 38.1301 32.2211 37.941C31.982 37.7363 32.1281 37.402 32.1461 37.1379C31.064 38.2004 29.6414 38.9105 28.1375 39.1184C26.682 39.3285 25.164 39.0762 23.857 38.4004C22.3625 37.6355 21.1546 36.3262 20.5148 34.7738C19.8039 33.0715 19.789 31.091 20.4812 29.3809Z" fill="#7986BF"/>
<path d="M24.7624 28.998C25.5413 29.0223 26.3202 28.9863 27.0992 28.9895L27.1007 29.0145C26.8148 29.002 26.5281 29.0027 26.2429 29.0137C26.2453 29.6645 26.2374 30.3152 26.2476 30.966C26.5406 30.8301 26.8296 30.684 27.1179 30.5379C27.4187 30.6949 27.7195 30.8527 28.0343 30.9809C28.0406 30.3199 28.0343 29.6582 28.0374 28.9973C28.7437 29.0137 29.4499 28.9996 30.157 29.0043C30.1578 31.0238 30.1578 33.0426 30.157 35.0621C28.3593 35.066 26.5617 35.0551 24.7648 35.0676C24.7523 33.0449 24.7624 31.0215 24.7624 28.998Z" fill="#E6B17C"/>
<path d="M13.2093 30.0621C13.7007 30.0582 14.1929 30.0551 14.6851 30.0645C14.6882 30.7215 14.6804 31.3785 14.689 32.0355C14.982 31.8941 15.2726 31.748 15.5609 31.598C15.8632 31.734 16.1554 31.891 16.4554 32.0316C16.4593 31.3762 16.4539 30.7199 16.4578 30.0645C17.1718 30.0543 17.8859 30.0645 18.6 30.0566C18.6 32.0801 18.6 34.1027 18.5992 36.1262C16.7968 36.1246 14.9945 36.1309 13.1921 36.123C13.2164 34.1027 13.182 32.0824 13.2093 30.0621Z" fill="#E6B17C"/>
<path d="M26.243 29.0133C26.5281 29.0023 26.8148 29.0016 27.1008 29.0141C27.1367 29.5211 27.1266 30.0297 27.118 30.5375C26.8297 30.6836 26.5406 30.8297 26.2477 30.9656C26.2375 30.3148 26.2453 29.6641 26.243 29.0133Z" fill="#F0414A"/>
<path d="M6.48449 30.0715C6.69856 30.0691 6.91184 30.066 7.12512 30.0605C7.13215 32.0855 7.12746 34.1113 7.12902 36.1371C6.91496 36.1504 6.70012 36.1473 6.48606 36.1465C6.48293 34.1215 6.48527 32.0965 6.48449 30.0715Z" fill="#F2C496"/>
<path d="M7.125 30.0602C7.62578 30.0547 8.12656 30.0524 8.62734 30.0688C8.62891 30.725 8.62734 31.3813 8.62813 32.0375C8.92734 31.8938 9.22266 31.743 9.51953 31.5953C9.8125 31.7414 10.1047 31.8906 10.3984 32.036C10.4008 31.3805 10.3992 30.7242 10.3992 30.0688C11.1086 30.0445 11.8188 30.0672 12.5281 30.0555C12.518 32.0664 12.5367 34.0781 12.5188 36.0891C12.4094 36.1117 12.2992 36.1242 12.1883 36.1266C10.5016 36.1328 8.81484 36.1125 7.12891 36.1367C7.12734 34.1109 7.13203 32.0852 7.125 30.0602Z" fill="#FDD7AD"/>
<path d="M8.62744 30.0684C9.21807 30.0777 9.80869 30.0777 10.3993 30.0684C10.3993 30.7238 10.4009 31.3801 10.3985 32.0355C10.1048 31.8902 9.8126 31.741 9.51963 31.5949C9.22275 31.7426 8.92744 31.8934 8.62822 32.0371C8.62744 31.3809 8.629 30.7246 8.62744 30.0684Z" fill="#5CAEFF"/>
</g>
<defs>
<clipPath id="clip0_1_5075">
<rect width="40" height="40" fill="white"/>
</clipPath>
</defs>
</svg>
