
<svg width="40" height="40" viewBox="0 0 40 40" fill="none" xmlns="http://www.w3.org/2000/svg">
<g clip-path="url(#clip0_1_5056)">
<path d="M11.068 0H11.8203C12.9367 0.151563 13.9992 0.758594 14.6102 1.71797C15.0211 2.3375 15.232 3.08047 15.232 3.82266C15.2344 5.86094 15.2328 7.89844 15.2328 9.93672C15.2328 12.0406 15.232 14.1453 15.2336 16.25C16.8219 16.2508 18.4102 16.2492 19.9984 16.25C20.0008 17.0312 20.0008 17.8125 19.9984 18.5938C18.4102 18.5945 16.8219 18.593 15.2336 18.5938C15.2359 20.4727 15.2234 22.3516 15.2406 24.2297C14.5062 24.6688 13.7242 25.0445 12.8844 25.2297C12.8953 20.132 12.8859 15.0344 12.8891 9.93672C12.8914 7.95078 12.8859 5.96562 12.893 3.98047C12.8961 3.67109 12.8633 3.34844 12.6992 3.07812C12.3914 2.51719 11.6867 2.21719 11.0695 2.39375C10.4695 2.54688 10.0094 3.12031 10.0023 3.74219C9.95312 4.33516 10.0977 4.95391 9.90469 5.52813C9.67265 6.12969 8.89922 6.43437 8.32344 6.13437C7.925 5.94766 7.65469 5.52578 7.65781 5.08438C7.65 4.5875 7.65 4.08906 7.6625 3.59219C7.71406 2.32578 8.46562 1.12656 9.56484 0.503906C10.0242 0.23125 10.5469 0.096875 11.068 0Z" fill="#CB9044"/>
<path d="M23.407 0H24.1687C25.3242 0.150781 26.4141 0.803125 27.0172 1.81172C27.3898 2.41172 27.5805 3.11797 27.5781 3.82344C27.5797 5.86094 27.5781 7.89844 27.5781 9.93594C27.5758 15.0656 28.0133 20.3711 28 25.5C27 25.5 25.7297 25.4102 25 25C25.0313 23.0359 25.2258 20.557 25.2352 18.593C23.4898 18.5945 21.7437 18.5938 19.9984 18.5938C20.0008 17.8125 20.0008 17.0312 19.9984 16.25C21.7437 16.25 23.4898 16.2492 25.2352 16.2508C25.2344 14.1461 25.2352 12.0414 25.2352 9.93594C25.2359 8.05703 25.232 6.17734 25.2367 4.29766C25.2336 3.98047 25.2594 3.65469 25.1641 3.34687C25.0031 2.82422 24.5195 2.42344 23.9773 2.35547C23.4266 2.27578 22.85 2.55469 22.5617 3.02812C22.2844 3.45 22.3461 3.975 22.3445 4.45312C22.3398 4.88281 22.4055 5.36172 22.1398 5.73281C21.8336 6.20234 21.1703 6.39141 20.6687 6.13281C20.243 5.93516 19.9797 5.47188 20 5.00625C20.007 4.10781 19.9164 3.16562 20.2992 2.32344C20.8133 1.05391 22.0617 0.171875 23.407 0Z" fill="#CB9044"/>
<path d="M-1.52588e-05 11.6891C0.103891 10.7531 0.92811 9.95157 1.88045 9.94063C5.54998 9.93204 9.21952 9.94063 12.889 9.93672C12.8859 15.0344 12.8953 20.132 12.8844 25.2297C11.475 25.5352 9.98983 25.525 8.59295 25.157C7.1203 24.7664 5.94686 23.7172 4.5203 23.2148C3.07577 22.6938 1.50467 22.7398 -1.52588e-05 22.9V11.6891Z" fill="#7FA6FB"/>
<path d="M15.2328 9.93671C16.8219 9.93827 18.4109 9.93671 20 9.93671C19.9984 12.0414 20.0023 14.1461 19.9984 16.25C18.4101 16.2492 16.8219 16.2508 15.2336 16.25C15.232 14.1453 15.2328 12.0406 15.2328 9.93671Z" fill="#7FA6FB"/>
<path d="M15.2336 18.5941C16.8219 18.5933 18.4102 18.5949 19.9985 18.5941C19.9922 19.9925 20.0196 21.391 19.9844 22.7886C19.2751 22.7972 18.5618 22.8488 17.8735 23.0308C16.9258 23.2535 16.0743 23.7449 15.2407 24.23C15.2235 22.3519 15.236 20.473 15.2336 18.5941Z" fill="#7FA6FB"/>
<path d="M20 9.93633C21.7445 9.93633 23.4899 9.93789 25.2352 9.93555C25.2352 12.041 25.2344 14.1457 25.2352 16.2504C23.4899 16.2488 21.7438 16.2496 19.9984 16.2496C20.0023 14.1457 19.9984 12.041 20 9.93633Z" fill="#7FA6FB"/>
<path d="M27.5781 10.1393C31.043 10.1416 34.5078 10.1408 37.9727 10.1401C38.4867 10.1268 39.0055 10.3127 39.3789 10.6697C39.7281 10.9854 39.9219 11.4338 40 11.8916V23.358C38.5531 23.201 37.0531 22.9018 35.6531 23.358C34.1922 23.8276 33.0078 24.8963 31.5289 25.3229C30.2492 25.6932 28.8844 25.7377 27.5727 25.5268C27.5859 20.3979 27.5758 15.269 27.5781 10.1393Z" fill="#7FA6FB"/>
<path d="M19.9984 18.5934C21.7437 18.5934 23.4898 18.5942 25.2352 18.5926C25.2258 20.5567 25.2523 22.5215 25.2211 24.4856C24.4156 24.0559 23.6508 23.5379 22.7852 23.2309C21.8953 22.9059 20.9445 22.7848 20.0008 22.7902C19.9984 28.527 20 34.2629 20 39.9996H1.56328C1.20156 39.8731 0.834375 39.7176 0.565625 39.4348C0.283594 39.1668 0.129688 38.8027 0 38.4442V22.8996C1.50469 22.7395 3.07578 22.6934 4.52031 23.2145C5.94687 23.7168 7.12031 24.766 8.59297 25.1567C9.98984 25.5246 11.475 25.5348 12.8844 25.2293C13.7242 25.0442 14.5063 24.6684 15.2406 24.2293C16.0742 23.7442 16.9258 23.2527 17.8734 23.0301C18.5617 22.8481 19.275 22.7965 19.9844 22.7879C20.0195 21.3902 19.9922 19.9918 19.9984 18.5934Z" fill="#385EBD"/>
<path d="M20 18.6064H25.9133L26 30.0004H20V18.6064Z" fill="#7FA6FB"/>
<path d="M20.0013 23.0017C20.945 22.9963 21.8958 23.116 22.7856 23.437C23.6512 23.7402 24.416 24.2518 25.2215 24.6763C25.9511 25.0814 26.7456 25.3731 27.573 25.5035C28.8847 25.7118 30.2495 25.6679 31.5291 25.3021C33.008 24.8808 34.1923 23.8251 35.6532 23.3613C37.0532 22.9107 38.5532 22.9524 40 23.1075V38.4698C39.8734 38.8232 39.7141 39.1789 39.4367 39.4444C39.1696 39.7168 38.811 39.8719 38.4555 40H20.0005C20.0005 34.3337 19.9989 28.6681 20.0013 23.0017Z" fill="#385EBD"/>
</g>
<defs>
<clipPath id="clip0_1_5056">
<rect width="40" height="40" fill="white"/>
</clipPath>
</defs>
</svg>
