
<svg width="48" height="48" viewBox="0 0 48 48" fill="none" xmlns="http://www.w3.org/2000/svg">
<path d="M3.00464 22.4919C10.0068 15.5009 16.9931 8.49313 24 1.50781C31.0106 8.49125 37.9959 15.5 44.9971 22.4928C43.245 22.5134 41.4937 22.4891 39.7415 22.505C38.4843 21.2975 37.2703 20.0441 36.0318 18.8169C33.5371 16.2791 31.0021 13.7806 28.4915 11.2578C26.9906 9.77281 25.5206 8.25594 24.0009 6.79063C22.5609 8.18 21.1668 9.61813 19.7437 11.0263C15.9131 14.8503 12.0965 18.6884 8.25558 22.5022C6.50526 22.4928 4.75495 22.5116 3.00464 22.4919Z" fill="#344C80"/>
<path d="M14.1515 43.5087C20.7168 43.4947 27.2831 43.4947 33.8484 43.5087C33.6328 44.2831 33.7865 45.1334 34.3078 45.7522C27.4359 45.7494 20.5631 45.7484 13.6912 45.7531C14.2124 45.1334 14.3681 44.2831 14.1515 43.5087Z" fill="#344C80"/>
<path d="M19.7438 11.0257C21.1669 9.61754 22.561 8.17941 24.001 6.79004C25.5207 8.25535 26.9907 9.77223 28.4916 11.2572C31.0022 13.78 33.5372 16.2785 36.0319 18.8163C35.9607 21.0429 36.0197 23.2713 35.9991 25.4988C35.2482 25.5007 34.4972 25.4979 33.7463 25.5016C33.2475 25.5016 32.7479 25.4997 32.2482 25.4969C32.2491 23.7157 32.2538 21.9335 32.2482 20.1522C32.25 18.6204 30.8794 17.2497 29.3475 17.2516C25.815 17.246 22.2825 17.2535 18.75 17.2469C18.0582 17.2404 17.3241 17.2029 16.6932 17.5413C15.676 18.025 14.9747 19.1144 14.9982 20.246C14.9982 21.9963 15.0029 23.7466 15 25.4969C14.0035 25.5129 13.0069 25.4782 12.0104 25.511C11.986 28.7557 12.0057 32.0013 12.0019 35.2469C12.0066 35.9941 11.9822 36.7432 12.0085 37.4913C19.7954 37.5194 27.5832 37.4782 35.3691 37.5119C34.6679 38.7691 33.3094 39.6213 31.8769 39.7319C31.3763 39.7675 30.8747 39.7478 30.375 39.7497C24.3122 39.7497 18.2494 39.7497 12.1875 39.7497C11.5547 39.7469 10.9219 39.7432 10.29 39.7732C9.71536 39.3044 9.00098 39.0016 8.25192 38.9988C8.25098 33.4994 8.24348 28.001 8.25567 22.5016C12.0966 18.6878 15.9132 14.8497 19.7438 11.0257Z" fill="#EDF7FD"/>
<path d="M16.6931 17.542C17.3241 17.2036 18.0581 17.2411 18.75 17.2477C22.2825 17.2542 25.815 17.2467 29.3475 17.2523C30.8794 17.2505 32.25 18.6211 32.2481 20.153C32.2538 21.9342 32.2491 23.7164 32.2481 25.4977C32.0972 25.4967 31.9463 25.4958 31.7953 25.4958C29.9935 23.6705 28.1681 21.8667 26.3578 20.0489C26.0541 19.7358 25.7194 19.4517 25.456 19.102C25.3266 18.8077 25.1785 18.502 24.9094 18.3089C24.3928 17.8983 23.6063 17.902 23.0878 18.307C22.816 18.4992 22.6697 18.8058 22.5441 19.103C22.2675 19.4705 21.9141 19.7677 21.5963 20.0967C19.8019 21.8995 17.9935 23.6883 16.2056 25.4977C15.8035 25.5023 15.4022 25.5005 15 25.4977C15.0028 23.7473 14.9981 21.997 14.9981 20.2467C14.9747 19.1152 15.676 18.0258 16.6931 17.542Z" fill="white"/>
<path d="M19.8423 23.9672C20.9392 22.8891 21.9986 21.7725 23.1198 20.7197C23.6439 21.0844 24.3573 21.0844 24.8823 20.7216C25.3754 21.15 25.817 21.6338 26.2839 22.0904C27.4023 23.2294 28.5629 24.3263 29.6523 25.4925C25.8845 25.5057 22.1167 25.5047 18.3489 25.4925C18.8214 24.96 19.3436 24.4754 19.8423 23.9672Z" fill="white"/>
<path d="M14.7544 27.8011C15.2372 27.7036 15.7359 27.7448 16.2244 27.758C16.9013 27.7795 17.5659 28.0701 18.0272 28.568C18.6413 29.2111 18.8972 30.1748 18.6638 31.0345C18.555 31.4901 18.2606 31.8623 18.016 32.2505C18.2606 32.6386 18.5578 33.0098 18.6619 33.4664C18.8006 34.0495 18.7406 34.6542 18.7519 35.2477C18.2503 35.2523 17.7488 35.2505 17.2463 35.2477C17.2172 34.6458 17.3897 33.953 17.0053 33.4326C16.7213 33.0417 16.2094 32.9705 15.7603 32.9948C15.7285 33.7458 15.7585 34.4967 15.7528 35.2477C15.2503 35.2514 14.7488 35.2514 14.2472 35.2477C14.2538 33.0586 14.2491 30.8705 14.2481 28.6823C14.2303 28.3261 14.3635 27.8911 14.7544 27.8011ZM15.7566 29.2486C15.7435 29.9995 15.7435 30.7514 15.7566 31.5023C16.1006 31.5098 16.4756 31.5108 16.7635 31.2942C17.3072 30.9408 17.4103 30.1017 16.9613 29.632C16.6697 29.2777 16.186 29.2205 15.7566 29.2486Z" fill="white"/>
<path d="M19.7156 27.967C19.9791 27.7083 20.3813 27.757 20.7188 27.7439C21.5578 27.7655 22.3988 27.728 23.2378 27.7608C23.2659 28.2539 23.2659 28.747 23.2378 29.2401C22.4963 29.2814 21.7538 29.2195 21.0122 29.2617C20.9841 29.7539 20.9841 30.247 21.0122 30.7401C21.7538 30.7814 22.4963 30.7195 23.2378 30.7608C23.2659 31.253 23.2659 31.747 23.2378 32.2401C22.4963 32.2814 21.7538 32.2195 21.0122 32.2617C20.9841 32.7539 20.9841 33.247 21.0122 33.7401C21.7538 33.7814 22.4972 33.7195 23.2397 33.7608C23.2622 34.2558 23.2519 34.7517 23.2519 35.2476C22.1559 35.2514 21.06 35.2551 19.965 35.2439C19.7906 35.0817 19.5684 34.9251 19.5319 34.672C19.4691 34.2745 19.5019 33.8695 19.4981 33.4692C19.5009 31.9055 19.5028 30.3417 19.4953 28.778C19.5056 28.4986 19.5009 28.1761 19.7156 27.967Z" fill="white"/>
<path d="M24.2625 27.9217C24.6 27.6226 25.1906 27.7192 25.395 28.1298C25.9613 29.1461 26.3953 30.2326 26.9803 31.2395C27.0356 30.0807 26.9691 28.9211 27.0103 27.7623C27.5025 27.7342 27.9966 27.7342 28.4888 27.7623C28.5131 29.9786 28.4963 32.1967 28.4981 34.4129C28.5291 34.7664 28.3013 35.0467 28.0359 35.2464C27.8447 35.2464 27.6534 35.2464 27.4631 35.2464C27.0047 34.8836 26.8256 34.3098 26.5631 33.812C26.2106 33.1304 25.9144 32.4198 25.5197 31.7607C25.4756 32.9223 25.5094 34.0848 25.5028 35.2473C25.0013 35.2501 24.4988 35.252 23.9972 35.2473C24.0009 33.0911 24.0038 30.9339 23.9944 28.7776C24.0009 28.4795 24.0038 28.1242 24.2625 27.9217Z" fill="white"/>
<path d="M29.2623 27.7605C30.7567 27.7305 32.252 27.7624 33.7473 27.7474C33.7511 28.2499 33.7511 28.7524 33.7473 29.2539C33.2514 29.2474 32.7554 29.2361 32.2604 29.2605C32.2304 30.4127 32.2604 31.5658 32.2501 32.7189C32.2642 33.5205 32.207 34.3267 32.3007 35.1264C31.8282 35.3833 31.2601 35.2014 30.7473 35.2464C30.7445 33.2505 30.7651 31.2546 30.7398 29.2586C30.2476 29.2389 29.7545 29.2614 29.2623 29.2417C29.2342 28.7486 29.2342 28.2536 29.2623 27.7605Z" fill="white"/>
<path d="M23.0878 18.3069C23.6062 17.9019 24.3928 17.8981 24.9093 18.3087C25.1784 18.5019 25.3265 18.8075 25.4559 19.1019C25.5637 19.7066 25.3106 20.3009 24.8822 20.7219C24.3572 21.0847 23.6437 21.0847 23.1197 20.72C22.6875 20.3028 22.4353 19.7066 22.544 19.1028C22.6697 18.8056 22.8159 18.4991 23.0878 18.3069Z" fill="#906B4B"/>
<path d="M36.0319 18.8166C37.2703 20.0437 38.4844 21.2972 39.7416 22.5047C39.7584 28.0031 39.7481 33.5006 39.7472 38.9981C38.7591 39.0019 37.7869 39.5137 37.2497 40.3472C36.8906 40.8544 36.7772 41.4769 36.7256 42.0834C36.1772 42.0028 35.5884 41.9372 35.0756 42.2016C34.5028 42.4444 34.1044 42.9581 33.8484 43.5084C27.2831 43.4944 20.7169 43.4944 14.1516 43.5084C13.8853 42.9375 13.4653 42.4012 12.8597 42.1716C12.3609 41.9381 11.8003 42.0094 11.2744 42.0834C11.2444 41.2209 10.9087 40.3819 10.29 39.7734C10.9219 39.7434 11.5547 39.7472 12.1875 39.75C18.2494 39.75 24.3122 39.75 30.375 39.75C30.8747 39.7481 31.3762 39.7678 31.8769 39.7322C33.3094 39.6216 34.6678 38.7694 35.3691 37.5122C35.5762 37.5094 35.7834 37.4972 35.9906 37.4869C36.0122 33.4912 35.9944 29.4947 35.9991 25.4991C36.0197 23.2716 35.9606 21.0431 36.0319 18.8166Z" fill="#CCE1F9"/>
<path d="M21.5963 20.0963C21.9141 19.7672 22.2675 19.47 22.5441 19.1025C22.4353 19.7063 22.6875 20.3025 23.1197 20.7197C21.9984 21.7725 20.9391 22.8891 19.8422 23.9672C19.3434 24.4753 18.8213 24.96 18.3488 25.4925C17.6344 25.5066 16.92 25.4991 16.2056 25.4972C17.9934 23.6878 19.8019 21.8991 21.5963 20.0963Z" fill="#BA9161"/>
<path d="M25.456 19.1016C25.7194 19.4513 26.0541 19.7353 26.3578 20.0484C28.1681 21.8663 29.9935 23.67 31.7953 25.4953C31.081 25.5009 30.3666 25.5056 29.6522 25.4925C28.5628 24.3263 27.4022 23.2294 26.2838 22.0903C25.8169 21.6338 25.3753 21.15 24.8822 20.7216C25.3106 20.3006 25.5638 19.7062 25.456 19.1016Z" fill="#BA9161"/>
<path d="M12.0102 25.5109C13.0068 25.4781 14.0033 25.5128 14.9999 25.4969C15.4021 25.4997 15.8033 25.5016 16.2055 25.4969C16.9199 25.4987 17.6343 25.5062 18.3487 25.4922C22.1165 25.5044 25.8843 25.5053 29.6521 25.4922C30.3665 25.5053 31.0808 25.5006 31.7952 25.495C31.9462 25.495 32.0971 25.4959 32.248 25.4969C32.7477 25.4997 33.2474 25.5016 33.7462 25.5016C33.7527 26.2506 33.7499 26.9987 33.7471 27.7469C32.2518 27.7619 30.7565 27.73 29.2621 27.76C29.234 28.2531 29.234 28.7481 29.2621 29.2412C29.7543 29.2609 30.2474 29.2384 30.7396 29.2581C30.7649 31.2541 30.7443 33.25 30.7471 35.2459C29.8433 35.2562 28.9396 35.245 28.0358 35.2459C28.3012 35.0462 28.529 34.7659 28.498 34.4125C28.4962 32.1962 28.513 29.9781 28.4887 27.7619C27.9965 27.7337 27.5024 27.7337 27.0102 27.7619C26.969 28.9206 27.0355 30.0803 26.9802 31.2391C26.3952 30.2322 25.9612 29.1456 25.3949 28.1294C25.1905 27.7187 24.5999 27.6222 24.2624 27.9212C24.0037 28.1237 24.0008 28.4791 23.9943 28.7772C24.0037 30.9334 24.0008 33.0906 23.9971 35.2469C23.7487 35.245 23.5002 35.245 23.2518 35.2469C23.2518 34.7509 23.2621 34.255 23.2396 33.76C22.4971 33.7187 21.7537 33.7806 21.0121 33.7394C20.984 33.2462 20.984 32.7531 21.0121 32.2609C21.7537 32.2187 22.4962 32.2806 23.2377 32.2394C23.2658 31.7462 23.2658 31.2522 23.2377 30.76C22.4962 30.7187 21.7537 30.7806 21.0121 30.7394C20.984 30.2462 20.984 29.7531 21.0121 29.2609C21.7537 29.2187 22.4962 29.2806 23.2377 29.2394C23.2658 28.7462 23.2658 28.2531 23.2377 27.76C22.3987 27.7272 21.5577 27.7647 20.7187 27.7431C20.3812 27.7562 19.979 27.7075 19.7155 27.9662C19.5008 28.1753 19.5055 28.4978 19.4952 28.7772C19.5027 30.3409 19.5008 31.9047 19.498 33.4684C19.5018 33.8687 19.469 34.2737 19.5318 34.6712C19.5683 34.9244 19.7905 35.0809 19.9649 35.2431C19.5599 35.2394 19.1558 35.245 18.7518 35.2469C18.7405 34.6534 18.8005 34.0487 18.6618 33.4656C18.5577 33.0091 18.2605 32.6378 18.0158 32.2497C18.2605 31.8616 18.5549 31.4894 18.6637 31.0337C18.8971 30.1741 18.6412 29.2103 18.0271 28.5672C17.5658 28.0694 16.9012 27.7787 16.2243 27.7572C15.7358 27.7441 15.2371 27.7028 14.7543 27.8003C14.3633 27.8903 14.2302 28.3253 14.248 28.6816C14.249 30.8697 14.2537 33.0578 14.2471 35.2469C13.499 35.2497 12.7499 35.2516 12.0018 35.2469C12.0055 32.0012 11.9858 28.7556 12.0102 25.5109Z" fill="#F4D294"/>
<path d="M15.7564 29.2474C16.1858 29.2193 16.6695 29.2765 16.9611 29.6309C17.4102 30.1006 17.307 30.9396 16.7633 31.293C16.4755 31.5096 16.1005 31.5087 15.7564 31.5012C15.7433 30.7502 15.7433 29.9984 15.7564 29.2474Z" fill="#F4D294"/>
<path d="M32.2602 29.26C32.7552 29.2356 33.2512 29.2469 33.7471 29.2534C33.7443 30.5359 33.764 31.8184 33.7434 33.1C33.734 34.0028 33.0843 34.7519 32.3005 35.1259C32.2068 34.3263 32.264 33.52 32.2499 32.7184C32.2602 31.5653 32.2302 30.4122 32.2602 29.26Z" fill="#F4D294"/>
<path d="M25.5197 31.7607C25.9144 32.4198 26.2106 33.1304 26.5631 33.812C26.8256 34.3098 27.0047 34.8836 27.4631 35.2464C26.8097 35.2436 26.1562 35.2539 25.5028 35.2473C25.5094 34.0848 25.4756 32.9223 25.5197 31.7607Z" fill="#F4D294"/>
<path d="M15.7603 32.9945C16.2093 32.9701 16.7212 33.0414 17.0053 33.4323C17.3897 33.9526 17.2172 34.6454 17.2462 35.2473C16.7484 35.2501 16.2506 35.2492 15.7528 35.2473C15.7584 34.4964 15.7284 33.7454 15.7603 32.9945Z" fill="#F4D294"/>
<path d="M33.7462 25.5019C34.4972 25.4981 35.2481 25.5009 35.9991 25.4991C35.9944 29.4947 36.0122 33.4912 35.9906 37.4869C35.7834 37.4972 35.5762 37.5094 35.3691 37.5122C27.5831 37.4784 19.7953 37.5197 12.0084 37.4916C11.9822 36.7434 12.0066 35.9944 12.0019 35.2472C12.75 35.2519 13.4991 35.25 14.2472 35.2472C14.7487 35.2509 15.2503 35.2509 15.7528 35.2472C16.2506 35.2491 16.7484 35.25 17.2462 35.2472C17.7487 35.25 18.2503 35.2519 18.7519 35.2472C19.1559 35.2453 19.56 35.2397 19.965 35.2434C21.06 35.2547 22.1559 35.2509 23.2519 35.2472C23.5003 35.2453 23.7487 35.2453 23.9972 35.2472C24.4987 35.2519 25.0012 35.25 25.5028 35.2472C26.1562 35.2537 26.8097 35.2434 27.4631 35.2462C27.6534 35.2462 27.8447 35.2462 28.0359 35.2462C28.9397 35.2453 29.8434 35.2566 30.7472 35.2462C31.26 35.2012 31.8281 35.3831 32.3006 35.1262C33.0844 34.7522 33.7341 34.0031 33.7434 33.1003C33.7641 31.8187 33.7444 30.5362 33.7472 29.2537C33.7509 28.7522 33.7509 28.2497 33.7472 27.7472C33.75 26.9991 33.7528 26.2509 33.7462 25.5019Z" fill="#ECBB65"/>
<path d="M5.8275 40.2319C6.37969 39.4659 7.30875 38.9962 8.25188 38.999C9.00094 39.0018 9.71531 39.3047 10.29 39.7734C10.9088 40.3818 11.2444 41.2209 11.2744 42.0834C11.8003 42.0094 12.3609 41.9381 12.8597 42.1715C13.4653 42.4012 13.8853 42.9375 14.1516 43.5084C14.3681 44.2828 14.2125 45.1331 13.6912 45.7528C13.0031 45.7537 12.315 45.7481 11.6269 45.7462C11.7234 45.2559 11.7319 44.7018 11.3888 44.2987C11.0691 43.8393 10.4663 43.8309 9.96844 43.7503C9.83906 43.4137 9.76219 43.0519 9.56719 42.7453C9.22313 42.2784 8.64656 41.9775 8.0625 41.999C7.46531 42.0112 6.88031 42.3365 6.56531 42.8456C6.40125 43.139 6.34406 43.4765 6.25313 43.7972C5.76281 43.8103 5.19563 43.8159 4.85906 44.235C4.45969 44.6343 4.46906 45.2334 4.58813 45.7472C3.9975 45.7481 3.40781 45.7547 2.81813 45.7509C2.32688 45.1875 2.12344 44.3831 2.32875 43.6603C2.54625 42.8297 3.2775 42.1678 4.12406 42.0318C4.49625 41.9568 4.87219 42.0309 5.23594 42.1134C5.25469 41.4468 5.41875 40.769 5.8275 40.2319Z" fill="#749D58"/>
<path d="M37.2497 40.3472C37.7869 39.5137 38.7591 39.0019 39.7472 38.9981C40.7128 38.9972 41.6653 39.4875 42.2109 40.2872C42.5925 40.8159 42.7434 41.4703 42.7641 42.1134C43.2863 41.9728 43.8553 41.9475 44.3588 42.1715C45.1238 42.4744 45.6722 43.2337 45.7406 44.0512C45.8016 44.6653 45.5784 45.285 45.1819 45.7509C44.4966 45.7547 43.8122 45.7481 43.1269 45.7462C43.2206 45.254 43.23 44.699 42.8972 44.2884C42.5663 43.8422 41.9663 43.8328 41.4684 43.7494C41.3391 43.4137 41.2622 43.0519 41.0663 42.7453C40.7231 42.2784 40.1456 41.9775 39.5625 41.999C38.9653 42.0103 38.3803 42.3365 38.0653 42.8456C37.9013 43.139 37.8441 43.4765 37.7531 43.7972C37.2628 43.8103 36.6966 43.815 36.36 44.235C35.9597 44.6334 35.9681 45.2334 36.0881 45.7472C35.4947 45.7472 34.9013 45.7547 34.3078 45.7519C33.7866 45.1331 33.6328 44.2828 33.8484 43.5084C34.1044 42.9581 34.5028 42.4444 35.0756 42.2015C35.5885 41.9372 36.1772 42.0028 36.7256 42.0834C36.7772 41.4769 36.8906 40.8544 37.2497 40.3472Z" fill="#749D58"/>
<path d="M6.56531 42.8456C6.88031 42.3366 7.46531 42.0112 8.0625 41.9991C8.64656 41.9775 9.22312 42.2784 9.56719 42.7453C9.76219 43.0519 9.83906 43.4137 9.96844 43.7503C10.4662 43.8309 11.0691 43.8394 11.3887 44.2987C11.7319 44.7019 11.7234 45.2559 11.6269 45.7462C9.28031 45.7528 6.93375 45.7509 4.58812 45.7472C4.46906 45.2334 4.45969 44.6344 4.85906 44.235C5.19562 43.8159 5.76281 43.8103 6.25312 43.7972C6.34406 43.4766 6.40125 43.1391 6.56531 42.8456Z" fill="#86B566"/>
<path d="M38.0653 42.8456C38.3803 42.3366 38.9653 42.0103 39.5625 41.9991C40.1456 41.9775 40.7231 42.2784 41.0662 42.7453C41.2622 43.0519 41.339 43.4137 41.4684 43.7494C41.9662 43.8328 42.5662 43.8422 42.8972 44.2884C43.23 44.6991 43.2206 45.2541 43.1269 45.7462C40.7812 45.7519 38.4347 45.7519 36.0881 45.7472C35.9681 45.2334 35.9597 44.6334 36.36 44.235C36.6965 43.815 37.2628 43.8103 37.7531 43.7972C37.844 43.4766 37.9012 43.1391 38.0653 42.8456Z" fill="#86B566"/>
<path d="M0.751868 45.7519C1.44093 45.7462 2.12906 45.75 2.81812 45.7509C3.40781 45.7547 3.99749 45.7481 4.58812 45.7472C6.93374 45.7509 9.2803 45.7528 11.6269 45.7462C12.315 45.7481 13.0031 45.7537 13.6912 45.7528C20.5631 45.7481 27.4359 45.7491 34.3078 45.7519C34.9012 45.7547 35.4947 45.7472 36.0881 45.7472C38.4347 45.7519 40.7812 45.7519 43.1269 45.7462C43.8122 45.7481 44.4966 45.7547 45.1819 45.7509C45.87 45.75 46.5591 45.7462 47.2472 45.7519C47.2528 46.2506 47.2528 46.7494 47.2481 47.2481C31.7494 47.2519 16.2506 47.2519 0.751868 47.2481C0.74718 46.7494 0.74718 46.2506 0.751868 45.7519Z" fill="#4E71AD"/>
</svg>
